<mxfile host="65bd71144e">
    <diagram id="St0h23Dkm7OurYVI4SI0" name="术语">
        <mxGraphModel dx="1015" dy="1666" grid="1" gridSize="10" guides="1" tooltips="1" connect="1" arrows="1" fold="1" page="1" pageScale="1" pageWidth="827" pageHeight="1169" math="0" shadow="0">
            <root>
                <mxCell id="0"/>
                <mxCell id="1" parent="0"/>
                <mxCell id="V6_j8JHi88YGvxcLvnGk-1" value="&lt;h1&gt;术语表&lt;/h1&gt;&lt;p&gt;SMT：超线程（Simultaneous Multithreading），指单个cpu core中，共用一个执行单元ALU，但是有n（通常是2）套寄存器等独立的存储空间。&lt;br&gt;&lt;/p&gt;&lt;p&gt;TimeBuffer ： O3CPU中的数据结构，用于模拟数据在一定延迟之下，在部件之间的传送。&lt;span style=&quot;background-color: initial;&quot;&gt;它构造了一个环形队列，同时用 wire 指针可以访问这个队列里的每一个元素。在每个时间单位的 advance() 操作之后，该队列的 内部指针自增，使得 wire 指向的内容自动变为一个时间单位后的内容。&lt;/span&gt;&lt;/p&gt;&lt;p&gt;&lt;span style=&quot;background-color: initial;&quot;&gt;IEW：Issue、Execute、Writeback。发射执行写回。&lt;/span&gt;&lt;/p&gt;" style="text;html=1;strokeColor=none;fillColor=none;spacing=5;spacingTop=-20;whiteSpace=wrap;overflow=hidden;rounded=0;labelBackgroundColor=none;fontColor=#FFFFFF;" parent="1" vertex="1">
                    <mxGeometry width="610" height="550" as="geometry"/>
                </mxCell>
                <mxCell id="IcW4-pvBOBdGPNXIOM4_-1" value="" style="shape=image;verticalLabelPosition=bottom;labelBackgroundColor=default;verticalAlign=top;aspect=fixed;imageAspect=0;image=data:image/png,iVBORw0KGgoAAAANSUhEUgAABLcAAAHfCAYAAAHVYAoIAAAAAXNSR0IArs4c6QAAAARnQU1BAACxjwv8YQUAAAAJcEhZcwAAFxEAABcRAcom8z8AAP+lSURBVHhe7P0HeNxk1vePTxqw+77/Xfa5fs8C7z4sPCwLoSwLpFLTIZ303nt1eu9AqtNIAgQCpEOKkzgFlpIEUu1Up4f0BiwskMTdSYDzP+fWLVkzc89YGkv2jHy+1/XxSHeTRnN09LVGI/lYLBYrtvV9Zg6Ek2yWp2TzkJLN8pRsrlTthOQqspljkkMrVenLL0vKZoUmuSoRSQ5hS3VW7xwpu0ckOYymwOCqk7BbTmmSzfKUbG7IqXHMcju4fv1NTkhFW3Dp2zT3NQV2/vIb1En6SZTt3ZssynXJIWwpMLiyfwW4EbBdmq5Lwr/ZUOezg+E/ZzeCK3AMkmyWp2RzpQoic5m3YzQGl+Dzy37bmAJMU5Z81SSHsKXA4PoF2XYLI0yK5rXg0tRwjY3gCpRslqdk85CSzfKUbK4UHxZ1XZWv/qqT8LWc0iSHsKVQh0VVwiBRsJklh2GxWCyW91WtWrULMvsXuIYMGcKHHC+Lguu3336DwoCDy+Oi4Prll1+gMBg8eDAHl0clPlgKrhs3boAdXihVAkoWLwYlivlg48zn4cbJWTDr+VLKtuEYOHAgB5fD+k2+FraM4MrKygI7PI/BVUzrr5UdmxHUxgpRFFyl5GvMK1qCS4iCKz09HQqDAQMGcHA5rKgLrtTUVCgM+vfvz8HlsKIuuK5fvw6FAQeX84qq4CLt27fvnsJCrkJhi4OL5ZqKRnDdX3PsuLS0NGCsU6XTrPweXjm4GDUcXLni4HKYfAZXdSRa/rHIt8IG132Vxt2p2oBMeOTmi1RFI7hIqo3HhEduukhVXL6G1v0tuoMdnqzbOGil+jZ/CTLfb26L/fv3j5PdDfV/chHYJTk5uU7gYXH4vMq26DWust9Gt0qDqlXgq4Yv2eL8+fPKseYcOIOcLRCuXLli+bCoioG8kF2xc8seYIcn6zZxMbgWY8DYQxVcI96sYove46v4fdBW0YLrZVuECq6FCxfaZi4GSiTYCi5FDOSF7Eqde2KBdZTB1QKD64MWtlAF14CnFoNdCj+4atoiVHDdvHkTbt26pcS35SNIv3EjqDzxwDFl8OSFveBSx0E4ZFfs3KoX2OHJek1DBFdLW6iCa+BTS8AuFFzU1/xBjXyrii3yE1zbGtWyRajgoi+lMzIyDKZvaQIr01Ll/A74KT0Niic28GuTeOA4zDt4zjYUXLRMsdHzkCoG8kJ29fkeaN0b7PCUMrhehsyFrWyhDK6nl4JdlMH1dlVb9J4QYXBVw+BqUtsWoYLr2rVryu8Sw1EQwaWKgbyQXbFzmz5gh6fqN1MH16LWtlAF16Cnl4FdVIfFURgwduiDwfXOO++ExTy+jhZcdWwRKrjoKtNff/3VFusxuN7EYLGLncPiA23xc7eJ7Iqd2/UFOzz1SqjgamsLVXANLrMc7KIKrtHzq9ui76vVlNermzGPr9OgWlXY3qyuLUIFV2ZmJmzY0xRS8TXr4kzwJX0pKIGHwsysLLhjfSPYj4fC1MwsLN8qLhxcf/A4vJVyzja2gksRA3khu/p8f2vfD+zw1CvNFcFVEzIXt7OFKriGlP0Q7KIKrjHvVrdF3GvVgq5VD8Q8vo4Irub1bREquOgwp7p+KxwbMLjexmCxi53gUsVAXsiu2LnjALDDUw1aBAdXSwyuJR1soQquoeVWgF1Unmvcghq26Pd69dzr1E/MoPfnd906YR5fh4JrR8sGtggVXHSYU2XMcGw+eATmHzpvGzueSxUDeSG7+nwPdhoEdni6YcuglYprWQuylnWyhSq4hpVfCXZRBdf4916yRf+J1cVhSXAkHkoULyYCzChDzOPriOBq3cgWoYIrJycHXtjQSASyL2kb3La+Ifg2fwgJ2VmiLDU7G3LwtXzSh1jXQJRtxMz1DgaLXewE14Od8XO3ieyKnbsOATs83aiVOriWd7WFKrhGlF8NdlEdFid88LItBkyqYfS1Q8Pq1WBn2ya2CBVcdJhbe2S6mPbt2qy9ot/S65/FYKNX8l562aaUE7Dg8AXb2DksqmIgL2RXn+/v3YeBHZ5u3Do4uFrVhqwPu9tCFVyjKq4Bu6iC67VFtWwxcMrLQf/mB2IeX4eCa1f75rYIFVxTEj6Gt1cn2oKC6z0MFrvYCS5VDOSF7OrzPdxzJNihTJO2iuCqA1kretlCFVyjK64Du6iCa+KS2rYYPPVl+WP50DKPryOCq2NLW4QKrg+OXEAuOsKCQxfxM2oOxfHQTvPvHDwnyvR6O8GlioG8kF2xc+/RYIcyTdupg2tlH1uogmvss+vBLirPNWlpHVsMnlYz6BxSIObxdSi4dndubYtQwbXw6AXkoiP4fE/CI7eXgtcPnMXAQp9FwXWYyn3wPtbb8VyqGMgL2dXnK913HOjgrDFtUK+M33zZZu2DViqudV3IWi3+BYVOHdqL6bwwBdd5+eob99xGMQauFdC0FfTguuuuu4wPasryemIcelXh8/3Jb37o9Nriuz3C56soX31GGUHjaj9qLSfq6Ix6wxrVIalbW1uECq7F+KEvPnbJ4JFSJcVyzGVmWsw5oyy3AgVXkwELaPxQMurE596+tlgXcxyEQ+uJeqTfBNDBWUlZo6x0g7Jw7+M+Y75s8w65nWV7Cq7sBPoX9B7Z3weJOE9l8XOp/B9iOjsB/wPCOpo2BdcJhMp9E57/WNTXKrNJvLbBeSrTy31/6Crqxst5KtcPi6IeoQ9q2kf1cxl2v9+83q7uzHpG2bAZ6BnlL5p9vgr4elRMV5hyyCincSm4xm6/LPr//PPPIriSe3TIpc7DkISvPt9/g++ucvBKTZHlRZneJjC4qH7jxo2wBINrCX7wOhRc9Er1dHij10VHL0HJksXxv1kfVJpzWpTR4c/czwoWDotybIyP/lpc0CtRWtAO/vrU7bLNX+B3z/Uw6mV7TY8OeA3sUK5Fx9zOUnGt60H2mkG2UB0WX3vhX2AXleeKX9nAFsNn1Q36ZTOBq2RM62PTf3XffPONmKbg2tOrky1CZa5l+KEvO37ZNW4rVdyYtuO5Hh34OthFdsXOgyaBHcq17BwcXG0wuNYNsYUquF5/8XOwiyq4ZqxuaIuRs+v5nflWYR5fp+FLNWBPny62COm5FNdr5cXyE5fDs0AcZcS0CC5Zbiu4FDGQF7Krz/fYkClgh3KtuiiCqz5kJw63hSq4JlX6AuyiMvQz1zSyxcg59eT/hKFlHl+Hgmtv3262CBVc5Os+3ttUu1brymxxjsuYR+7Y0EiU3bp12Sj7/PDX8NGJK7axY+hVMZAXsqvP9/iwaWCH8q27BgdX21cge8NIW6iCa3LlLWAXVXDNXtvYFqPn1Ff+h2jGPL4OBde+/j1sESq46NCbmNwUruFrxoWZ4Nu9Fa7idEkMqPSMDHHydB+2o+u4qIxePz/yNaw4ecU2djKXKgbyQnbFziOmgx3Kt+mmDq6No22hCq6pVb4Eu6gOi28kNrHFmHmvGNmg63PPitdnixUzygjz+DqNMLj2D+hli1DBFcn1XF9gcK36+hvb2AouRQzkheyK/8eNnAl2KN/WdAG+lAiuTWNsoQquaVW/AruogmvO+qa2GPNmA8jOzhZ0eba4MY2rZEybx9cRwTWwty1CBRddeaHKmOHYjMG1GoPFLnaCSxUDeSG7YufRs8AO5dupgqsB5Hw8zhaq4Iqvug3sogqueRua2WIcBpf+X6EZXCVj2jy+TqOXX4IDg/vYIlRw0ekOCuIsCmp5LZdv83LocCFNlF/LyhR15L2yL80WZZuPfg0Jp76xDQXXhx8nWwsuRQzkheyKncfMBjuUb2f6dYdUXDsMrk/G20IVXNOr7QC7qDzXvI3NbTHurYbK/xDNmMfXEcE1JM4WoYKLDnOq5RJk5FXlW46egjWnvrWNHUOvioG8kF2x89g3wA7l24cKrgm2UAZX9Z1gFwqu+14aVdP8Qb25qbktxr/dECpXrhwW8/g6FFwHh/azRajgosOc6pqtcGw/cgLWnMaAsYmtw6IiBvJCdvX5nhg3B+xQob3pp0NSce0aQs6/XrWFKrhmYLDYRXVYfOvj5rYYP1+7nMUuIriG9bdFqOCi67noGi1xndaegTBzaxORsegarnSso1/+0HzHC6fxNU60o8y1FoPFLnaCSxUDeSG7Uue5WGCdkMH16Wu2UAXXzOq7wC6q4Hr74xa2mDA/9xopOzgZXITu76YnD4A0OW2Ggsu3ewu+ThHzBRNc6jgIh+yKncfPAztU6GD6XZqUFlyv20IZXDV2g12UwfUJBo0N8hVcwwfYIlRwpaSk2GbrsVOw7sx3trHjuVQxkBeyq4PB9RkGjQ2cDC7qa/6g3v6kpS0mzG9s9LUDBVcKBowdQgUXnaHXz6mVWt/AmNbOyueebzMT9cH1zwlvgh1CB9dEW6iCa1aNJLCLKnPN/1dLW7z6Tj6Ca8RAW4QKLjrM6b+kpuBKzTgrXulMPfmtNFlnhoIrEYPFLnYOi6oYyAvZlYOLiIbgiuQMfdQHlxcUGFxM3lgNriKvwPNcjDXk5mPlJdXGK1QOiasDBB1LapcsK9sVIrTdWHkoKg+LMrimPVtKzF+9rv4KqbDgw6JFseeyDwcXi8VisViFI/k7BKXqJOy2dHymduEkm+Up2TykZDPHJIcNKdms0PTp+e/lmkQmOYwtya4Rqc6apOVyGE2yXOhKmpyQKuzgChxXNnNMclihPXuS5FSuZLNCU/jgyoLZ63Cdvz0NM79IgfjjP8G5X36TdZrkMLYkuwoNSUyGJriMBmu0z4E+j6brDkEmLqcelv0qSnMVNrgCVZSCi1TX5eXZlZXMJQJMqk7ST3JKkxzGlmRXofq4PeZggOmfQz35SsGlUkwFV6BkM8ckhw0p2azQFCq4+hzPkFPhJYexJdnVkpqZApsUFFwsFovF8rJk9i8UpaSk3ClXg+VFqX6JU1AcOHBggFwNlhel35u+MODg8qZ+QTrShP4TMDtkZmscOUq3CegIUw5lQEJaprJtODi4vCkKros0od9t0A5pGbnTOARMOpiKr+392liBg8vjMv+WsKDh4PK4VPdtKCg4uDwu1S9xCgoOLo9r586d/799+/bdUxjs2rXrz3I1WCxWTEt1jTgTHrnpWHlJtfGY8MhNx8pLqo3HhEduukhF/Sdrkx6XauMx4ZGbLlLdlK/el2rjMeGRm8493d+iO9jlwIEDo2R3Q5nvNwe7yK6GKlWqNL7/k4vADnSvUupr3mjD51W2zYULF/w2fCD0EClV+c5Rg+Crhi/ZQjUOMefA2XxTtXp1ZbmZajW0dRAbPQ890LyrMgbCYdy96P6WPcAu7gbXYgwa66iCa8SbVWwTeXANxoB52RaqcQjVs33C0a1bN5iLwWKGgiuwLBBbwdWimzIGwmEKrp5YYA9lcH3QAuwiuxqi4Brw1GKwQ+EH1xAMmJq2UI1DmO8YqN9ZkO45f+tqgl+dzrRp04ICx/ngwmykiIFw5AZXq15gF3VwtcSAsYfsaoiCa+BTS8AOquAa+VYV20QaXLswuLY1qmUL1TiE+Y6BFFz0evv6RtD+3DX4KR2DYfcWvzZTpkyBeQfP+UHBFVgWiK3gomykiIFwGMH1QOveYBdlcC1sBXaRXQ2J4Hp6KdhBGVxvV7VNxME1Zihsa1LbFqpxCNX3iOGYNGlSUOA4HVx/a9VTGQPhyA2uNn3ALsrgWtQa7CK7GqLgGvT0MrCDKrhGYbDYZdasWfDOO++EJHRwDcOAqWML1ThE4HN98iI+Ph7exGAxQ8EVWBaIreBq0wseaIufuw1yg6tdX7CLOrjaYsDYQ3Y1RME1uMxysIMquEbPr24b1bXqZs6dO2eMb2b32GGwvVldW6jGIbSLAc+BL3EqZOA0PfeHnv9z7PhAfN2q1f9nNVzFQyLVTZ06Fd5KOecHBVdgWSC2gqstZiNFDITDCK6/te8HdlEG1+J2YBfZ1RAF15CyH4IdVME15t3qtlFdq24mZHCNGwHbm9e3hWocQnXtVjgmT54Mb2OwmKHgCiwLxE5wPdi2rzIGwpEbXB0HgF2UwbWkA9hFdjVEwTW03Aqwgyq4xi2oYRvzNerTjmaJVxzWKAsZXONHwo6WDWyhGodQZcxwTJ8+HeYfOu8HBVdgWSC2gosCRhED4TCC68FOg8AuquDKWtYJ7CK7GqLgGlZ+JdhBFVzj33vJNpmZmQZTUrRH4a1JSzfKQgbXhFGwo3UjW6jGIfRATsvJFviSthllN25chI17m8LkH8/gazPx7B86FfEOBosZCq7AskDsBNffO/aHBzvj526D3ODqOgTsogyu5V3BLrKrIQquEeVXgx1UwTXhg5dtY+6vIlRwJb02Bna2bWIL1Tg6vi/6wI94yIvf0gR8uzZD2S+mGnXtDuH8oeOwNqmpePYPHRYXHL7gBwVXYFkgtoKr80BlDITDCK6/dx8GdlEG14fdwS6yqyEKrlEV14AdVMH12qJatlH9q28mVHAlvz4OdrVvbgvVOMTbqxNt8x4GixkKrsCyQOwE10NdBytjIBxGcD3ccyTYRRlcK3qBXWRXQxRcoyuuAzuogmviktq2yUtnzpwxxjeTPHE87OrY0haqcYgPjlzMN9UwuErfXgo+mN/eKBs08hloU/6O3DY2gqs0BosqBsKRG1y9R4NdlMG1sg/YRXY1RME19tn1YAdVcE1aWsc2qvNIZkJmrskTYHfn1rZQjUMsPHox31Bw0StuEnjv41dh2qhnBG0xuKrdcZsotxVcPUcoYyAcRnCV7jsOdHAW7pXTd93tM8ofkK86puBaJ199Wav7AYGT4lVFYJ3oqKk0/aHgGvfcRtGOXq2gCq4py+uJMcq3qQb3tako5kPh+/vj4pWeGGam23PFxRj6vB5cVKbfX57m90x9DZK6tRUUwzJ9Ohzmda1dO/eM/eJjl/ygZQSW5bJdUXZJBJeq3IzF4MK34/M9gsFCnzlO+sVAIMVLFodixbQ2RnA90m8C6NAA+utd9/jgTjn/gKkNYQou0ZYmshMGQC4NZfk9YprKaFpvnyjbUT8pUU7BNeH5j8X0hOe19TBDdVTe5u5isqymX3BR2fLly2HaR/Vx+k/izfqqVpRtc6H6aR9V1No99Djc17aa8WtmHV/Htfi63pg3B9dPeyeJV5rfO20iJPfoIKDgovInixeTZY2hSXEtSPU2BPXToTp9rCX4wZtZeER7/eCwlomq4+GO5ilAlmBw0TSV6+0JCi7zvAqLwUX1Qx6NGwuP9MfPHaH3939LlQTf3TXgz61HwcN9xxt1IriKY7zgtBFcjw54DeyiOixmrxkEdpFdDVFwvfbCv8AOqswVv6IBxK/0B5sElZlR/bLZjB5c33//PXz77bfGsvbGT4I9vTrZQu8byLLjl/MNBRe9+p4YFVSnU93GYfExDJZHB75ui9zgGjQJ7KIMrnVDwC6yqyEKrtdf/BzsoAquGasawozV9lCdATcTynPtnTEZ9vTpYgvVOITqmq1w0PVcy09c9oOCi159/xyF20Vc1gQlECoriZmFXu0FFyYURQyEwwiux4ZMAbsogytxONhFdjVEwTWp0hdgB1VwzUxoBDPX2CMvnT592hjfzL4ZU2Fv3262UI1DmK/VuoHcRHzJ28W88ZrYAA7duCGm6STqRyeu+EHBFVgWiJ3gehwzkSoGwmEE1+PDpoFdlMG1YSTYRXY1RME1ufIWsIMquGavaQyz19pD9R+imVCZa/+sabCvfw9bqMYhtOu0zoovrlNx+rb16F13b4XnNzQ2ruWiMrq2a19aqriea8XJK35QcAWWBWInuP4xeJIyBsKRG1wjpoNdlMG1cTTYRXY1RME1tcqXYAdVcL2xrgm8kWgPPWMQFSt29nslQgbX7HjYP6CXLVTjEKqTt+Gg67lWff2NHxRcgWWB2AquoVOUMRAOI7j+MXIm2EUZXJvGgF1kV0MUXNOqfgV2UAXXnMSmMGe9PbKzsw1wOIG5LGRwvYEbc2BvW6jGIVQZMxx0PddqDBYzFFyBZYHYCa4nMBOpYiAcucE1ehbYRRVcOR+PA7vIroYouOKrbgM7qIJr3vpmMG+DPVT/IRKp8jVUcB2YMwMODO5jC9U4hAhs9FTXszKNa7lyA/w8bNjTFMof/Ro27G0KmVhG13MlnPrGDwquwLJAbAXXiHhlDIQjN7jGzAa7KIPrk/FgF9nVEAXX9Go7wA7K4NrQHOZttIfqP0QzIYNrLmbyIXG2UI1DqJZLUMD9iIfBwHL64nrNqW/9oOAKLAvEVnCNnK6MgXDkBtfYN8Au6uCagAFjD9nVkAiu6jvBDqrgehOD5c1N9qBxwhEquA7OnQUHh/azhWocQnXNVjjoeq41pzFgTIjgCigLxFZwjZqhjIFwGMH1xLg5YBdlcP3rVbCL7GqIgmsGBowd6IOnvuYP6S0Mlrc+tkekP9A4OA+Da1h/W6jGIei6LfrVzyE85K05PkC7juvybOh44QykYhnN5yCUyWiaTkWsxWAxQ8EVWBaIneD65+iZyhgIhym45mKBPZTB9elrYBfZ1RAF18zqu8AOquB6e1MLePtje0RDcJG3o+Aqe/gE7P/3hyKI6FQE8WNaqp8XJOiwGBg4zgfXLGUMhCM3uMbPA7uog+t1DBh7yK6GRHDV2A12UAYXBcwn9og4uN6cDQeHD7CFahwiJSXFFiNGjIB1Z77zg4IrsCyQ6i/ZCC70UKoYCIfzwfUZBoxNZFdDzgVXSwwYe+QnuFIwYOygGofQz6kFQhlMn15zI9uYpsNiYOBEVXD9c8KbYBd1cE3EgLGH7GqIgmtWjSSwgyq45mOwzP+XPSIPrjcgZcRAW6jGIcy/pp6+pQmsxEOhPp+Y3ARuw0PmxH9fN8roDH0iBosZCq7AskDsBNeTaNBVMRAODq4AoiG4VGfhw0Fn6AMDJ6qCyysK/KCYvJGbjpWXVBuPCY/cdKy8pNp4hYnPV44+PDF9aNqzcO26ul1hom05Vp5SbbzCxBxc9KpPRxO03VgWpNp4THjkpmOxWCwWi1V4qp2w+8tIqbN6t/FbWSdUO2HXLNVyrCKHcUyqZVil4srdv5PDRK1U622VceOguBymyArjf6tq2xQEchVcV621ex5SLb8gqLViVwO5GsH6PjNH/qRKobSfoU7CbjkTLKqTwziivJYl+PyKLAmWHMYxyWGDtOpzuS4JKbIkWLUTkqvIYaJWclWD9c1pY3uHUqUvvywphymy+vT893JrKJT2jYzXy2J2795kuPHrb8Z2PY/TpMDtrE+by1SSq+C66qzeOVIuUqGs4PXf/SOs27pHlh+UpQCvrNkNmb9o7xm+OwM5vwLs27cHTt/CiRCqsyZpuVyNYIVNXKhwG5Dq5DCOKNyySFQ//Rs5o5AcxjHJYZXSPpjQ6xvLiWv1F0l5vj9OXOETl7bttB1bvMoERqKyW7QP68mNEPVZol7bvbHPZ7l9AiVXwXWFTVzpuetP0l9J5nJS03VJRuIaeCID3jjxk5huiAktVOryROLSN0S4NnIYxySHDVLyiVNiPUJ7v9hOXHtOau8v9G7DiYsU3nFdFdtQegwZt1qZBrl1LbHtStVb5Wo27ug3Q5uR6EhcqHqYeKYe/1FMN167G37B131fnxHv66J0lSRz4jJL2y5qhU1cdVbvGp8f5DCOqHbCzg6qZVhFDuOYVMuwSsUZ0X+OS7XeVsGsJ+4XV5Sl2i4FhVwF19V01Rd/VC2/IKi7Ylc5uRosFovFYrFYLBbLG6pWrdoFeaqiSGnIEPE4owFyM7BYrFgSJa7AGyMWBQYPHsyJi8WKVVHi0m+fUpTgxMWKdp1H6GtpRsGTTz75Q05ODrjNC6VKGMukef3VmD4xy6jPzA7u7zT4vo3lMYIif9lMtOk3+cpSiByX+RnibtG1VElIS8fp9d2gw+proqxYsWJQoUJH2Wa9tgNVqGD0cZMBAwaw4/JXKfnKihJx4gojSlyqW1V4HU5cQeLEFWXixBVGlLgCn/1RFOjfvz8nLn9x4ooyceLKQ7gD16O78BY1OHH5iRNXlIkTF4uVtzhxRZk4cbFYeYsTV5QpX4nr/ppjx6lO7jKMk1TpJC4HKUxx4ooyceJioh5OXKxAceJiop5CTlzaNXQ+X5G/zXc0Kd/nuFSBxjBOI8OtMFQdmaxN5kP3t+gObvNk3caWNlTf5i9B5vvNXEcuLqzoAcj9n1wEbqM/NFmXKsiI4fMqu06vcZWVy3aLBlWrwFcNXnIdekCzavmhmHPgDHI2Kqhavbqy3C7VamgPmiacdFwPNO+q3OedRi4uV/e37AFu82TdJnQBXtAT1gOlJa7mrkPX1chFhpSWuBZjcnEXSlzJycl1aJnh/lVUJRqnocSV11Pj8yLUU+VVUOLaOWowfNXwZVc5f/68cvmh8GriunLlinh/jiauFt2U+7zTBO2zqkZOYzlxtcDE9QEmF5exmrgGPLUY3MZq4hrxZhXX6T2+CicuhG5F89tvv7nK9OnTYe2B4zAXk0o4KHGpyu3ivcTVqie4zZP17CSuFq5jPXEtweTiLkU9ce0aNQS2NarpKnYTV3Z2tvIuD0Sp9Q1g1tYmkJl9HlKysuCO9Y2M8hc3NBbT17OzoMOFdLh9fUO/vmamTp0KiQeOKZOMGTcS16D4BOcSV0v8V06xzztNcOJq3Qvc5sl6Ta0nroUtXcdq4hr49BJwG3PiIgXuRDoj36rqOoWSuEZj4mpcy1XsJi76faGq3EkmT56Mies4zDt4LiyUuFTldjEnLkKGW771QCt0RIp93mmC9tkH2vQGt3mqvtXE9TImltauYzVxDXp6KbiNOXHd9/K4+83BbWbU21Vdp8+EAk5c1TBxjRkK25rUdhW7iYv+lXNb9K/ixv1HlUnGjBuJy8l/Ff/Wuqdyn3ea4MTVti+4zVP1m1lPXIvauI71xLUMk4u7WP1XcfT8aq7T99WqcreKXN98841y/VU0qFYVdo8ZBtub1nUVu4nrxo0bcPPmTdi0t6l4Nbg8G3Lw1bc5DrLxtQf+a+hL3ubXhubv2NBITKfkZOO/kA396nWmTZsG69FxvYlJJRyUuFTldnEtcVFiUezzThOcuNrFgds89Upzi4mrJmQubuc6VhPXkDIfgttYTVxj3qnuOnGvVQu6X7pdzp07p1x/FSJxjRsO25vXcxW7iYtIT0+HxOSm+HoGruK8L3EKTm/H177g270VnsekdR3b0PRtmJx8iQ0gTcxvgW4bmsDE766JMoLG+jEtVZzz+lmOTf8qrj94HN5KORcWSlyqcru4lrja9lHu804TtM/+rUN/cJunGrSwlrhaYuJa0sF1rCauoWU/ArexmrjGvlvDdeJeq668Z/qtkzMh/liOeMXVFNy4qWiH2E9cI2BHi1dcxW7ios+kINiAievtlPNhocSlKreLW+e4HsSkotrnnSY4cXUaCG7zVMOWlhJXHCaurKUdXcdq4hpWbiW4DQWwlZPz4957yXX6TawuvlEL4th0mHo4QyQsvcw8bcZ24powCna0augqdhMXJeBffvnFVeLj40Ximn/ofFgocanK7eJa4qLEotjnnSZon32wy2Bwm6cbtbKYuGpB1rIurmM1cQ0vvwrcxpy4wjmuCe+/7DoDJtUQ/8ZYoXixYpCqKLeTuBpWrwpJr46GnW0au4rdxJWRkWHcL37GniaQmpEJV7HMl7RV/Ks46ftUbfqLZaINzevtMzPPws8Z6bB+T1PIwPnyR06KSyZoPvPCTEiX7aZMmQIbU47Du4fPh4USl6rcLm79q/j3TgOU+7zTBO2zf+82FNzm6catLSau2pC1vJvrWE1cIyskgNtYTVyvLqzpOgMmvxR022G72Etc1SDptTGws11TV7GbuOgnQqr35iR0jmtTyglYcPhCWChxqcrt4lbieqjLIOU+7zTBiavHCHCbp5u0sZa4WmHi+qiH61hNXKMqrgW3sZq4Xl9cy3UGTX1ZrE9+sJu4kieOg10dWriK3cT1/pHzyIWooBomLlW5XVxLXJRYFPu80wTtsw/3GgVuU6ZpW4uJqw5krejtOlYT15hnEsFtaGc3EtdLY4cF7kQ6E5fWcZ3B02oG/TTFLrYT16QJsLtTK1exm7g+OHoBuRgVUOIS05+8Cs3WnobbbisBxXw+UebzNYepo56BYsWLQ9/B5WD+wXOUkARafe60W+e4SvcYrtznnSZony3dZwy4Tdlm7awlrtaYuFb1dR2riWvcsxvAbcyJi2TegcxMXlbXdYbE11KeSLaDrcRVozrsmfwqJHVp4yp2E9ciTFyLcGePBihx6dPFMQn9bdDnOL1YJKSFWBaPievdg+fl6zloW/4OUbdofnsjcYlxXEpcj/QaqdznnSZon30kbjyowCq/aX0+ePpeKF2/DPzeVB5I2eYdVInLGAtZRwVxretC1ur+Bj7fPfLVZ7xanVbV6SgSV+ATqDtQ4hr/3CYgqCzwNXDad/c4GP9oLb+6e++uKabL/P+KGWV0tKTpcThN836OS/6rSPU6d911lwi0qR/WE/h8fxKvxYr5tPmqFWHq0PtE2ynLqV72/fvjRjnRqbq2DuWG1DXK9PFoejL2HTa9tvJ3dT5fhdzpCtO06eMzocK0I0a5jjlx0XulC1Jph/s++XUYu+2SuLL+6tWrol4krqmvQVL3dkFQ36TaD4t129GtLZQsrq0/1fnuKouvDaH+y5iYaB7L9ToV4RKX3pdo1KiRKFuMO/riY5dC8kipkvDBEW26bbnbYFLKedE/fmRFbaxGC0SdNu5TULJkcViE8yWK+6BkCW1Z1L8UltP0gkMX/MY3Q4lLVW4Xh/5VlO9JkE0Fj2JS0fdzKtenSzeoYLSl+d89qj3N+86/lDTK9PrfPVtdvD7caywUx21irtPHC05c/V8FFVjlN038vlJ/uOsebbp0g7KyHBMXTj+A7e79R24fM2VbdAyVuPwU17oeZK8ZaIBFBub5UNPx88L30VEkrq3I3dqkJkpcrz7/CRA4G/SqKivr03Yuo+wPXfF1AtQq8zG0vbsYTDD1vfeB90QbVeJavny5385FTPvoFZi24hWjPyHmq1WEZzCJ0Xzd2abEhTwjd3ZC71thWG4bUfbQ4+L1vnbVYNjMOqZvx3LR25unCfrWLLBtYOL69ttvxevVA1NE4tJPTlM9Ja698RMhuWfHIKhPY7n+/Vq0F8mPpndjnb78V2q1h+S6pY151ThEuMS1ffv2oLKluKMvPX45JJS49GXOGFURpmDioelSpkf/L31XdzxPwSO35bZfenyHeF109LJR9uDgL4KWoUOJyzxPSdE8r6IULi+wrLoziWuwfDX0aNw4Yz8vXiI33oqXzN0WVOe7uwaU7t8e/tx6NPz1qdvh4b4Tcut8fxGvv3uup5a4cLoYJnm9ngjaZx8d+Dq4TbmWnaz9q9gGE9faIa6jSFxBosT1+oufgduoEpeK6SsbwPRV7jJiVl3lsu1g91/FvdMnw57enV3F7r+KyzFxLcedPRqgxGWexzARPDjoC1j+bgdj/tHbS4nXloln4LZSxWHW6GdhwIFzRj+HEleQHsOk8uigia4TtM8+NmQyuE25Vp0tJq76kJ04zHWsJq6JL34ObmP1HNfM1Q1hZoK7jHyjHuzcuTNf2EpcL9WAfTOmwN6+XV3FbuKiny6pvnhwEvqR9aeHv4YPT1wOCyUu83yVxi1Eglp0+CLMxuRE08Tw1tp0y/Va4qK2NK/3MycuAusc0eMDX1Pu804TnLiGTgW3Kde6i/XEtX6E61hNXJMqbQa3sZq4ZiU0gllr3GXUnHrKncwOp06dUq6/CpG4Zk6FvXHdXcVu4qJfAND5uo17muLrBZhy8Qz4Ni+HnMuzIAvLfUnboMPFdCieOA2nv4ISiQ3gxIlBkC3qvhI/sqb+B7MyIefn1ZCenQPXs7R7dBVPjBN1dD+uz498DStOXgkLJS5VuV1cS1zohlT7vNME7bOPD48Htynfpqu1xNX2FcjeMMp1rCauKVW2gttY/VfxjbVN4I117jJm7ivKbwrtYNdx7Z8VD/v693QVu4lLPwfnJnQB6heYuFZ+/U1YKHGpyu3i1r+K/xgyWbnPO03QPvuPETPAbcq36WY9cW0c7TpWE9fUKl+B21hNXHMwscxJdJcx814Rt3Tx5wRUmHbUmMfVNE1XMKZ17CSuRpS43pgO+wf2dhW7iYuco9uifxU3HzkJqzCphIMSl6rcLm4lrieGTYV/jMT93GWCE9eomeA25dt2t5i4GkDOprGuYzVxTau6DdzGauKam9gU5q53l7FvNgj6ljDzSLx4pd8m0reI9G3foYxMmP5scfB1XBPU3l7iegkTFwbloD6uYjdxUQKme2a9KO6rdUlMp9/AfwP97sO1Hec/hNl7B0KGbK9xCdLwX8FN+5rCDaNMcvkNcT8vmqb7cW0++jWsPvVNWChxqcrt4lriGj5Nuc87TXDiGj0b3KZ8ux7WE9fH413HauKKr7od3MbqOa55G5rBvI3uMu6tBspl28FW4nr5JTgwZwYcGNzXVewmLoJ+MK7fZ4umf8KywPtw6ffbovtwmX9obr4PV9nDJ8SPrLV7e+3A8r6inP5V3Hz0FCSc+jYslLhU5XZx6xzXEyOmK/d5pwlOXGPeALexnLjaYeL6ZILrWE1c06vtALexmrje3Ngc3tzkLuPfbih+YJwfbCeuuTPhwJA4V7GbuJo1a+Y6NWvWhC2YuNac/jYslLhU5XZxLXHRv3KKfd5pgvbZJ8bOAbep0L6nxcTVEHL+9arrWE1cM6rvBLex+q/iW5i43sLk4iaUuGgnv3z5csTYuWc9Ja6Dc2fBwaH9XMVu4gp3P65TJwfBLUW5Xeh+XJS41mJSCQclLlW5Xdz6V/Gf+G+cap93muDENW4uuI29xPWa61hPXLswubiL5cS1qQW89bG7jJ/fqEAfliES1zxMXMP6u4rdxEXn6rKysgT02LEXNjQS077EqXDs+EDIzDoHB48NENO347+Boi5pq2zTAFKxP/17SPPtz2n37sq6OAsycJ7KCLocwhOJa/Qs5T7vNMGJazxWuEyFDjYS16evuY7VxDUTE4vbWE1cb2NiefsTd5nAiUtA//LqP01yCzrHtRUT17rT34WFEpeq3C6uJa4xmLgU+7zTKBLXPKxwlwodetlIXK+7juXEVWM3uI3Vc1xvf9wSk4u7TJjfuOAT15uzIWX4AFexm7gK6sr57YePw7ozmFjCIBKXotwu1V9y5xzXP8fMVu7zThO0z/4TC93GVuL6DJOLy1hNXLMwsbiN1cQ1HxPXfEwubvJqYSWuEZhgXMRu4tKvnA/EeIo1XU3/Y4aYp3K6Wp6m6Qr6jSfwX0ksu03Wraar52V/M/Sv4tZjpyARk0o4KHGpyu1iTlz7j5x1LHE9iYlLtc87TXDimvAmuI29xDXRdawnriRMLu5i9V9FkVz+5S6vvlMYiesNTC4DXcVu4qJ/5VTlRPyWJspyu4h/FQspcTn5r+KTY99Q7vNOE7TP7t69+7+o0G2sJC7SwYMHh6v6O41cXFhhuxcC+7mBlcRFUFIpCFTLtoqdxEXQbxtV6+A0qmWH4ocffoATJ04UCKp1DeTkyZNw+vRpZZ0d3EhcJNxnx6ri2mnk4ljRprwSF8M4gdOJi8UKeY6L0fD5ykHaoWm04wnS0tZCuYl7ZR3Np8FtJYtDqqkPEwzFGovlmFRBxuSiJ672K3L/JS1RzAelShTD6UNY/hP42q8w6phgXu4xlxMXyznxv4pMQcD/KrIcFSWuqe9/CkRgsOnlgZjbvL9mu7INYW6nqidOnv3GUjtzmx9/uqpsQ5jbvb3iK2WbWYu/8GunakNc+e4/ltqZ25y//G9lG8LcLn7hZ8o2CxK2+7VTtSGuX/f/FlLVhjC32X3wlLINYW4Xat3WfbHfr52qDaFatyebTuLExWKxWCwWi8VisVgsFovFYkWb6ibsKl07YfeXkSKHcUyqZVhnZwc5jCOqsyZpq3o51pDDRK3qrN7t6ffntiot/PIO1XYpGHZa+mWKE8pvnOQHuQrBqrN613h5P/+IJIdxTHLYiBT2jUagOgm75cj29cXFH6L+m5xh247LtbWvNw6cK/LfVNVO2PWi3BwFrgZrk76Rq+G6LqZmyaUWvOQqBCuvxJXXziuHcUxyWIWyxLqEW5+CTFz6uoR6PkysJy79/cVfUb9DTlx5J666ATFC02s2JxvblqTP9zmeIebh29NwCzvs3ZsM534J/fShaElcDdZo72XbtV/FfKO12vvS3+MNrRgg/arxnkn6tLlMJbkKwQqXuOokpEQ+cISSw4bUqs93w6o0OROggnZcycm7Yfo3ciZAXkhc4cSJK3zimr0uCXfa3MRDCco8Xx+37y/46r8DZ0FdSgSfpYhkF+4ziJbEFbj+dXb/KOZJ+/btgSmX6F0CnL3+m9F29uZDYnrasZ9Em9O39OwWLLkKwYodx4VK+zns+hRk4go8mgbKK46r7/FMWeIvTlzhE9crmIA+upwpXs9jwqJEpcfK7M1JuG1TxLQeR3os9T+RCbNO/CTq6mPfUPEVLYmL1pHWffnVX2Dd1j1wRiYhcl5Unm1yjTSvKVv81VpmY6K+JKZUkqsQrNhJXOGTFqnAz3GlXcF1OiVn/OWNc1y0zdXvjxNX+MQ1cK3muMh57cSdlxIY7cI0P+2y/LfQJFWsUVIIpehIXPTv39diitaf3JOeuITSvzXqSer9CROXyaUFSq5CsGIlcU3H9aB1IaLhX0Wq6/u5eqcmecFxhXt/nLjyPsfVDxPPtOOae/rm5GGRwOrJGCbon6iZX9DpGM19BSpc/EWL49r39Rmxnrqv0hNVPXzvvT/LTVok1fuZuz4Zskz/QgdKrkKw8kpceUkO45jksBGpwB1XGHnDcYUWJ668E1egKGlZVSN0bKHP/ERP4grUnK3JkB1uxQNkdmQqyVUI1svrku6n5BUpchjHpFqGdZIqy2EckXoZ1pHDRK3qJuwep1pvq8hhirRU26UgqL16RyO5Cq5LtfyCQq4Ci8VisVgsFovFYrFYLBaLxWKxrIqeEF0UtWjRor/ITcBisWJNRTVx7dy58zV8KS43A4vFiiX98ssv8NtvvxU5OHGxWDGsW7duAbmuogYnLhYrhnXz5k0g11XU4MTFYsWwbty4AeS6ihqcuFis2BH9rszvt2XZ2dlAycttcFH4ejLgVSvPxtdipnlzP7fgxMWKdomdgVGTlZUFOTk5rqMvr8LUQ9D9tpKQnpktyjd2vw3WpGWIxCXaVOgQ1NcN9PVhDFhRJtwnWFJ6kD4t5lAZGRkiebkNLgqyjs2ACpMPwrEZL0CHhOuivFSJYpCWkSUSl5gvWQwyTP3cgh2XnzLkKyuKxIkrjNLT0yEzM9N1fL4K4pUSFL2un95VJLO09AwxX7yYllRTDhXM+nDi8hMnrigUJ64wSk1NBUpeRQ1OXH7ixBWF4sQVRtevX4e0tLQiBycuP3HiikJx4gqja9euAbmuogYnLj9x4opCceIKI05cLBQnrigUJ64wunr1KtC/i0UNTlx+4sQVheLElYf2798/rijCicsQJ64oFCeuPLRv3757iiLy7bM4cUWlOHGxWOHFiSsKxYmLxQovTlxRKE5cLFZ4ceKKQuUrcZ08e0V5ASPDOMl9lcbdIUOuMMSJKwrFiYuJejhxsQLFiYuJejhxsQLFiYuJejhxsQLFiYuJegoxcYnbCUlYUSROXEzUU4iJ6zLCiSsKla/ERT/IVQUawziJDLfCEi3//2qTrGhRvhKXKsgYxmlkuBWW2G1FoThxMVGPDLfCEv27mD9VrlwZ7m/R3XUqVap0v1xkWGW+3wzcht6zXFxY9Xp6HvR/cpHryMUJqYKMqFKlCgyfV9l11q5dq1y+VZo1a6YsV3H27Fn4qsFLrlMVP2/V8kNRtWpVmHPgbNTwxr7TynK70C2F9Pfo1Dku3JfeVu3vTlOpcuVLcpGaCipxJSQkzNq7d+/DcrEhlfl+c0wu7kLved++fcPkIkOqoBIXrssYuciQJ+cLKnEtWbIEvv/+e+U6WIES1w8//KCsC4QS17Z2TeCrhphgXIQS18WLF5XroMKriYu2N90bjN5jrCWumrVqXcf9pI5crExcLXu4TrQlrv379w+RiwypXk+/iYllsesU7cTVFJPLy67CiUvDtcSl2N+dhhMXEquJa8Sb7sOJS9vWCxcudJ3ZySdhLiaUvJiDiUtVbhdOXBFgOXF9gMnFZawmrt5l3oQBTy12HU5c6oTjFJEkrt9++811Vu85DO8ePKNMMmY4cYVMXD1dx3riaoHJxV04cYWm4BNXM0wuNV0lksR169atkGTcvOE3v/ZGjngtntgAbuLrbesb+NWHIiE5Bd494IXEpd7nnUSduFphpcvEZuJ6CxPLEtcpyolre/tmsK1RTVeJJHHl5OSEJDU7C3yJcVAKExTNJ2Rlite07GyY8mOGSFw9NjQRZQdlnYrCTFyPNh13mwy5fEkkLsX+7jQhElcv17GeuFpicnEXq4mrDyaugZhY3MacuAJ3Ih3amUa+5T4Fn7iaY3Kp5SqRJK6MjIyQ/JyeDmWPnITb1zcS8xP/fR26bWgspkug66KENn1LE0j/YSXsw/HMfc0kJB+CBfiv4ryD58Iyd3/ebaxgTlwy3PItLXGp93knUSeu1ljpMpYT10JMLi5jOXGVxcT1NCYXl7GeuKq6ToEnrg6YuBpjgnGRSBKXqtxpPJO4FPu70ygT1wOte7uO9cTVCpOLu1hPXG9jYlnqOpYT19uYXFymwBNXxxawrUltV4kkcdEO7jZeSVyq/d1p1ImrDVa6jPXE1RqTi7tYTVx9MXENwsTiNubEFepH1rQzjcLE4jacuLRtXRBKTE6B9wopcTl5cl61vztNiMTVx3UsJ65FmFxcxl7iWuY65sQV7uS8KtE4Tf/+/WHevHnwzjvvRET9+vVtJq6WmFzquEokievXX391nTXouChxvYlJJRzzMHGpyu3iWuJqi/u4y6gTV9u+rmM9cbXB5OIusZq4Rs+v5jr9+vWTfiAy0bb99ttvle8hENqRdnRqBdub1nWVSBLXzZs3Bb7k7ca0mE+Mh017m0LxxDgxX2FzQ7/6TfuaiteEnGzx7eLNq5egwrEzfm10vJO41Pu8k6gTVzusdBnriastJhd3sZy4ys2HwWWWu471xFXddShxqS6WtApt2wsXLijfQyAicXXGxNUME4yLRJK4srKyBL6kL6FkYgPIujgTMmg+cSps2NNUsF6+ZmXthLRMrNu8XM5nweqMdJG4aJqu76LpmVubwrHjAyFTjr1mzyF4P+UMvJVyLixvHsi7jRVcS1yK/d1pQiSuONexnLgWtwO3sZq44sq9A0PKfOg6VhPXmHequw4lLtW/NVaxn7haw/bm9VwlksSVnp4u8O3eKhJX+vkZkIrzdLnDmuSmWl1iX0g0phuA74ulfvOUrOh1f1qqmNbL6ZXwTuJS7/NOokxcf2vfz3ViNnGVxeTiMpYT17uYXFyGEtcvv/wSMZElrvquEknioi9J3GYtJq4PMHG9jUklHG9h4lKV28WtxKXa351Gnbg69Hcdy4lrSQdwG6uJq1+5d2Fo2Y9cx2riGvtuDdehxKX6eUoxn097LabfL7xiUBvCbuLa2aUN7GjxiqtEkrjofbiNlrjOYlI5H5a3DuTdxgrmxKVFW/6F7+Nt1f7uNOrE1XGA68Rk4iq/AIaWW+E65sQVuBPp0M40bkEN14mLi4MbN24EQYlrQ7cScDQrR8w/V6I4ZGUHt6NtaytxdW0LO1o2cJVIEpfq/J3TfL7nACw5dBbmHzoflrcP5t3GCq4lLsX+7jTqxNVpoOtYTVxZSzuC21hNXP3LvwfDyq10HcuJ672XXIcSV3Z2dhCUuKY/VwIyMrPEfFdMXBmZwe1sJ65u7WBHq4auEkni0v/1dRNyXAu9kLgU+7vT1KxVOzhxPdhpkOtYTlzLOoHbWE5cFTBxlcfk4jJWE9d4TCxu07dvX8jMzAyCEhe94ioaBLYhbCeu7u1hR+tGrhJJ4tIdZMeLGeKVfn+4cU9T8UrzCcmNxXyOrNPbE3Qyn159mz+EWVupT0PRzpf0lTg5nynbrZOJ6x1MKuGYj4lLVW4XtxLXg51xH3cZdeLqMth1rCeuLphc3MVq4hpQ4X0YXn6V65gTV7hzXBPef9l1KHHp33qF5zAGf7mgctuJq0cH2NmmsatUrWI/cZmTMSUbSk7rMVFlXpgJnTc0FtNEBtbTj63N7SlxiX5fLIMZW5qI6ZXpmCyStuBYU4126/YegkWHz8K7h8+H5Z2UvNtYwZy4nDw5r9rfnUaduLoOcR3LiWt5V3Abq4lrYIUPYET51a5jOXF9gMnFZShxqZZvFduJq2dH2Nm2iatEkrj0aboGa39qqkhca5OaijLfrs1imqCkdg3r9fYap0V5Kk7HY+Kisg+vX8N+X8BzmOSuy3aJew/D4sPnYMHhC2F5NyXvNlZwLXEp9nenUSauv3cb6jrWE1c3TC7uYjVxDar4AYyskOA6VhPXqwtruk6fPn2UX91bxXbi6tUJdrZr6iqRJC7Ve3MaryQu1f7uNOrE1X2Y61hOXB92B7exmrgGP7MQRlVc4zpWE9dri2q5DiUuCu5IsZu4dvXuDLvaN3cVu4mLHpYxd/V6eHt1oqtsPHgclmDieg+TSjgWYOJSldvFtcSl2N+dRp24eoxwHcuJ66Me4DbWE9ciTCxrXcdq4np9cS3XoW2TX+wlri6wq0MLV4kkcb1/5ELU8N6hc8pyu7iWuBT7u9MoE9fDPUe6juXEtaIXuA29Z2uJazGMrrjOdawmrolLarsOXYCaH9G2PX/+vPI9BCISV5+usKtjS1eJJHF9cORi1PD+ofPiFcPDeH1P1C2GZmtOGe1y6580ysy4lbhU+7vTqBNXr1GuYz1x9cbk4i5WE9eQZ5fAmGcSXcecuM5d+i5oRyJE4lpax3UocakulrQKbVs7jmt3326wu1MrV4kocR3FnT1KeP8wJi58pUtS6PVvjZpD331noNodt8F7OI9hYzCo1e/E6wuzT0KpUsXF9PyD50Q/c+LCckckEpdif3cadeLqPdp1LCeulX3AbawmrqHPLYWxz653HXPiCtyJdChxTcLE4jaUuFQ/nraK7cQV1x12d27tKpEkroW4o0cLH2DiotdHbi8F773dHt49dAETz5MikVE5hk3IV41mYt61xKXY351GmbhK9xnjOpYT16q+4DZWE9ew55bBuGc3uI7VxDV5WV3XocSlX9kdCXYTV1K/HpDUpY2rVMVtZzdxLcIdPVpYiIlLm14sEhFNF6eE9MQIMa2XmV9fRMdFr8TfBn4myt1KXKr93WnUiavvuGDavWy88cA6n+9/FGXB7cwoEldl5E5tMldZq/uBDs4amMutMO2h0H1CJK4U+Wpo2PPLYdxzG2Fcma7Geoh5hwlMXMWKFYNNmzb57UyUuKYsr2f6kbPPmKdXK9R7qBhMDigL7E+JK/CGd/S7xBumeX358Uez/doRfonr0DSj7fVUfF9y+qP//CjqReIa0BOSurUNpkU5iGuGiUdVZ5NwiYu29aVLl/zKKHEtPnYpLPr7ev/wRWV9OEoU9ynLQ7HoyAVluV3MiSvCc1zpSBdtUpNIXKb9XI/PP7cc6bf/2+F3zzTF1zj4c80RRpkycT0SNz6I0u1qwl3tcuexqeDex7XXO+vnlpnrfY+3MfqYCZG4cvvJJJa1uj8mFw0qN6YfqgRHO9yjta3RwKj3+e6BrJH/kNNae/N0YB8iROIy+iHZVDAcE9f45zbBeExcZR7diNPjxWvc/z6itbt7HIx/tCbcK/tRW1GOjMNpfUc1oPamNmJsxJy46OQ87Uw4aUBJjBLX1A+1REOvhO/vjxvzetupQ++D+2TwmMspKenTQ9v9l3itO7OuEWgEtaffKgY+/+9ZTFzZcro4ttfL6f3p0zqBiavFe2fg559XiVdqT3U///yzuI5JJK6BvSCpe7tgWpaHuOZtjXWjMjH9SFUoieuwG+dpXaic5qluOyUqvb+JvBKXvgyCdmyrictv+p12MCnlvDEOlZcsqZ1jWngU2zwxCsu2Q6U5p/3amKdDEWWJy1hnpA0lLn0f/+s/b8eENcrY5/X4f7jXWChesoT//vBocyjdoAL8vkQJMa/HIfXzPdIMipeQfftoY6kTV78JQZRuX8tYCGYUY5rqcl/vNdoH1gViIXHNQnzZCQNAh8pzp3OTE9HZr06brmgqj39YezX30dtbSFxvU8GI5z+ECc9/DBPKdDPqaF6fFvOP1YQ4LGtzdzFR1+aBmqL83gcWiA9Kb6+/lvXl7ihibCRc4vrjH/8oAo0S17SP6muJCl9p2ue7X8xr0z64r2pFmDbsfhj6Idbja92Z9aBTu/u1urbVoP7DxURfWi/qo49nfqXEpd/9U4cSl37XTkoWejmNo0/rBCYu/X1cvnzZCNx///AfI3ElD+oNyT06BNOyAvRr3k70efyR6qKM+q7s3l4kqiScp3XRyzX+7j+GxGriuvfee0UZJa4luKOHg9rr09NHVpTzS4yx+h84h69P5bbHxLVEJi5yXFRW/fZSRvtFsp2KxZi4VOV2cSFxFReJqz/u48jd994G9/ceK6ZL928Hf249WkzTdqDERdP0eWpl+B9ao4qi/Z9wO5TGHEHJStQ92gz794c/1hkh5gl14ur/ahClO9SCuzrI6QZljZWleXq9s4H2ai4zvwYSInGJZGVW9pqBoIOzBkHzo/VEJh1VULmijxw3ROJKkq+GRj7/Ebz6/CfwKiauso99LF7vfeA9YwckXn2sFvTDNm0xcVFbvVxvp5cZr4/VNtqIsZHAxHXnnXf67VyESFwrXhEJBpsJpn6kzVO5XjZtuJaoRL2p/L52WuKiaX2MurM1B6ePS6+qH1lT4hLjVJgCR+KfNcb0+ToGtQ1MXOS0rqdMhafHbBXbg+ooaVG9lrj6QHLPjsG0wsTVor2xrOSeL8np/4Yni+cmG2qrTz/+bCP/MSThEtdf//rXoDJKXEuPXw6LvsyFR7Qk9shtJY1pczmx+Fhu+8pzz4jERdNL381Nuqpl6Cw5etGYvu22ErDEVBcKX6MFQWUOJa7i2qQmLXHl7udYJPhz6zF+01rielUmLq2dlrjGycT1qkxcWEdurL9mOh6O08ZVJq5HB7zmOlZPzmevGYTJxV1CJK4gjXphBbz2wr9cJzBxBe5IBCWu+JUN8mYEOq4VinKLWP+RdTqs61wRJh+87lfml7gQ/fzRlStXxE5jPp9EO9KewX1hT69OrlItTOJSQYlrGe7o0cJSTFz6NCUuSkLmehWUuALLHEhcQaLE9ejA18FtatZWJS5FQ6exnLjWDgG3sZy4XlwFr7/4metYTVzTVzVwnYL+kfWeIXGwp3dnV4kkcS3HHT1aWIaJS5+mxIVhIqB5fbpl4hn/ckxc+rSOa4lr0ERwG3XiGjTJdSwnrnWYXFzGeuJajYnlc9exmrhmrG7oOgX9I+s9Q/vBnj5dXMVu4qJtvXDhQteh3ykuP4FJJQ+WHcPEJacpcS2Tr0vxVT9t8eDgUdBy/Rmjna/xKPD9c5QxT7iXuNT7vJMoE9djQya7juXElTgM3MZq4hqNiWsiJha3MSeu1NTQO9PMhIau07FjR9i5c2fE2E1ce4f1h719u7pKJIlL9asAp9m0/yisOnEJPsSkEo7lmLj0aUpYerKieXolHhz8hTEtyhsvgNtvKwlLjuWOY05c2M4RUeJS7e9OEyJxTXEd64lrOCYXd7GauMZUSoBJlb5wHXPiSgvYiXRE4lrTyHWc+K0i7SCq9xCIlrgGYHLp5iqRJC794R++5B1+DwOhB8J+vLcp+LZ8JOcb+NV/vK+peF1zI8d4PNkhOW1uR3yCiWv18Uvw0YkrYfnwWN5trOBe4lLv806iTlxDp7qO5cS1fgS4jb3Etdl1rCauWZhY3MaJ3yraSlzDB8LeuO6uEkni0q9L8yVtE3c03binibiWzZc4TdyyufuGxpDz8ypxF9ScnN2Qno11m5drt3PGdquzMkWyomn9gbAvij6rIUOO/cmBo5CAjmvFySth+QiTm6rcLq4lLsX+7jTKxPX4sGmuYzlxbRgJbmM1cY2tvAYmV97iOlYT1+y1jV2noH+ruG/kINjXv4erRJK4MjIyBPoDYTMuzIQ0mpcPgRV1WK5Nn4X9dGvmL5YZdRP/fV0kq4wfzkLZIye1aWxXPLGhqCcKM3E5eY5Ltb87jTpxDY93HeuJaxQmF3exmrjGVVkLU6psdR1z4gp3cv6NdU1cp6B/q6glrp6uEkniUpU7zb8wca05eRlWfv1NWFacyLuNFVxLXIr93WnUiWvEdNexnLg2jga3sZq4xldZB1OrfOk6lhNXIiYXl6HEFXguhsBVgxM3temTm2bK+ZtB7ewmrv2jBsP+Ab1cJZLERTu421DiWouJaxUmlXCsxMSlKreLa4lLsb87jTJx/WPEDNeJzcSViInlK9exmrjmYGJxG9UDYemnNcb8hm5QYdpRMV0Cy7P1con9xDUE9g/s7Sp2Exddx1UQ+gwT1zoPJK5/jMR93GXUiWvkTNexnLg2jQG3sZq4JlRNhGlVv3Idy4lrfVPXCfVAWFw1qDD1sPYg2CytbIbpAbE6XklcqvN3TvOpTFyrMamEYxUmLlW5XdxLXOp93knUiWsUVrqM1cSVs2ksuI31xLUeE8s217GauOZiYnEb1W8VK3Zcg69HMHlVgMwj8dorluPq+rUjbCeu0UNh/6A+rhJJ4tJv01Ph2Fl4fs8O8XiyTXubQvHEOK18c0MxT7f7oZP0enuCTubTKz0Q1lwuyhLjjelPD2Li+hqT0ilMLGFYRclNUW4X1xKXYn93GnXiGj3LdSwnro/HgdtYTVyvYuKKx8TiNlYT17wNzVzHzm8VOz9DP74u51dmO3GNGQoHBvdxlUgSl+4gZ+7pLxIQJa4Ne5oK1stXIgvb0GUOZtdJiYte6fKImVubiOlVmRngS9oqLqfQ2+mJKwGTSjhWY+JSldvFnLh8lcaVlCGXL4nEpdjfnSZE4prtOtYT13hMLu5iPXFtwMSy3XXMiStwJ9IRiWsjJheXKejfKu4fMwyTS19XiSRx6YmY3BRdEkGJiy510Mq0SyIIqi+L9Xp7YvqWJqJ8b2qqmKayFanXcZwtUALLr8l2nx48honrCiaVb8Oy+mTebazgl7gckpa41Pu8k6gT1xisdBnLiesTTC4uYzlxVdsI06vtcB3riau56xT0bxX3jx0OB4bEuUokiUv13sLRBV2XSHKIql7FZ5i4EjFxrcGkEo4ETFyqcru4lrgU+7vThEhcb7iO9cQ1AZOLu8Rq4npzU3PXKegHwkZj4qJt3axZM9cRiesUJqXTmFjCkEDJTVFuF/cSl3qfdxJ14hqLlS4Ts4mr+k7XMSeu//z4c9CORBRU4qJtk1/sJK4D40bAwaH9XCWSxKX6OZPTfHngMKz/+rIyyZhxI3E5enJesb87jTJxPTF2jutYTlz/ehXcht6zlcT1GiauGZhY3MacuMKdnH8LE4vbLFmyBM6dOydutRwJTZo0CXr4RCiiOXGpfhWgQz+wVpXbhRzXenRcazGphIMSl6rcLm4lLtX+7jTqxDUOK12GE1doLCeujzG5uAwlru+//165Dlagf4F++OEHZV0gInGNHwkHh/V3lUgSl/mi2kPZ2eLkPE2L81ibPxQ/vr5tfUNRR/P042r6NlG0+zkB0nNyoMeWxtDx2DbYuLcplJLnvzJN43omcSn2d6cJkbjmuo71xPUaJhd3sZ64NmFi2eU61hNXC9fhxKVta/MDQA7QD6qTvoSsizMhA+fpMgdKUlRGUL24NALrKHH5NvcV06sy0qH7hiZGnS9xqjEm4Z3Epd7nnST6E9enmFxcxmrieh0T10xMLG5jNXG9jYnFbThxadvafHnDvtRUeG5DIzFNrqn4F0shMbkJ/IxtyXWlYbl+qQQlLr3fc+sbQbuzJ406mk+VdQQnLuuoE9d4rHQZTlyhsZy4PsHk4jKcuLRtrbp8wWk+x8S14dQ3sO70d2FZ83XebazgWuJS7O9OEyJxzXMd64nrdUwu7mI5cVX/GGbW2O06RTpxTRgFB4cPcJVIEldKSorrfJ6Cies0JqUzmFjCsIaSm6LcLubEJcMt39ISl3qfdxJOXEg0J67AnUhHS1wtXaegE9dBTFwpmFzcJJLEpbp8wWm+PHAINp26rEwyZjhxxULi+gyTi8tw4goNJy5tWwfeZ0wn4+aNoDK6zzyd+zp0I7jujg2Ngsp02HFZR5m4/okVbhOLiWti9Y9hFiYWt7GauOZjYnGbAk9cr2LiGoEJxkUiSVz6PecDSaXLHxLjxEl4mu9w8bS8z/wFmPLjNjiYTd8exml1F06JxGXub4YS10ZMXImYVMKxFhOXqtwufolr3Di/J1JHKkpcqv3dadSJa8KbrmM9cU3E5OIu1hPXJ5hYklzHnLjCneOa/y9MLi5TOIlroKtEkrj0+8IH8nO69iNrSlzafJr41lDU/7ASxL3nE6eK+Z9w+o71jYy+gRRm4nLy5Lxqf3caTlwIJ67QcOLStrWqXKfsoePKcrtw4rIOJy6EE1doOHFp25p2cLfhxGWdoMRFwp24AzLObawkrsOHD/+Pqq8L5Jm4SIp+jmMlcRFXrlwRP2B2m/wkLsJq4iJoWap1cBo7iYs4deoUnDhxwnXod6Gq9Q2E2qrK7eJ04iJh/L6iimunCUpcrOhRuMTFME7hZOJisThxMQUCJy6Wowp1Py6GcRIZbiyWM1IFGZPLsyVLwPXUNCjm89HOB+Um7oXi+Ep1pUoUg/YrfhLTvnIT/fox/mjRxmI5JFWQMbkEJq6r11Nh2rOlxCvNE2lru8Deq9pJaEYNxRqL5ZhUQcbkYk5cueWH0Gn9LNwWPV37tpLFTXWMCj7HxXJUfHI+PKp/Famcpq9dTxPui6YD+zH+cOJiOSpOXExBwImL5ag4cTEFASculqMa+UYiTH3/U4E50PSyQPYcPmOpnbnNjz9dVbYhzO3eXvGVsg1hbqeqJ85d+s5SO3Obb//9o7INYW73xpLNyjZvffSlXztVG+KH//hfdqJqQ5jbHPn6krINYW4Xv/AzZZsl63f7tVO1Ia5dT7XUztzms51HlG0Ic7v4D7R148TFYrFYLBaLxWKxWCwWi8VisVgsFovFYrFYLBaLxWKxWKyCUZ3Vu8Z/n5kDhaE6Cbuj+ufstH6FpdoJu7+UqxGVKqxt88XFH3DbJFeRq8GKUMO2HZdbtGD1xoFzUOnLL0vK1WAVUdVO2PXip+e/l1FRdNRgbdI3chN4RnVW7xx5MTVLvsOiozprkpbLTWBdbLhCiw1XaLHhim2x4WIVpthweUdsuGwoUsNFB1wzkYj6ydWISkX2vn6GOp+fgitiOsvYPsli3rq8aLhWJevbBSBObpfp38gCi2LD5YwiMVxXTh4Sn9mvv8mCCMSGi0WK3HBdhXoyd1z4TQvEvSd/htyQ1Or7HM8Qc7PXJcFHVzJF/d69WvzWSfgafqXKb0/7zaMZEvM7f9FGa7Q5BS6m/ozjfQ3JJ09D/GXRCxquNY1hU2y4cjUkMVls7+VXfwFIvwr1xWexG27ID3OOrM+WG3rdvjNwUdYNXqfVTbmEfaWa4mdNZTqZ8nMkNdt8CM5f/xleoc/y6zMwTfZrIvp8DbmjWFehnOHS31wkon5yNaJSkb4vsyLdPl49w1VXbg+ib7Juv6yLDZczisRw7dnjn9BWXrGfZNlwsUiRGq4Gayj2UqCeeJV8ftkwXHq96gC6d692kK6T9JOYX7NZm58mjdQ3Jw/7j5emmbcdydpB2TBYad+IPNbnmGbq7IgNl0kmk1VHfp7brmlb+duvj4h5YcZMaiTMrkbv3ZeUplc3XmbDRct6hcZPps8cDZZelf6t+Ix7H02XBdbFhsthRfq+rpxIMbaLfUuhyfNfKaZd0bbR5/a2EBsuZ5T/rxR/luY5xXR2IW+x4WKRIjVcr8gD8y0ZdLpp+ug6HXqztAO4NFS6NBNGuSbXmOn6RpqqOp+nwC3dSMmzY+EkxvwseLy8xIYrVw2lOdY/S/2M1xksWLd1j5j2M01mSaNU57Ng06U0XGHUmEycYpy8xIbLYUXyvlZ9rm2PQFalyQYW5UXDZT67pbPS5nZhw+WMIjFc/fQDl/nzS7V3yGHDxSJF/JWi8TWgmdyzTw3l14LaQVwasCD0M2C5X08aBJg1peQ66GfG7IgNV650gxWI+Erx2zNi2vyVoTBGAW0Dz4CRbBmu74KXY1V80bzDovUrLPFF82qx4XJGfNE8qzDl5kXz2hmtyK6xylvyGrEIvk4kseGyLv1rxW233Pkk6bOkrxkj+TqRxIbLYbHhCi02XLEtNlyswpSbhiuaxYbLO4rIcLFYLBaLxWKxWCwWi8VisVgsFovFYrFYLBaLxWKxWCwWi8VisVhWVLVq1ROVK1cGpuhQs2bN2+XHz2KxWCwWqyBUrVq1C7/+6tZPxVnRpiFDhsCuXbu67d+/v9m4ceOKyzBgsVgsFovlpshw/fLLL/Dbb78xRQAyXDt37nztwIEDA9B/seFisVgsFqsgxIaraMGGi8VisVisQhAZrlu3bgF9rch4n8GDB7PhYrFYLBaroEWG68aNG0Cmi/E+bLhYLBaLxXJWvyAdtcnQIsOVk5MDN2/e9AQvlipBjzjzo9PazNw2J2dD8WL+9T5fRcjKvmHUF/Or0+qzb+QuI5YZNGgQGy4Wi8VisRwUGa4A42BgGDEyXNnZ2UBnubzAC9JwZaKBovket5U05jf2uE1Mr0nP9Osz64VSojw9E7fDyVnCcE05lKHVPa/VZWTl+PWJVQYOHMiGi8VisSLUbwgeI1gsP4UzXBeRpxFhuDIzM4FMlxd4PugMVwU0S1rdTGmsUtFwmfts6K4ZsZS0DMg+PlMYrskpaaLu+Ibu2hmvDqv9+sQqbLhYYZSBlNImWSyWSmy4WCqR4TKMVSiR4UpPTwcyXV5AN1xkqmheP+N1Hc0UzZcqUUzMBzLpwHVtjKMzFF8p+qD9qmvGMmKZAQMGsOFihRIbLhYrD7HhYkUsMlxpaWmQkZHBFAHYcLHCiA0Xi5WH2HCxIhYZrtTUVKCzXIz3YcPFCiM2XCxWHmLDxYpYZLiuX78OdJaL8T5suFhhxIaLxcpDbLhYEYsM17Vr14DOcjHep3///my4WKHEhovFykNsuFgRiwzX1atXgc5yMd6HDRcrjNhwsVh5iA0XK2KR4erduzf06dOHKQLUrVuXDRcrlNhwsVh5iA0XK9/at2/fS/v37x/HFA327t3bnw0XK0BsuFisPMSGi8VisVj5FRsuFisPseFisVgsVn7FhovFykNsuFgsFouVX7HhYrHyUKEarvtqjHxyyvufwtQw/OfHq8p7AhGq9uF466MvleMQ67ccUPYJR2qqeixC1T4cSzfsVo5DRLZuqcqxCFX7cKz74oByHGLZxiRln3A4uW6bdx9VjkPMX/mVsk84Qq3bjz9dVbYPx/b9J5VjEW8s3azsE45Q6/btv39Utg9Hcspp5VjE9IWfK/uEI9S+cOr8N8r24Th+5rJyLCKSdVONQ+w/clbZPhyXvvlBORbxdPMpcF+lcXfI9FbUxIaLxcpDhWq47q85dtzJs1eUyYthGCaWqNJpFhsuFosVUmy4GIZhHIANFxsuFiuc2HAxDMM4ABsuNlwsVjix4WIYhnGAImi4LiMQAr5PG4sVIDZcDMMwDlBEz3DdRALN1v9FWCxWgNhwMQzDOIRMbUVJ1RGz2ZqMsFgshQrVcJFUSYthGCYWkWmtqMn81SJ/lchihRAbLoZhGIeQaa0oir5aLPyvEitVqpRTuXJl8Ar4fu6Uby3fUo0fy8i3lW/hNh6vGt9p7rzzTmW5G8i3FiRV0gpHlSpVlOPHKmvXrlW+z4LCa9vTTa5fv67chk5QrVo15TKZ6OTqVfUNmWVaixrhur4duO4xziX51tSiRve36O4JnqzbGFasWDH64MGD7Q4cOPD/5FuMWH2bvwSZ7zfzBPQ579+/v9e+ffvaybcXschw9Xp6HvR/cpEnkNtmHMZMTfkWhe5/aeywc5e+UyauUJBBGD6vsifoNa4yLFmyBC5cuAD/+c9/lO/XbZo1ayYOHpcvX3aU48ePQ4uGDWD3lNdg5+C+8FWDl2KaqhjD58+fh0uXLim3Y36pWrUqzDlwBjnLBFC1enV4Y99pZV1hUK3GS3D27FkR5+a7/0fjRfOYe99+oHlX5fE8FqlZq9Z1OpYkJye/JN+iv4ThatnDEzxZtwkkJCTMwgPnqL179z4s32LE0gxXc0+gmwpkiHx7EcuLhguN6BjcSerItygUyUXzXjVc33//vfL9ug0Zrp9//hl++CH0I0sigQ5IDapWgW3tmsLOUYPhq4YvxzS64bp48aLy/eYXNlyhiVbDdeXKFb+znlFruFp0Ux7PYxHdcOHxxO9YYogNV2ix4VJLM1xvollZ7AmcNlwj3vQGvcdXYcMVIxSE4Rqz6mPP4KR5ZMMVudhwxTCOG64WaLg+QMPiAZw2XL3LvAkDnlrsCdhwqWHDFTu4bbgorn/99Vf47bffYp7p06fDe8nH4IMDp+Ctg2dhLpqU/ECGaw4aLlVdYcCGq/CwaLh6egI2XKFhwxUaNlxq2HDFDgVhuH755RdhugqD29Y3gMxbt5R1domPj4eE5BRIPHAM3j1wRmla7MCGK3Jphqu78ngei1gzXK2wsQd4sp4bhquFJ2DDFRo2XGqKhOFq3wwN1xD4qlHNmKYgDNeNGzfg5s2btimFZin9Rg7M3toEpv50DkqubwgVkj+EG1i3aW9T8CU2EEz9KUu077lBtsOyDLlMMlxpOTmiruOFTFF2O46TkpNtLMcq06ZNY8MVJRKGqyUaLsXxPBZhw5UPaYarpSdw3nC9hWZliScIabgi/JWiyrzEIkXBcG1Hw7ULDdc2NC2xTEEYrszMTMjKyrINGa5rmRkwAw1X+aNfi7Lb1zeC1RnpQdNZF2caBkyweTlkYjkZrqs4Rnc0XO3Pp8p+DWF/RobWzwZTp07NNVwH0XDR14r5QBiu/Wi4FHWFQSjDRcjUFjUqmoardS9P8GS9pmy4QuC04epT9i0Y+PQSTxDKcJHMycoKdGAa+VZVT1AkDFeH5rBrNBquxrVimoIwXPSanp5uGzJcP2Hf6VuaQNnDJ0QZmayVqdfF9JHzM6A4mquV312XbVONvtSu3dmrovxHUX4GzVdDKLt7KTy3oTHsTc1ta5XJkyej4TqEhus4LEDDNe/guXxBhmvu/vyP4xQxZ7ha9VAez2MRNlz5kDBcC9GweADnDdfbaFaWegI2XGrYcMUOBWG46OBN93WKddhwRY80w9UTj9+9PYElw/UANvQCTzluuF5Gs9LKEzhtuPqi4RqEZsULOG24Rr1d1RP0meBxw1UNDVfHFrBrzFDY1qR2TFMQhqt///6eoHHjxkXScMVNWQkP1ux7u0xtUSEyXH9r3RMeaIPHcA9gzXC16eMJnqrfzAXD1doTuGO4lnmCUIYr0ovmVeYlFikahqslGq5haFrqxDQFYbjoF36q2yzEGnRbiE/3HoTP9h+BhWi43kSTkh/IcM1Dw6WqKwxi7aL5v7XupTyexyLWDFdbbOwBXDFci9CweAA2XKFx3HDNr+YJ+rxaFfr16weFKfpsXDVcnaThaorGJYYpCMN169YtcWsInY/pF4bJO/zKQnHq5CBxEXynyzm55dcSxLVbFY6f82tr5uN9tIztQeV0Eb1+YX385fN+5Ydv3vRrGwjdFmJN8iFYf+A4vMeGq1AlDFcbNFyK43ksYtFw9fUE7hiutp7AecM1HwY/vdwTOG24RqNZ8QJ9peFSnSUoKOizOXfunONGQjNcVWFHp1awGw3X9qZ1Y5qCMFzZ2dmQk5NjsHEPmqGkbTh9QdzCwfhloSjLERe6a2VxkCjb0kXwCVmZRp91ovwrnN8NJXA+PTsHTpxAc7Z5OWQby/gKNppuHzHlxwxhrA6KcXBdLs8Sy8jEaSq/nqX9gnF1VoZYTinsk2Zad/qVIhuu6JBmuHorj+exiDXD1S7OEzz1SnPnDddiNCwewHHDVQ4NVxk0LB7AccP1TnVP0Pe1alFjuOhrTdX2jhTDcHVuDbvHDoftzerFNAVhuDIyMsStIXTWCzO0FafPCvN0neov0G0dpkI6tTFN57bdIYwVGaf96elB5akZmXD02EDwfbEMMox+W8Ty7kCztio9TUyTsdqH/Y31kMuh8p8zsPw/q6B4Yl/ovKEJTPw+VbTTmTJlCqzZg4br4HF4P+UMvJVyLl+Q4XrzQP7HcYqYM1x0dkhxPI9FLBmuv7Xv5wmcN1w10ay08wROG664cu/AkDIfegKnDdcYNCteIE4arsA7dRckBWK4xo2A7c3rxzQFYbjoF36quliDfqXIhis6RIbrwbZ9lcfzWMSa4eqAjT3AUw0cNlwt0XAtae8JnDdc78KQsh95AscN17s1PEHca9WF4aJrdwoL1w1Xlzaa4WrxSkxTEIbr2rVr4gAe60yaNAnWouHagIbrg5Sz8HbK+XxBhuutA/kfxyliznC1i8Pjd39PYNFwqTvHGk81aOGC4ergCZw2XP3KLYChZVd4glCGC5PTnampwQefcNCBaeyCGp4g7nXNcKkej6LkxEwo5vNB/FF63MpGMY2bEY4d0x7PMrPbc2LeVzFePNYlqL8Ctw3Xzq5tYff4kbCjZYOYpiAMF33F6wXRrxR1w7UQDdd8NCn5gQzX22i4VHWFQSjDRYjEFkUShqs9Gq6OeAz3ANYMV8cBnsBpwxWHhitraUdP4LTh6l9+AQwrt8IThDJcJHOysgIdmMYteMkT9EPDFRcXZ1xsnCfHZwiTNe1IJnQtUVyYq8xs/zYznishyjOy/C/ADoX7hqsdGq5RaFoaxjQFYbjoF36qr31jDfqVomG4DqFROoRGJR8Iw3Uw/+M4RewZrn7K43ksYslwPdhpoCd4umFLhw1XLTQrnTyB44arwnswrPxKT+C04Rr/3kueoP9EzXCpnken5Gi8MFxTDqXD0XjtbFbHtfIZeZLixeisVwU0XKZ+YXDdcHVHwzUBDVdrNC4xTEEYLjrjaP66V9wWIlH+EjF5hyijXyZm3LyRW7flI7gZ2D55u3/fgHbBXBYX5affuCHmxa0iwrTXbyVx88obOHY83Aiop4dXr0PDtVEarnfQpOQHMlzz0XCp6gqDWDNcf+/QH4/fgzxBzVq1LRiuztjYA7hiuJZ19gROG64BFd6H4eVXeQLHDdf7L3uC/pNqQN++fcWv0yxxZJ0wXJNTUo2yaZ07QzFhstB8TZliTB9KS/fvGwI3DVdDYbg6QNKE0bCzdeOYpiAMFxlgujWEzvFLdDsGzTAdysoUZWS4ruP0BvHrwi+h+4bG0OFCGmT/SL8anCZvD/GlVr95OWTJsV7U28l5f84Lw3VNLsPcd+bWJrh8jNGsc+IXigcyM2ADmbmkrZB9aTbWTYNMv7GyxW0hdMO1CA3Xu2hS8gMZrnfQcKnqCoNYu4br7x3RcCmO57GINcPVZYgneLpRK+cN1/IunsBpwzWwwgcwovxqTxDKcEV60fyED172BAOk4VI9ALigcNVwVa8GO3t0hKRXx8DONk1imqpV3Ddc9HmYzfBzm+MhDV+Pits/oNFKzxCG62dsl5iMpmf3VtGOHjZN9VdN5eL1i2WQjvWJyQOMevP4Zui+WmWPbBHttemTolw8EFtO020jVqSlymVsgQyxXn3F7SrMY9FtIdbtPQwbU07AosPn4N3DF/KFMFwp+R/HKWLOcNE3VIrjeSxizXB1HeoJnm7U2gXD1dUTOG64KqLhqpDgCZw2XK9+UNMTDJj0EvTp0yfo4b8FieuGq2cnSHoNDVfbpjFNQRguOnirPiMn6bKhsTBfZn50eLl0W4hENFyb0HAtRsO1AE1KfiDD9S4aLlVdYRBzhovODimO57GIJcP1927DPMHTjR02XK1qQ9aH3T2B04ZrUMWFMLLCGk/guOFaiIbFAwyY7H3DtatXZ0h+bSzsatcspikIwzV//nxP0LlzZ8NwLUHD9R6alPxAhmsBGi5VXWEQa4broS6DlcfzWMSa4eo+3BM83biNC4arhydw2nANfmYRjKq41hM4bbheW1TLEwyc8rIwXJS0CwvXDVdvNFwTx8GuDs1jGrcNV9WqVWHR4bOwLuWkMCpeYckRNEpH0KjkA2G4DuV/HKeIOcPVdYjyeB6LWDNcPUZ4gqebuGC4PurpCZw3XIthdMV1nsBpw/X64tqeYNDUl8V9uApTuuEiM6Ha3pFiGK4+XTTD1bFFTFMQhut9PJi/f+QiE0A1NFzvHTqvrIuEySOfET8smX/wnLI+L2LNcD3cfSg81HOEJ7BkuB7uOdITlGnS1mHDVQeyVvTyBE4briHPLoExzyR6AqcN18QltT3BYGm4Ap9vWJDohsutM1y7+3aF5EnjYXenljFNQRiuD9BwfYAHdMYfMlzvo+HS5we1vEMzTAe0sjblbxfzxDsp2jacOkKaKtkmHG3Ka+O9e0hdH0gow/Xuqm1Qpky3UjhW1IgMV+kew+HhXqM8gTXDpegYi5Rp6oLhWtnbEzhuuJ5bCmOeXe8JQhkukvmgYwUyXJOW1vEEg6fV9L7hiusOyZMnwG56pmIMUxCGa+HRC8hFJgAyXB8cPu9XVrIEGqxG7+D0dihR3Adx+86YyrT6vw36XExPG6WZL98TI8QZqqly/p2D50R9W2m4FhzWxh7c6ndivm/iWTF+KRoX+36AdVQfynAR2C+qJAxXzxHwcO/RnsCS4SrdZ4wnKNusnbOGqzUarlV9PYHThmvoc8tg7LMbPIHThmvysrqeYEh8LWG4VHfrLihcNVw1qkNSvx6wZ/KrkNSlTUxTFeOODVfhoDJc00ZWFKao+VO34WtzeN9UFteUynINlG643jmojZE7rzZc1e6g/k/Ce2jOaD6QWDNcj/QaqTyexyLWDFffsdFBvadFYD2gqrNA2WbtHTZcddGsxEUV0x7STk2r6sLhtOEa9txyGPfsRk/guOFajobFInQj0PvalFfWFQTiRqR/f0xZN2S6ZrjMd+kuaFw3XP17wp4pr0FS17YxTUEYrkV4MF909BITABmuhYcvBJWXKqk9xiruwNmgsuZrTxtl8fPbi7J3D2pjxI96VswvSDlvtCldqqQc65zW5pOl8Pfi2uOz/tZotPgqUW8bc4ar9yjl8TxaKF6yOPzumabKukCsGa64cdZp97L4kO9qp6gLwV33aCZBVedH/TKi3QOqOguUbW7JcFVGxHIk65A7kSAJw7W6nxKsRu7R5ue2h4pyvGlzg9s6iWG4FHXhsGi4ziPyvQkuILS9/ESGa/jzy2H8c5tyKdNV9Cnz6EYx3+bu0n7z0Uwow3XfS+NK060JKFEVK1bMvF3grrvugk2bNvklM4IM15QP6xlod1b/kzY/qxrcL++0Xmdmbhs3qPeQtr6TFXVmNMP1uLJu6PTa4tE+N27cyJNnxbMTK0BOQHk3+UzFCp3XaWUnNkBxuS2PZmX7tVUR0nAdmibuat9q4QVxYFnStpwYs9Xiy3A9ZaqoG7/rW7h8+bKoJ/7973+LW01Qf8NwDegFe6ai4erWzhotyoux45qh0VHVFxKRGq7AuG7UqBF8//33Qe3IcC1Gw7X42KWIeUSahg+OqOvdQ/tar9Kc04q6/EOGa9GRC8q6wiBKLppPR8yxlY20QfwkDFef0YrjeZzMnT74n9Za/V8rl4c/txwZ0K6gwfXCWPpjrWGKunHWDNcj/cZbpnT7muaNKKDyex/Xpu9tj236xWl199QUdbrh0sfQ297VIE7M/953r3gt3UAzXL57yoh5MW3qlxcPVwlet3ywjgxXdkJ/JVqbe0KWiemHK4npxBramMdM0/GjOoi6iub2cvrYqEpGf6P9XFzG3AaynU+0M/oFLOeorDPzuzu009JO8N///d9fjXj+Q5jw/Me5lOmmbKvXi/k/dBPTbe7Wknw/qntMfmZ/qCnq6GBm9HusFpR9YII2Lccv+9gmv3ZtyuB4DzyijeErLerulXU0rS+rdRnq957W7w9dtTElWt/888c//hGefvppmPpRfQPdcIUqE9NVK4rpCrJ8Ck53qk4mDdsPu1+MfV/Vx0Ub3bANkXXl22p9p856XJSXG1pPzNd/WHvfNJaxHDn2UOxXDw1fbrkPOs7E8uHasvQxhs3QDJf5sSih0A2X/qgWjfVie1eYethURhzTnqnYaW1AeTB5GS5aXzNnz12Ab3e9GlR39ZpmtHR0w5U8sDfsnToRkrt3sEbLCmLsfs3bQePitI3/G3Zj+ezH/gy7urXHNi9BcVmf3L0x/PNRXAbWl6T3e1c5SBLjNBbv/5WXqQ311Uzp9BbUvzGUoLZ/1tta4/cO7t+B/PnPf4YXX3wRlqDhWoIH9EjRDZdBowVGnbi+6Z+joGRJ3BayXC9bfPQSDGmpfQ03OeU8TmsXobeYs1m0K12qrDizI/o+ge3FmLkmy39aW95QeWF7//XnRb1YltHXHmS4FqPhUtUVBn/445252zjKuffee3c/2ndM0LH8T7eVEvUP9xkbVFccP0uf7y9Quu84eKBRHW1fv7u6VifPIP6l9Rj4a5X/lcvR2v4fWVe6L3qNRhW0Ouz3cFw/cRaL5v9YpyeOWVGM+cc6w+WYWPdIMzFdul8/zXDJukCsGa7+r1qmdIdaYsXu6uBffietPBknU5mOYbjkvNY2d16ndIOyovwBOX/vP9TtQlG2RcdIznARs5AgxbWuh2ZloBKsRsggybJR/xBlFTt2wvlGYjp+rn8forNcpn+51l7rq5Vp4/8jqH38w+b50MsJhD5nC2e4tiJy2YKPkKD/iOgM18jnP4JXn/8kF8MQfSzmddOj1U8Q07XQHPn1IdBUUV0/Od9WGiSarvWH3OlXn39fTN/7wHtiXuxkaJy0Ov/x9TEm4HRZH02Xlu3U0LZRneEy/0rRfCaAjNXy5cv9DuA6dIZr2kevwLQVGoa5kvPTpKm5r1213PpqFY32RKcafxJt6s6uZ7QfigaI6oZ1+C8x3xENl26qtLGri22ij+tfpyUQvc6MWP5Dj/vN6+2GzawjHu2TmZmZJ7rhyggoLyFMiQ/SM3LLErtoiW9KSppfWxV5Ga4W752BS5cuQXl5Ju3KN99C6iHtDNfYbZdEPzrLRfzwww9BZ7iSB/WBvdPQcPXoaA3DcKE5kmVktmjZ5rLkHk0040SGDOdL0nYgwyXrhOGqqbVvIr4a0trl9reHE2e48OAH27dvV7ajM1xLj12EpccvRYxuuMgcBdaVKqXFBFF57mksWyKMa8v1Z4Pa1rhdOxgvPOK/PmIMNE1LxLxmsrSxzNPmMZ4SBss8RiSQ4Vpy9IKyrjCoHp1nuOi4gx+pv3D/fvvRuHFBx/IHqj4g+v3u+V5+5aX7txf7n7lcM1lPYZ2cvruGX9s/tx4t5v/6lGbUH+47AQ2Xdj3d/b21Zf9JxAMas35yTDTgv3uupxwf989Hm8sxB0jDNVLMB2LNcA14zTKlO9YWK3pXx+C6Bzq2g99jHdX//h+1/er08nv1tg21ccRYDQeIstINpeGSbQzDJefzwqLhsixhuNYMUqJ/hahxD8SP7hzUpvPD9xj1ifNy64+NrmL0Nffzb587TmLHJ0R5xRpVIHu0Nq3XBfcLXg/CouGyJGG4XlgBr77wr1zKvirWodbjaGJkmWG65HzZPzwq1/NRaFv2fa38cWm4ZBvDcMn5e/+gjXHv3dpZC2G4sJymfXdPkO3ksstqyzYMlxyjP66bvi733t1d9snFiuGyChmueDQr8Ss1/lccdHX+BPWHVzfqCDI497erKKaHjdDOUhFGuxHScM1G00RjPfQnmGbq/7/SgN+Ppk0bq1punVx2pxX1xfwzD2tG7v6H7jfG0A2X3ofmKwzXxhg+SzNc5ufQhaKLNDwG5Sbn1h9ZBxUqyAN7uXLQqYLWtlzHBL8xVIQ2XGvEAXn0e2fhu+++E2UV5Tp8l/S6iA/dcPn1k+iGaw8ZrviJsKdnR2u0kmewWrSHtXUriGlaZv/ajY02je/RDNjjdz0kDJZe/qQ0NzNbdhAG7JVa7Y26tTjuE/LzevyRcpAsy61SLULDZRUyXMvQnCw7fjliasizFmYWHZFnpv45Gs0CtVsqtumDgzeLPtXLal/h0gF10KavjLFmvvsaFJfXMLV680ujvLQ8izFw0wVhwCrPPaO1H6UdfH1PjEZDJsf4dCk8JMd4sNEYcXZIH8cOZLiWHr2orLvtNs0Eau8tf9xWCte10QJlnZkoMVyWRIbrsX7j4VE8fqv4axX8B0fuF797vKYwNVT+X/feL+PiL/A/7XL7C8P1WEs530G0uavNGDGvG67ScThGY+2HCQ+g+RLjScP1SH85jjBcvbRpjM/fPddCTBMPVn1GW/ZdaOxkmY4lw/XowNc9QbmWnZw1XG3QcK0d7AmcNlyjXlgJr73wqSdw2nBNX9kApq9yiJGa4Rrm5JgWGTGrrjBcqvdZUIQ0XJKffvoJrl69aszTNEEHGnqlenN7HcNwDe6LhmsS7OnVKaaJBcPlVawYrnattDMqDzZ63898tR/ZTpwxobpK87YYdS+V086kPvhEc/GVqhjLZLgelWf5Fh3NHUsn5gxXfzQ9iuN5LFKzthXDNWiiJ3DHcA3xBI4brhdXwesvfuYJnDZcM1Y2hBmrYp+Rs+p5+1mKZLiGxMHe6ZNhT+/OMU1BGK7piZ95huUnLiGXHYEM17JjF5V1wnD9cxQsk/OlxLVCLWCpqY3GDiiJxuvBwQvk6xcB9dJwNW4OJciczT0VVK8Te4brVeXxPBaxZLgeGzzJE5Rr1dlhw1UfstcN9QROG67RL66GiS9+7gkcN1xkWFbHPiNne9xwvVQD9g7tD/tmTIG9fbrGNG4bLoprui+a6ua0scb06dNh9aFTsObYefjo+CX4EE1KfiDDtRwNl6pOGC40SIM2nYfZC7Svun2NF4i6l8X9tJ4SZ7VmL9C+/iKjJW5kSuXHLok+bTae0cYShmsBDG+t3fh0wMFzfsvSCWW4CJHYokhkuB4f8JryeB6LWDNcQyZ7AlcMV+IwT+C44aqUABMrfeEJQhkuUpopWVmBDkwz0azMTIh9Rr5RD7p06QIpKSmFBn02dPBwzXANG4CGayrs7dstpikIw/XLL78E3ZjWbf61vyn49uxU1kVKfHw8fLL/KHx++GtYjYbroxNX8gUZrg/RHKnqCoOYM1wD0XANUR/TYw1rhmvoFE9QrnUX5w3X+hGewGnDNQYN16RKmz2B04ZrVkIjmLUm9hk1p15UPLz6xIkTcPr0aeX2jhTDcA0fCPtmouGK6x7TFIThovui3bx502DTXjRDydtx+hKUTIyDGXsHgi+xARy+kSPqS61vIOZ9WLdetqWydFl/2/qGsGZPYyzfhvNJUALbZt64CSdPDALf5g/hBi1jH/Xbpr2KsRrA1J+ysG8DSMnJ1tZD1MVDjhizAaTlXIBS2C4tR1vO7bgcvS0xbdo0+OQAGq4jaLhOoFE6iUYlHwjDRcZNUVcYxJzhGvS68ngei1gyXI8Pm+oJyrPhConThmts5TUwufIWT+C04Zq9pjHMXhv7jJ5T39vPUkTDtW/EINg/axrs69cjpikIw0W36cjKyjLYsAeNTtKXOH0ODVcDSKX6izPR/EyFDGpjmjbairK+0HlDY5j0fZppjJ3CcKVlZsGx42jcNi+HTKPfVrG8O9Y3gtUZ6WKajNX+jAwxrY+ZLsuvYrkYA5ediEav/NGTWjvJ1KlTDcOVgIZrBZqU/ECGi76aVNUVBqEM14Ur/ybDVUzLbNEhMlz/GDxReTyPRSwarmmeoHzrrs4arravQPaGkZ7AacM1rvJamFJ5qycIZbgivYbLa4ZL9bVMQeG64RpJhise9vXvGdMUhOGi1/T0dIPEZDRDu7fi9BlhuK5S/fkZaHSmQKps8yyaJJpfa7RNh+lbmhjTuWPQ9ABsi0bq3x9C8S+WQppRv0XUH8Gxi2P9iu+uC2OlnfHqC5POnhT1BJX/mJYqpp9HU0f112SdzuTJk+FfaLi+QMO1Bg3XSjQp+YEM1wo0XKq6wiDWLpr/x5BJ8PhwPIZ7AGuGa3i8JyjfxgXDtXGUJ3DccFVBw1UFDYsHcNpwvbG2CbyxLvYZM/cVbz9LkQ2XZSiu6eCt+mFDrOFnuE5ehpVff5MvhOE6kf9xnCLmDNfQyfD4CDyGewBLhusfI6Z7gvJturlguEZ7AqcN1/gq62BqlS89gdOGaw6alTmJsc+YeZrh0q99CYd+R3mdivFHjbrnA2+KKok/mntdTSjcNFyN0HDtHzUY9s+Oh/0DesU0BWG46LPwCrrhWouGaxWalPxAhmslGi5VXWEQa4briaFTlMfzWMSa4Ro5wxOUb+uC4do0xhPQ5+ys4UpEs/KVJ6Bt46jhIsOyPvYZ8+Yr4lmKOTk5eWIYrgoV4Gh2bvmM57SfxWdmZfu1nynLMwLKA6HPxl3DNQT2vzEd9g/sHdO4bbjoPlz0Fa/qOrtYg24LsfXAYfjq8HFYd+Ki0rTYgQ1X5BKGa9hU5fE8FrFmuEbN9ATl23Z32HA1gJxNYz2B04ZrQtVEmFb1K0/gtOGam9gU5q6Pfca+2UAYLvMFx1bQzVdGZhbES2N1KN3/guvn5FkvamMuD8Rdw/US7B89FA3XDNg/qE9MUxCGi77ipVtD5HIZnhfXaDWAxKs3RBn9CjHz1k04dXKQKO90OSe3/bUEcQ1WhePn4GPTrw4rbJkON4LGNnNZXCOWcfOmmBd9t3wEt4LaaXy8r5n4RWSoerotxKcHj8Lmo1/Duq8vw+pT3+QLMlyrTuZ/HKeIOcM1fJryeB6LWDRcszyBK4br43GewHnDtR7NyjZP4LjhIsOyIfYhw2XpWYpHtAdJ4yYzSElNN+rXddGeWxZIQkqa/zgKCsJwHUDDdQBNSyxTEIaLzjjSrSF0eoiL0uPgaE62UUaGKw3nN4pfF26D29GQJWRnYd1FYZrWyXJRv/lDyJH96BeIU37MNMbxR+ubmq0tZyPdYkL2nbUVp6VxI6jNxr1ouJK+Ml1YHweZpvHothBsuKJDmuGKVx7PYxFrhms0NvYA5dux4QqF04br1aobIL7qdk8Q0nC9PLb7N9/9x+/AkxdkuOatbwbzNsQ+46ThMv/Cy1EOr4Nixcobv2hT4arhehkN15hhcGAOGq7BfWOagjBcZIDp1hDBbBe3dLiO9WS46LYM6+XtHPQ6Mj778fPUy8XrF8sgQ45B/Valp5nG9Ifq92F/mp5Bv3JM2mJMlz9yUkyTaVuJY2jLwPoL2m0p0uUYOlOmTEHDdQwN1yk0XFcg4dS3+YIM1+qT+R/HKUIZLkKmtqiRMFwj0HApjuexiEXDNdsTlG/XwwXDNd4TOG64qqHhqoaGxQOEMlwkc7KygjBcZFg2xj7j3mrg6Uf7CMM1Fg3XXDRcQ9C4xDAFYbjo81DVxRr0K0WnDVcCGq41OB0NxJ7hmq48nsci1gzXGGzsARw3XO3QcH2ChsUDOG+4NsL0ajs8gdOG680NzeHNjbHP+LcaFgHDNRwN10w0LXExTUEYrmvXrokDeKwzadIk+AwN1xY0XIlouFSmxQ5suCKXMFwj0XApjuexiEXD9YYncMdwTfAEbLhC47jhIsOyKfYZ/7ZmuAIPWAUJGy5ruG24KK7pF35eEP1K0TBcp9AonUajkg+E4SLjpqgrDEIZriYDFkTnNVz0Cz/F8TwWsWa4xmJjD1C+vQuG619oWDyA04brNTRcM6rv9AShDFekF817yXAtWbJEHMjpWYZkegqaJk2auGq4DowbAQfnzoKDQ/vFNAVhuLx0WwjdcK1Hw7UWTUp+0A2Xqq4wiLWL5v85aiY8MXaOJ7BkuFQdY5EK7Xs6bLgaoll51ROw4QqN04brLTQrb30c+4yfrxkuMjvff/+98v26TbNmzeDnn3+GH374QVkfKWy47EFxTTeiDXwSAEEXtJt/KZh907/+a7pFxJaP4Lb1jWDqT9mirMeGJqa2yeLC+qyAfkTuLw0RHONmQL2SK29g+3hxqwlVPf1KkQ1XdKhoGq5x2NgDsOEKjfOGaxOalV2egA2XmiJhuMaPhIPz0HAN6x/TFIThys5W36TWz3Bt/hCyRfkuYaJSsM+LdPuIzcsh+/IsbDMNsnJ2Y10cdMHyKT9mwKytTaDDxXQxlrhdBPZLl8uisa9nZ8HGvWTQ4iATy4RZS/oKl3MBDVlDmIxjiFtF6P0uz5bLCV5Xgh5ezYYrOiQM12g0XIrjeSxi0XDN9QTuGK7XPIHThut1NFwz0ax4AecNVws0LLHP+PmN2HDFCAVhuOg2HYH3SSPIFO3HNhkZ2i0gfqZ2P6wUNzmlB0eLh0h/sQzSsS3dl4uM0cR/X8f2O7B9X9Huero2lv4wa/PYP6X7369NjEcPtM44K86ArUhLNR5yLdqI20H0FbepMPfTodtCsOGKDmmGa5byeB6LsOHKh4Th+hQNiwdgwxUapw3X22i43kbDEutMYMMVMxSE4aJfjarqYg26LcTnaLi2ouHacOobWHf6u3xBhmvN1/kfxynYcBUe1gzX+HmeoEKHXmy4QuC84foYzcpuT+C44SLD8knsUyQM14RRcPDN2XBw+ICYpiAM186dOz3B4MGDi6ThernH3Og0XGNmK4/nsQgbrnxIM1yvewLHDVd1NFw10LB4gFCGi2Q+6FiBDZezuG24DkrDlYKmJZYpCMPlpV8pbpEPr9546gqsO4NGJR8Iw0XGTVFXGFR/SW24CJnWokZsuGIYNlyhYcMVGucNV0s0LLHPhPmN2XDFCAVhuOjBz2S6Yh16ePXnKcdg67FTsOF0/o0SG67IVSQN1z+xoRdwxXB9hobFA7DhCg0bLjVsuGKHgjBc9OBnujWEVeiC9/QbOTB7axOY+tM5KLm+IVRI/hBumOqnb2kCFY6dhU30K8PkbaK80obGouzk5dXiInz6deIRHEcfly6Un75F+1WizpSfsoz6vKDbQuiGayMarkQ0KfmBDNdaNFyqusIg1gzXk2i4VMfzWMSa4ZqAjT0AG67QOG24Jlb/BGbVSPIEThuu+WhW5v8r9nn1nSJguF4lw/UGpIwYGNMUhOGiBz9nZWVZhgzVNewzAw1X+aNfizK6RUT786mm+gwxvUHeDoJof/4UZF3UHjydIcbaKYxXaqY2Lhmuq7IfPbB6VUa6mLYK3RaiKBquaL1o/smxaLgUx/NYxKLhetMTuGO4JnoCNlyhCWW4Ir1ong2Xc7DhskZBGC56pVtDWEXc0gH70Fmssoe3ijNcZXdvhbSAeprWbwdh7n/k6AxxywjfF33hqmnZZLh+TEvV2pzX2qz47rpRnxfiV4psuKJCmuF6Q3k8j0XYcOVDbLjUYsMVGjZczsKGyxoFYbjo4B34cPFYhA1X9KhIGi4v4aThUo0fyzhouGqqxo9V6td/5XunDFf37t2Uy4hVPvnkk0I1XHSgV62XU7zyyivQr18/ZV0sUQMP+m4arqpVqyqXG6u8/vrrMGnSJPH5q+pt4XKMRgI9fzQWDNeLL744UrX+sUqjRo0uhTVcJGzwR6QhGpUeSPdYBt8ovYduePD8X/n28qUjR47chdumd+ByYhXaPvKt5Vs41j9w23TFcWmbxzz4firItyYUieHSIYNCCc8r/Pjjj8r3WRDQGa5vv/1WuV755dKlS8bByQvQdlJtQyegz4FMHT3I3CvQ56/ajpFAZ5VoTPoHRVVf0Hz33XdRb7h04XGkIubgboE5OVZB/1FGvjUWi2VF+TFcDMMw0UQ0Gy4Wi1XExYaLYRiv8OWe4+Br2rSETG8sFosVXVIlLoaxSpeSJcHnKwfXU2l+LRT3+eheSAblJu6FtLVdxPSKn6/l9nuW+vngp2u5Xwmt7VJKlF27njs+w9gB44fFYrGiU6qkxTBWebZkCTzIScN1aBoUQ8PUfsXPQe1KlSiG7drDdTFvMmblJkKqKDsEJYpR35/8+jGMHbSsxmKxWFEoVdJiGKuoDBeGlcHV66laW3mWa+/V69DltpKa0TKVTXuWzm7pZ8oYJjIwnlgsFiv6dN9Lo2r+58fgsxEMYxWrZ7iIUiWLo9EqJ9qQyaKy26gM+xcr5oMVP+V+5cgwduGL5lksVtSKL5pnGMYrsOFisVhRKzZcDMN4BTZcLBYrasWGi2EYr8CGi8ViRbXue3lU5UBklVKq9mEJkwDve2lcaWWfMMiuSqnahwO7FNN6Buv+l0b/U9UnHLKrUqr24cAuodet9pgKqj4hqTmyouyqlLJPGLBL6HWrOaKSqk9Iaox8UnZVStknDD4fXSKmlu11qz76Edk1SBTXyj5hcHLd/lpjVMgnjTxQfcofVX3C4eS63Vt93P+TXYP0v/Um3qXqEw7sZnndsChkWxaLxWKxWCwWi8VisVgsFovFYrFYLBaLxWKxWCwWi8VisVgsFovFYrFYLBaLxWKxWCwWi8VisVgsFovFYrFYLBaLxSoQ1UnY9a/aCbu/LBRW7blbrkZUSrnOBYRchahUzTU7KqrWuYD4SK4GK0LVXrWju2K7Fgyrd8+Wq8Eqwqq7Zve7yvjwOGXe2V9KbgLPqM6a3StU79Xr2P4s6yTshsLQkf+kQu2EnR3kakSdXl6XdP/y45fl2hasOv3rAMjViErVWZv8wW9yXQtadTFe5WqwIlT9tUkXfy2kD5A/PxapdsKuG7/+VlhZpHA0ZsdJaLJy9+/kJvCM6LMsWp8kQLP1e6Huhv2/l5vAmthsqcVmK7TYbMW22GyxCltstrwjNlsWxWZLLTZbocVmK7bFZotV2GKz5R2x2bKo/Jit6Z/vBupfJ/lnWWJdXjVbq/RtYuKKrLMqb5qtrKDtMv0bWWVDfLDOvyI1W/XW+H9+xK+yzqr482OR8mO2Bq5N8ovB8wHB/ArFadJPOJUF9U3tBJ9fhtzWwfU3A1apES5r2uXcKG9AY39mHsO62Gz5a+3WZL9tX+ezr+EX00D79u0R5ZmiMEvb9qb2Uy79ojU0ae4WOebuH2VJrpqtS/Lr02gtLfOS7RxGKjiz9c0pvzfNZitX03F7rPomS0wnJ6fIbXRKzFuVV82Wvl2ufHPFiB274/DBOv/Kl9lKpoNY5OLPj0WK1GzNxgMm5Y0+x3/SckdaFlw2jaPXa6bpKtT7/Gu4JKazNBOGdTvlEb2hNG07r/8G33x7WkzXSfhaO/ji/DRcxiwcb8e1TOj/RQrcwm7ffH1YtNthdgUWxWbLpPRvoJ7Y3tp2nZOomaSphhm6Koxw72Ppch6PH5czxGfz7bffyr674YbulL47I+YNzGYL66Yc+xHewGVsu5oBAzcfghzs9+3XR0Tbr27at1sFarb6ksHSTRebrRDSz+akyHlrKgpfI9JBl7aN3XH4YJ1/RWy2xL7OZouVf0VmttA8UQyKs1YqyTNVIerXbNYO6B9dp4OrHEs3VyjdfOGKwd6TpyHO9C1Fn89Pgb7TRHp2i82WSdJsGWbqW80s6WZr3VbzWa1gibNSWG82W73RYP0qxzGbrX1fn4F+n+eeDe2NBlw/G9o4wrNbBX/NFputsEpO1j5cu9vHq2bL2B6SSLYuH6zzr3yZLUlfPPhEEgP8+bFIkZitb05qZ5WmJenfGGjoB069XjNTwdLPbJGZMowZQmdWSPrXVPp44iwZGjcq33Etd10H6mfPbB6h2Wz5Sz+bVecz+XmavkYUJighxe9rXf1rRZ2zvyg+AP0MV8DXiHNpWVhGJm3b1dx+Q+U6ZNlMiGy2HFR+zZZxPZvNs1qkomK2xNlRm+KDdf4VmdnKEtve/PkRdsfhz49FisRs7d0rD86YU+mgbMzL67D0M1eB13BBmn4WC42a6fqrwGu/dPT+dHaLDvbf4Kt5h1kjrws6Z/OrRDZb/pqjX19loJsreX1WwBmnQLNFZ7KCFMJs0dktMlTf4qs5PvQzaKdv2XPObLYcVH7MltgmxOd2L43XVBS+RoyT28juFuaDdf4V6Zkts2au0Q5UK1PtDcSfH4uUH7OVa5j0s1NovnBON1vamStN+tkuIsiEoWZtPqSNeSXTMF+BF8kHSl8PNluaIjFbunFaflVeo6Vfw4UG6zfdbKnMlNQQeUYqyCSFMFuhpK8Hm61CVH4ukKdtMl1eDB6JipLZSpLzVsUH6/zLSbO12+YBkz8/FikSswVp34j4yb0my/+6K90E5Zqq3DNa+leFoRV8DVco6We2cmzuRGy2cqV/hbjNMDnaBfG0/cl+5fVLQd1sbQv8Ltem2dLPbGXYNM5sthxUZGYr+PYGGnyB/JUT/tdZRLJdSHywzr8iMltpub8gNX9+dofhz49FishsofSL2M3ovy6kXxDSvH7mSz/TFYh+TZf+y0Uz5rNioUS3g6C2eRs4f7HZMsn4NaI/+gXyTeVnow+s/3LQn4PBZyFtmi26HQS1p18n2hGbLQcVmdn6WQZBIGy26CfafT/PNVz6bSDsig/W+Vek12zFmT6/lVf482NFrkjNFmnNnkPaGS6Mx4sBY2gXuWtnp1RmitDNFl2TpR/w+yRdzvOMlibtDFifYxly3rrYbAUqCwZ+oX2NSxfJm7/m1c2VceYrHdvKr3zFZyhvAxEkW2brKryCbXsf1W8vYV0Fb7byIa9fIJ8fFYWvESMVH6zzLye+RoxU/PmxSPkxW+GkX6NlnO1yWMZ9vKw5Mz+x2bIn7ReJ2teKbmjueu3Mp91fIpLYbDkoNluhxWYrtsVmi1XYcstskWZvlobI6eHl15SR3NCUxGbLrq6K23Xk3tjUQckzYJHc0JTEZstBsdkKLTZbsS02W6zClptmK1rFZss7isxsrd41vrB4Zd2Xd8rViEqp1rmgkKsQlaq9aueTqnUuCHDHHi5XgxWhaq/e+Ypq2xYE0fwPFqvghDmkryo+vE7TVatKyE3gGdVeuXOU6r16HS9+liwWi8VisVgsFovFYrFYLBaLxWKxWCwWi8VisVgsFovFYrFYLBaLxWKxWCwWi8VisVgsFovFYrFYLBaLxWKxWCwWi8VieVqVK1f+DQGmaFCpUqWv5UfPYrFYLBarINSvXz/50AxWUVC1atWu7N+///87ffr07TIEWCwWi8ViuSk2W0VLNWvW/OnAgQOdkLIyBFgsFovFYrkpNltFS7Vr176+f//+cfv27asjQ4DFYrFYLJabIrP122+/MUUENlssFovFYhWw2GwVLdhssVgsFotVwGKzVbRgs8VisVgsVgErLi4Ofv31V6aIwGaLxWKxWKwCFputogWbLRaLxWKxClhktn755RemiMBmi8VisVisAhaZrVu3bjFFBDZbLBaLxWIVsNhsFS3YbLFYLBaL5YzaIYnIn8RcGJHZunnzpjc4ORuK+XyAb8tERcjKyW3T44USAfU+6Dj1iFH/YqmSQfVTD2Ua9bEOmy0Wi8VisZwRmS2zYQhpvPr27Qs3btzwBidnCbPVaU26mN/Y43nx/vX5WS+UEvMVOq2BnBxqfxJKligmytakZ4o2LwizVQENGtVvhJLFaPt1hGx9GTEOmy0Wi8VisZxRoNky42e8vGy2btzYCMVN8yWL0/vvFGCc0HCRoeq4RsyrzFaFKYdM7WMbNlssFosVmcwHUoaxQyKZrZycHG9wQjNbge8zPTMb6zXjVWHqoaB+JUtQuw5osHKk2fLvP+VwRlCfWKVYMe1MHsMoYAPOYoXRQvnKYukKd2aLmI2gL9HObGVnZ3uD4zODzNaUlDRZfxxKiDNYCf59EGG2KkyGLJzWz2xlZGl1z5fSrvG6np4Z1C8W4TNbrBB6HumpTbJYLJXYbLECpTJbhsEyi8xWVlaWNzg2Q5itDgnXxfwL0iilolGi+VLy+qy0jNw+x2a8IMpy+2hmKz3Tv3719TSjTyzDZosVQmy2WKw8xGaLFSjdbCkNlll9+vSBzMxMb3BUmq3V1/zmK0w+IOaPSuMUTAU0YNoYqq8RCTJsxnJiGDZbrBBis8Vi5SE2W6yI5S2ztV5clzV59XWj7IWSxf3N0tGj8Nyzz0gTVQGmJKTk9ke6veBvttpPSYAMacS8AJstVgix2WKx8hCbLVbEIrOVkZHBFBHYbLFCiM0Wi5WH2GyxIhaZrfT0dKaIwGaLFUJstlisPMRmixWx2GwVLdhssUKIzRaLlYfYbLEiFpmttLQ0pojAZosVQmy2WKw8xGaLFbHYbBUt2GyxQojNFouVh9hssSJW7969ITU1lSkisNlihRCbLRYrD7HZYkUsNltFCzZbrBBis8Vi5SE2W6yIxWaraMFmixVCbLZYrDzEZosVschsXb9+nSkisNlihRCbLRYrD7HZYkUsNltFCzZbrBBis8Vi5SE2W6yIVadOHaBfJDJFg1q1arHZYqnEZovFykNstlj50p49ex7CA/BgOggzRQM2W6wAsdlisfIQmy1WvnTy5Mn78eA7SHVQZrzJ3r17q8uPn8UisdlisfIQmy1WvnTs2LHbkpKS7kLDdQ9TNMDP/P/Kj5/FIrHZYrHyEJstFovFYuVHbLZYrDzEZovFYrFY+RGbLRYrD7HZYrFYLFZ+xGaLxcpDbLZYLBaLlR+x2WKx8hCbLRaLxWLlR2y2WKw8xGaLxWKxWPkRmy0WKw8Vqtl6sf3MtKnvfwqhmLX4C0hLS1OyJemYsk84UlPVYxGq9uF466MvleMQ67ccUPYJBz3oVzUWoWofjqUbdivHIZZtTFL2CYeT67buiwPKcYj5K75S9gmHk+u2efdR5TjEG0s3K/uEI9S6/fjTVWX7cCQfOq0ci5i+8DNln3CEWrdv//2jsn04jp+5ohyLmL7wc2WfcITaT0+d/1bZPhyXvvlBORYR0XZTjEPsP3IW7ntp7HaZ2oqa2GyxWHmoUM3WfS+P+U2VuBiGYWKN+2qy2WKxWGqx2WIYhnEANlssFiuU2GwxDMM4AJstFosVSmy2GIZhHIDNFovFCiU2WwzDMA7AZovFYoUSmy2GYRgHYLPFYrFCic0WwzCMA7DZYrFYocRmi2EYxgGKmNm6A/kNAQVlERaLZRKbLYZhGAcogme2MhGV2bodYbFYJrHZYhiGcYAiaLbeQgKN1imExWIFiM0WwzCMAxRBs6X6KpG/QmSxFGKzxTAM4wCo38vUVpQU+FUif4XIYilUqGZr7vItJ1RJi2EYJtYoombL/FUif4XIYoVQoZotTFBbAxMWwzBMLFJEzZb5q0T+CpHFCiE2WwzDMA5QRM0WSf8qkb9CZLFCiM0WwzCMAxRhs0VfJfJXiCxWGLHZYhiGcYAibLboq8Qy2mQhqVKlSk9WrlwZvEKlypVT5VvLt6pWrrxNtYxYBT/r8fKt5Vuq8d2gdOnSynKnwbdUXHtn/sIEZdtsqcaPZVJTU5XvsyDo16+fcp2YYBISEpTb0AkWLVqkXCYTnbz55pvKzzEazRau783A9Y9latas+Qf51vyFB+AOpRu1hftbdPcE9GblW8u3qlWp9E3m+83AK+C2cewsEW3n/k8u8gSNnu3iqNlq2qEyDJ/nDSpXKXyzdf36dWVdfqlWrRpsbfASfOUBFtet7qrZWrBgAUz6dCfMOXCWCWDs6k9gwJvvK+sKgymb94Q0W9F4ny08ltxUHctjkQov1y1aZmv//v29kpOT68i3GLG8ZrbatGmTtG/fvu579ux5SL7FiOU1s4XbZTwyRr49Q5HcZ8trZuv8+fPwzTffFIrp0s3W999/D5cuXYLLly87Rp06dWDnpPGwc/xI2N6msdLExApkthYvXgwXLlyAH3/8Ubkt8wObrdBEo9maPn26iAXab8yfI5stdyGztXXr1knoQfp9+eWXJeVb1ORRszWO3qx8ixFLM1vN0ah4gw4dOhwkQ7F3795y8i1GLC+aLYyZ4fjWimnvUBObLc1sXblypVDN1r///W/4+eeflW0iRZzZalIbdvTrDtvbN4OvGqJxiVEW12OzVViw2cqfPGq2+iOl5FvUJMxW43Zwf8senoDNVmjIbB04cGA0my1/2GyFxvtmqw6arR7SbL0csyyuV4PNViHBZit/EmZLcSyPRdhsRSg2W6Glma3FnqDRs13ZbIWAzVZswGar8GCzlT+x2YpR2GyFhs2WGqfNVjM0WyPerOIJ2GzFBgVhtoa8sxTGrPrYE0z7cr/SqEQCm638ic1WjMJmKzRsttSw2QoNm63YwG2z1b9/f5gzZw4sXLjQE1SpUgXmojFxgnFotgai2VLVFQZT2WwVGmy2IpQwWx+gUfEITputAU8t9gSN2WyFhM1WbFAQZot+Dfrbb795gqpVq8LCA6fgvQOnlYbFDmy28ic2WzEKm63QsNlSw2YrNGy2YgM2W/Ygs7Xu4AlYeeCE0rDYgc1W/lTEzFZ7bNjTE7DZCg2bLTVstkLDZis2KAizdfHiRfj1118LhX/tbwq+PTuVdZFAZivxwDFYdeC40rDYgc1W/qSZLfXxPNZgsxWhNLPVAo2KN2CzpYbNVmi8b7bqSrPVHE1LzZhlcb2XCsRs3bp1yzYf70WjlLxDWSe4Mht8ifFww1RWaUNjLGsAh27cEPMf76Mxtuf2ySdstqJHRc9stcLGHoDNVmjYbKlhsxUaz5utpmi2+qPZ6oBmqxEalxilIMwWjX3z5k3bbBJmaztOX4KSiXEwY+9AYaQO38gR9aXWNxDzPqzLFn2SoAS129oEKhw7q40hzNY2WdcAMm/chJMnBoFv84dwQy7HDmy2okfCbCmO5bFIhZpstiISm63Q0szWEk/AZis0XjdbX6LZ2olmawearW1oWmKVJQVgts6dOwc5OTm22bgHjVLSNpy+gGarAUy5eAbLmqBRWg7Z1ObyLDRa0yDL1L78sdOQ8/MqKI6mK5PKyLAlfYX1u4XZSs/OgRPCbMkxbFJUzdaDdcYvkKktasRmK0Zx3my1RKPiDdhsqWGzFRo2W7FBQZitM2fOQFZWlm02CLP1JU6fE2bremYmZF2ciQZrKmRQG/M0csf6RvJMl8b+jAw5xlas3ynMVmpmFhw7PlCYrUzZzw5+ZusgmpR8YJgtRV1hMHVLaLOF+r1MbVGjImi2enkCNluhcdpsDUSj4gXCmS1MUFvNycoKZLZGvlXFE3jfbNVDs9UTzVYLNC21YpYl9V523WydOnUKMtD42CUxGY3S7q04fVaYravp6ZBxQTNYadRGTPeFVNF+hzBT19O1vt3o2q3dW+QYW4wx9qWnwfNU98UySJfLsYNmto7D6gMnYN7Bc/li/Op/odn6QFlXGEzdsjcGzZb6eB5rVKhZLw+z1QTNVmts7AHYbIXGcbP1NJoVD9D4OafNFhmVqp7A82arGZqtAWi2OqLZaozGJUZZUr9gzFY6GiW76GYrPf2MMEo/43jp52egwZoCqbLNc+Js1hRYa7SV/UW7BpAgzZY23gBRtv/fH0LxL5ZCmt7WBmy2okfCbCmO5bEIm60IJczWQjQqHoHNlho2W6FhsxUbFITZ+vrrr5V1sQibregRm60Yhc1WaJw3W0s9AZut0LDZig0KwmydPHlSxIAXYLMVPdLMVm88fsc+eZqtR5p0gAewoRdw3my1QqPiDdhsqXHcbHVEs/U2mhUP4Hmz1bw+7BzYC3Z0agnbmtSOWZa84r7ZOnHihPgsvACbregRmS3VsTwWqchmKzKx2Qot2s6D0Kh4ATfM1ig0Kl6AzVZs4LbZateuHfTs2VOYLi9AD6IuimbrgdpjV8vUFjUSZqsNHr89QN5mqymaLUXHWMR5s9UajYo3YLOlJpzZmvTuJ6fNycoKbLacg82WNQrizNbly5fpzIgnRGe2Nh04BmvRcKkMix1iyWxF601NVcfyWMSC2eqIDft4AjZboXHebC3zBI2f6xbSbEV0ny02W47hvtl6Bc1WbzRbrdC01IlZlrxS03Wz5bUHUW9OOQob0XC9iQYlP0xAszUIzZaqrjCYFpNmS308jzXYbEUoYbYWoVHxCGy21LDZCg2ZrVmzZsEbb7wB8+fPh3feeadAad68OVy7do3NVh4UhNkqzAdROw2ZrfUHjkPCgRNKw2IHNlv5kzBbbfH47QHyNlvN0GwpOsYibLZCw2ZLjStma341T1CtejVxcCostW7dGk6fPu2e2WohzVZnNFtN0bjEKEsaFIzZ+uWXX/yg5xpm3roZVK7itvUNgZ5/mHMrt0x/4HTWrVt+bc3chsvIuOm/DPFgauxHVNgyHcfU+n+8r5n2wGpTWxVstqJHRcxsdcKGfT2Bs2arMpqtNmhUvAGbLTVOm63maLZGo1HxAtFgtg4fPiy+wnLDbH3VogHsGtgHzVZr2N60bsyypEEt180WjR34QGcyW+nygdIqbl/fCNbkZItpalshsSFM/SlL1msPnC6OhiktzBhkttJysP7ybDRX8ZCDZeLB1PIh1G/sHSRMV8aNG8r+KthsRY80s6U+nscabLYilGa22qJR8QZOm63BTy/3BE3YbIWEzBadCVBd91IQkNnas2ePOLvFZis0BWG2VA+iJgOVmp0Ns7Y2Mc40EVQmHkAt56f8mKG1Fc9B1B46TX06XEwX5dezs6DHBm2exr19fUM4mJUlpslsUT29auPFQSKNbXoI9R0bGsFkXIb+wGrxkGq5nNlb6cHWp4x1JthsRY+Kntlqh409AJut0DhutsqgWfEAzputqmhUqnsCz5utlmi2BqHZ6oJmqxkalxilIMyW6kHUZJSuZWbCDDRO5Y9+LcrobNbqjPSgaa2tZroOZGiv+jy90nMQ259PFW3pK0dqo003gKtYb35gtXgwtekh1C9S33OppgdWn4NSaMyu4hhk3PbLddARZusgmq2DJ+CtlHP5YkLCv2DwWx8o6wqD+K0xaLYUx/JYpGItS2YrzhM4brYWo1HxCGy21Dhutjqh2XoHzYoH8L7ZaijNVhs0LfViliUNartutugzyERjZYaMEhmaGVvQbB05KcrIYK1KTwua1tqmaw+XpjNUXyyDjIDy9ueui7Zktvanpxv9fsb6TPnw6nQsW0+mSvbX2jeAlbgcUZ60RZSRAZt4diuUoIdcy3Y6bLaiR5rZUh/PY42Kteqz2YpEmtlqh0bFGzhttoaU+dATuGG2xqBR8QJktm7duuX3S66CpFWrVu6arVZotgaj2eqKZqs5GpcYZUlD982W6kHUZIR+wvrpaLbKHj4hyshgrUy9Lqa7SmM18btrRtv071eI67SoLHeMVDhydKBmwiT7UlON+h+xPj19BxonqusLa+jB1Ka2ZXdvEQ+k1h56rT2wWh+v7OHjYt4Mm63oUZEyW4827wx/a9/PE7DZCg2bLTVstkLjfbPVCM1WXzRbbdG01I9ZCsJsee1B1Gy2okNktlTH8liEzVaEYrMVWsJslUWz4gGaPO+C2XoXzYoHILNFv97SfzJf0LDZskZBmC2vPYh6A5qtNWi23kaDkh9elWZLVVcYTGezVWjkbbZaoNnqgI09gONma0l78ArOm62PPEGT57u7YLZqeAIyWzdu3BBntwqDli1bumu2WjeGXUPi0Gy1g+0tXolZljSq47rZ8tqDqDWzdRINyvl8kWu21PUFzfSt+2LPbHXoj8fv2MeC2eqi7BiLOG+2OqBR8QZOm62haFS8gBtmaywaFS9g12w9V6I4+HwV4aac7/Yczfv8iD+WE9QvFG6brW1otnaj2dqJZmsHmpZYZanLZqtjx44it3oFehB1UTRbqN/jPhhVws+DzVYsQjsSmy01zputFZ4gnNn6bOeR/eZkZQVhthagWfEAZLbovkSBN4UMhW626GaT3cS0Dyp2TtTqT2yE4sWKibKj2dbGdN1stSGz1Q92dmsPO1o2iFmWNq7r+pktrz2IWjdb89Gg5IfX0GwNQbOlqisMZsSi2eqIx28PULF2XmarZVdsOMATsNkKjeNmqxyaFQ8QzmxhgtpqTlZWaIFmaxwaFS9AZis7O1uc3bLCs8JgVYAcnC5ezAe+CtP825yYAbiBocK0o/7lIWCzZY2CMFteexD11oNH4GM0XPMPoUnJB6+tQbP1NpotRV1hMOPLWDRb6uN5rMFmK0KR2cpa2hG8gtNmaxgaFS/Q1BWz9ZInILNFN4E03307HLrZys7ZIE3VkYA2xzUT1mltQLka981WE5PZahizLG1cz3Wz5bUHURtnthSGxQ5stvKnome2Og30BGy2QuO82VrpCZo+38NZs9UZzdZ7aFY8AJktugkknd2ygm62srKPGabKv816zYRNPRxQrsZ1s9UWzdZQNFvd0Wy1QuMSoxSU2dJ/JRrrsNmKHgmzpTiWxyIV67wS3mw9hmbrQWzoBZw3W53QqHgDx81WeTQrHsANszUejYoXqI5mK0M+NsUKutmix6iUKK5dn5WRmVu/vksJUTblkP/jU0Lhutlqh2ZrmDRbrdG4xChLmxSM2Qr8AQPdcFS/sWjGzRvwMT2bMHmHX93hG7k/sNDLqK25L3HI1C6Q2V/SuNuNebpj/KEboX5ocVnW3xDPTFxzIzuoDZmtjWi21qLZegcNSn54XZotVV1hMDMGzdaDnQbh8Tv2sWC2uik7xiKOm61laFQ8ApstNWy2QkNmi+64bX7USTh0s0WPUTkS/6wwVsF0NB6zkhfum62maLb6o9nqgKalUcxSEGbr/Pnz/tfU/bxa3Ak+Mye3TDx8OmmbmCYzlZDc2Jg/SQ+HxmkqT8vJFq+HsrXrAbWHVsdDthwnEPGg66SvjHkyUynZWTh9EUolxsH0PfTgaTR2okyrX52c+3Bseki13pdgsxU9EmarMx6/PUDeZqsVmi1Fx1jEebPVGY2KN3DabA0vv8oTOG+2qsH491/2BGS26D3R2S0rdBFmqxyk62VH1kGFCtoZLl+5ctCpAtX7oFzHhKC+Ktw2W9vbNUOzNQB2de8IO1s3jlmWNanvutk6e/Zs0Ne8t61vJMxM+aQvIQvntQdBfynqyExdz9ouHrGTnpUtnlW4Wj54+nqW9szDg2ioxVg/rhLGjdqZx9eZKczWVmOezNQBHCs7+zyUJDN1/hRsoLNqm5eL9aB6ekA2ndlalZlu9NPRzdY6NFvvokHJD2S2hqLZUtUVBrPCmK37ovQ+W6pjeSySt9lq3R0e7DLYEzhqtqpWuZK1rAsaFW/AZktNOLMVyX22WqLZmoBGxQuQ2aI7bgc+Wy4/rOtcURiuyQe15+eFo0WLFu6arfZotoaj2eqBZqsNGpcYZVlT980WfQaqs4+Z/zkLJdHc0EOktQdBbxXlZKboIdX0rMRJ338pHgidZpRrzzzUHzatPWRaq/cbW0IPutYfME2Qmdon+uKy0Wxdw+WYH1RN9fTwajJbK9NTjX46wmyloNlKQbN1GE1KPnh9rTRbirrCYNZXMWi2FMfyWMSC2eqBDYd4AsfN1nI0Kh7BabM1ovxqT9DMDbP1AZoVD+CG2bKD+2arOZqtgWi2OqFpaRKzLGv6iutmix5E7XfmEc3N6u9TxTSd4Wp/7pp8EPRWUUZm6mf8DI8ekw+EPnLSVJ6mmS0cO+OHszjd0KhXoY9xAPvp01dx7IwMzWyJaWm20rA9ma2fsC2Zrdf/fT1oPM1snZBm60K+eH3tp2i2FirrCoNZX+2PQbOlPp7HGnmbrTZotrpiYw/gvNnqikbFG7DZUsNmKzRktujxJqr3WRAUmNnqiWarLRqXGGVZM/fNVvCDqE/DM5u1rxHbHdoCqVi2NgnN1q7Nop7M1I9o1KkdGSJtWi+/Ll6pry+xD0w6c1KOGZq1Sf3FV42+L/rAfuyvlWtj/0Rjn5uBY02B61hOZus/2OYQllGfD7+95jcWma1N0mwtQIOSHyai2RqGZktVVxjMjkWzpTiWxyIWzdZQT8BmKzSOm60KCZ6g2Qs9HTdbr35Q0xOQ2bp27ZrfQ3wLEvfNVgtptjqjaWkasyxr1sB1s1UwD6LeJq7x0kyYRtlDxxTt8gebreiRZrbUx/NYo2KdBuHN1uNotv7ebagncN5sdUOj4g2cNlsj0ah4AcfNVhc0WwvRrHgAz5utDmi2RqDZ6oVmqx0alxjFO2arYGCzFT0is6U6lsciFevmabZ6YsNhnsBxs/Vhd/AKzputNZ6AzVZovG62dnRoCUkjBsHuXl1gV7tmMcvyAjBb8fHxMH/+fE9AD6Ims5WIZus9NCj5YZI0W6q6wiA2zZb6eB5rVKzbMA+z1RbNVnds7AHYbIXGabM1quIaT+CG2XptUS1PQGbr6tWr4rqtwsB1s9WxFSSNHAy7e3eFXe2bxyzLmzd01Wy98847MPK95TAzYSO8vTox5lm+eTubrSiRMFuKY3ksYsFs9cKGwz2B82arBxoVb+C82VrrCZq90IvNVgg8b7Y6odkahWarD5qtDmhcYpTlLdw1WwsWLICZW5JgxaHTwqR4hcRDaLaOoEnJB8JszUezpagrDGZvi0WzpT6exxp5m612veHvPUZ4AsfN1kdoVDwCmy01TputVl2rweuLa3kCMlv0WRcmu3btctFstUazNUSarRYxy/IWjVw3W7PQbL2PB3PGn8lotoaj2VLVFQZvxKLZUhzLYxE2WxFKM1s90ah4A6fN1uiK6zxBc8fNVnU0KrU9AZmtX3/9lR7zUShq3bq1u2e2Okuz1RfNVkc0LjHK8pYFYbaS8WB+kQlg8trP0GwtUtZFSqlSxeFvA95R1uXFG9sOxJzZeqjnCPACz+Rltv7Rvjc83HOkJ3DcbK3oBV6BzZYaN8zWxCW1PUE0mK3k5GRxjyd3zFYbaba6oWlpGbMsb9nYdbM1G83WB3gwZ/whszUCzZZR9vGrgEkEXnjja6Psttu0B7D33XvGKKt2x21Y9iQsOCz7mSgpzZY2vx1KFPdBs9mn/NqEYk4Mmi3VsTwWeaZuIzZbkYjNVmjRdh7zTKInYLMVGjJbv/zyC/z222+FgttntnZ2aQPJo4dAUlw32N2pZczCZqvwCDJbSMkSPvA19DdLmE7gbwM/N9qUKlnc1CYcWv8XZp9U1AUTzmw9WnfCWC2zRY+E2eo1CrzAM/XyNFt9lB1jEefNVm80Kt6AzZYaV8zW0jqewPtmqy2araFotrqjaWkVsxSY2TqKB3TGj8nr0Gy9g2bLVFb69lLaWSsyQPPbC6P1YAk6u9Uc3hNtFkNxOtO174xoL742fOJJ0c73xAhxZsvXCI0Y1gnjRuWSdw9fhKmjnvEr09sSc7aHNluo32P7qBKbrRjFcbO1Eo2KR3DcbD273hM0f7F3SLOFCWqrOVlZgczWJDQqXsDzZqtrO0geMwyS+qHZ6tw6ZlneqonrZusNNFsL8WDO+DNFmi1z2eBWdwgT9M7B89C2/O043RwGmsr0+ncPXRDtyWzRfFziWZimz6OB0sbbDiXlmS19/FJkwNCU0TVa+liv7z8r6ubGotnqPRq8QN5mq0NfZcdYxHmz1QeNijdw2myNRaPiBdhshYbM1q1bt8R1W4VBq1at2GxZgM1W4aEyWws/0a7bar72tLhe62+DPjeVnYJH6MwXmiU6E0Xt/c1VXmZriTgrhunJDzpLRvVstgqPPM3WEx3joHSfMZ7AcbO1qi94BefN1gZP4LTZat2tBkxeVtcTeN1s7erWHvaMHQ7J/XpAUpc2McuHrZuy2SoklGYLEddkoWGi663ipBHSy+irwRdmf53bNgKz1QxNm97eTCyaLdWxPBZhsxWh2GyFFm3ncWhUvEALNlshIbN18+ZN8VViYcBmyxoFYbbmoNlahAdzxp+paLZGotkKLK8ufm2onXVacOiCKKthKpt44KzRVjdX6nnNbOn93jtMv24saczrLEjRljGPzVahkbfZ6oRmq+/YqABXCXx3v6yss4LzZisOjUo00U5so04jVXXhcd5sbfQErpit5WhWLDC43Z/E5zmJzI2i3nWG3ieWPyjE8sls3bhxQ5zdKgxatmzprtnqLs1W/56Q1LVtzPJhm2YFYLb24MH8EhPA1HWfS7PlXx4/Ursw3vdEc/ggsMz3FLx/JLdtKbo1RKN3c+fRbP1tYO58/Kj2QF9B+p4YaYxVvVwFrQzH6rd+q9F23vaDsWe2FMfyaOGByg+Iz+yhXqOV9Waeqdc4L7PVDxuOswx+WjJgdMoo2+XSV7S7q56qzh8xnjBb6vq8sGi2aDkdtMnQEmZrdT9QMvJx+d7N3KNu6yjaztpppKouPBbNFo3fX5sMLWG2nkOzYuJ//LaFRplHNwS1izasmK2RI0eK99OpUye/5KWCzNaU5fU0pJnx508weZlW31GaLX3eOaqJRFxnSF1FnQm5foNDLJ/MVk5Ojji7FZYTM8Xy4o8q2lJdscBtUBFybgS0UxDObD1TAv/79xvTB+1WaG2eoa9r/Oraws9Xr4qHW+v9hdnqgWZrHJqtAWi2uqFxscCTxYvheP8NuxR1hUWkZutvf/ub2D5vvvmmsl6HzNZcNFuLj12KnH9p1yyZP5cHB32hbuswbcvRGaWnYCEaHFV9fpiWqJktVV1h8GYYs3V/zXGf43YvKNFnvBH5/8RcCGlmS308/9P/BJ7B+ws83Efd1i3+apitMWL+7nvpBw//Dx7uHdzWmtmKw8YW0czW/yjr1Ghm6876qjp/qJ3vHjRbijor2DBbZpTGy4rZmjZXm0/soJsvtw1XgZgtM28jQaLtPP65TX7cK/to8wuMMQLbRRstXuwT0mx1GL34O0pSutkyE8p4CbP1IZoVQpqZOjO1+Y5tdfP1p9w2rqCZrXJktpT1Et1skblS1JPZys7OFme3wnJihljetKOBbTcYB9hjx3JE2cxuz2rboMK0gLbBWDFbFy9dhitXdkIJYYJ88J8ff5JmqxxcunIF6zQuX74MP/30k9FfM1sd0GyNQLPVC01LO0vkmi11fWGQX7Olc8cdd8B7770X1M5Js1Vp7ml1vYtoZssHHxRxs1XANzX1iy1kNfJ/ET8Js6U4lt99r/aZ/e7RavAwmZn2cfB/StyrTSvaFxR3/5XMlk8zfQF1z9TPw2z9s1N/eCRuvGU0s3VvUPkDL96rb1SNx9uIcr8yRNX2rnbaGNq8f50+vhUiNFtmDOOlma3+aFQUjPyHaD9tbm5ZYg1tjKNynqbN6O2OdrjHr1wfo6KpjKhYo4HfuGY6jcxdbmBdpiwPJEKzZeYj5E7EgtnaBGV82sFPn6dpM+NkOSXgMnfXDFlnLvfdPU4b79FaYl5fppj+3y657RB9jLj/fcSv3BhDEs5s6ffZUpktM2bj1QbN1lQ0KgJpZuqi2dLLOlXXtssQNDhD5ZktOotEdX5ngKpWNMrKtfE/k0p9g9oTVSsoy8k4+ZdpZk9fv/uMckSOQZDZysrKEme3wnJcmq0j/m03dNXunH0kM9uv/DlplDKzcstUWDFb585fEHUdSmrLIvOl1ZWFc/KAQ/UEPdxa7y/MVk80W+PRbA1Es9UdjYsFDLOF0yWLaZ+l4JGqWpvaD+eWITu6tYXVz90lpj+kr/2wzcB7tHXfSWYJ5/V6g0eqGMuzwodtnTFbZsh4LVu2TLRz12xthxIUm/8cBYtwvlQp/BzldMmAM5TvHbog+sSP9L/PVIvEM0bZxJTzoo1usAY01w6OOpXmnFKO4Wu0QK6PPdhshZT/9vXHMF5ktlTH8mLiOrX/gdJ9g+v+r9zXdX73aHNRXrpBBTH/++K59b97rrpf7nu411jRtjiO8btHnvQ7xtz5F9OZtEe0MR+oou0j1O+vT2q32dD5Y63hxjoReZutzmi2+mFjiwR9jUimCsvF9D01xfS9j2t1D+B06X5xYvrOBrljaH3RsOH0Aw3KwF3tzeV44MR5Kg/slxd6fyd46p9P/Cc7oT8oGaWZrXg0Sqoy3SAlivoO2pgPVxLtxLTvHjF9DPuY28eP6iDKdeN1LKB9fA3NqHUepS0z3HIC0cZxhJMvvvgiTHj+Yz/Mxkfn3gcWiLo2d2sHpTZlqO17Wv0fuok6PdjblNkE/R7TTFTZxzbJMUtDP9HnY/irNG80PUG28/2hqxhPH6PsYwuCxhB1ol3uesQ9r9UR5f5eRRvLAeiC7jbd0Wx9VF9j2P2iXJgtRdnQ9v8lpqd8SHUVTW2rw/3V0Gxhez1RdJyJbWZJ0/XQ46Lu/mJ/giGztHHvl+2miOVggsHpckO15eoGr+7QakY/0U6ui++h+0W5vixtfeoLs5WZmSnOboXl2HSxvKmH/dt2lYYoI8vUFpnxnJYMMzKz/MoDsfs1YplxO8RBJqiu/Uq/vgSZrd09O6HZGgV7BvaB5O4dLKGbrd3dXxK/CuvXvB2WN4Z/Plpd1Dc26jvA7Mf+LC7CXyPN1Iqu7UWbQdJs7eqmjSnMxp/LoXGiPlqd3tYK7zdvJPq4xcsvvwzz0GwtwYN5xCi+RnwfzRPVDWmpGaL+Q8oZ5UbZhvPYZrt2c080YWQotBt9PgWLjlyE6e+0g5ZotqZL8zQJzRaNqZst+urQPK2vjxjjCTR1Ry/BULmsSQe1vnYgszUKzZaqrjB4C80WvZcY4TAeS34JPI6X7tdOixUyUQF1f31S+6z+XLeXmP8/JTWDdD99zddIM1u+u6vDw3H9oLjMA3+s2xMewDoa8491Roh+xcnU4/xfWo+Bv1bRviqkrynp68D/I+vI6BlmqzeaNOxnnNkiEyjXSceC2RqADSdYRmW2Svdr418muRfbl+7XT0zf2UDrr7e9q33w2KLfPbX85n//Yj+/NuFw4MzWBeRJRJzZyk4YgEZFgWGsgssScbqz/5iSf2C7hmLar5/RngyVLJtbSbRLDGrfUcx3HmXuFwgtR2+fSz7PbP0bqYwI0XbWzYpOsNkqbdSVlUbJn5qiTuxU0ngRVKebtAll3oN7/1Dar994KpeGKk720cbPXR6NqY0hYyqA1iaz1bJS/s5skcEyXwtEZmsaGhWByVgFlnVEQzNMmq2pOE11umGiM09DZZkwQGiu9P6aIfqTMEPTZqEpe1g7O6ajjaWZrQpotqjPM8IAyD5m5Lroy9JNmb4+ZLYyMjLE2a2wHI0Xy5tyyL9tvDRV6RmZfuVdZBJMz8gtU2HPbJWBi5cvw3fffRdc12a5OOMTeGZrdy80WxPQbA1Cs9UDjYsFDLNF08aZrf+Gld3RHFGbOg9rMY08/kh1SMKyNc9Ls4XGi9oM+n/a+u0is9RDM23aOLlMl22t8FG7Fo6f2erYsaOxvejMllNmi85sqer1s1h0HRfNVxd3YQ9cr+ZotrRbH9DZLHN/e2ZLfa+q/gfOGuNZJRrNVpSf2TqMPIgIiTNb/fH4baJ0//5anru7hl858afbKC7QFNExn9p2rCvi6i/CbGn/sN5PxkjRtjga7N8911ObJkMlxy/dXzN3f241Ssz/9SntDBYZqgeqSrPVZ5yoM8xWnP96EXmbrS5otvq/ahnja0RTWen+bcUK3NXBv61Wp51VubOBf9vfV+of1JbKhdkyzavahSJCs2UYLLM0szUQjYoCw2zlltE8QdO55snUR6D9B1qxYye/ct00GWWGcQts30nMdx5l7qdaTjARmq0WSJBoO7/6/Cd+6GZLzJfpJqbvfeA9Ma+bIXN7HXFgQrOlz+f2e19Ml31MG6PWH7QD2wRq91htMd1P9gkcn8bUxtDMVq0yHxt1gbSs1Ne22Qo0WGbadH8Jpq14RWO4NFuz0fTIMv3s0dSPXoFhHaTZwmmjzwr9tDeaI709mS2//vdr7bBvhWHVRHn9h7Xto42l12nL1cxW4HIQuX5DyXjhfKca/u3IbKWnp4uzW2E5Is1Win/bI/Ha9Vkd16T5lRcX76ECpJvKVFj9GvGbndqB/OmxX8LVq1flNVva14h0rRZB121Rnd5fM1udpdnqi6aloyVyzZZe1kQ7M+VX1lGc1aL169ccTVMd7R+GFXQmC+tyzRa11cxWHLUz9bfDR+1aOmK2evTooYxrMltvbt0DS49fipxPtc+oMpqtoLp3tV9Z69DZphrCbD0lzmT5t9eM0oODv/Avl2NMPnRezLeTBovGMk+bx2i5/kxu/wiJX/85jH53kbKuMHh7R1SaLT+DZZZmtoKP5cVLaLno4b5kZHLLNQOVW64brL/0GmsyW2SM9LZktvQxyWz10qYNs0WeRPu1559bjRbzuWZrgslsjRd1uWYrd510nqnfxH2zReBwQVC5brbMZeZ5QjdpYr5gzJbSYJklzNYaNCoqRmtmKBBhikLU63WB5fHzQo2HJkrRnug8OvR6GOsQgA2z1UObDK08zVbgvP61nwndiFGQq82W+qyUPbMlxw9AjCGxarbCGSwzKrMVyH3tNIPkb7a0RJGLyWz5lesmqqLyvZnNllEWtB7a2E6bLfMyUtIzRJ1+4Xoga9LyHteq2aIzMBXl/Hf//t7PbP3nP/8Rn5uO3l+Yrd7SbA1Gs9UTjYsFDLPVM/CMFJV1lF8j5pb3a4EmqpX+M31/dpFZwj4lFdtop6yzwkftIzdboQyWGc1s7cWD+eXI+fS1oG3w4ODNok6c1frnaFgi24jyd/XbJAS3F9d1mcpbrj+rHJ9YdPSyYbYIzewFj0HQmS9jfS2ima3Fyrql72qXdkw+dFFdb4MZciz6ilVVr/P2jpRoMVshDZZZoczWA1X1r/bM/AUebhiYJ7VyMlQFabaIP9YZKcp08jZbXQfCIwNes4xhthR1d96jX9x+L9zbEU2cLH+gUlmt/J7aQW1/f09ZoyywDc3f2TB3nLywaLYsSTNbg9CoKJjnf51PxYefgGMBbY7Na2Rce1WxRhW/us4Pa9deUb+823c2yhPnDRKvnUfnjhVuOWYsmi1LEmbrhX/5oRmeR3PLHpfXTj2Opgbn+5d91TBg997d3WgnEiSZLTmv9UGjRH0e10wVjdtfjjeB2snyfrJP4LJpTGG29Po/PGaM07bs+0Y5YcVs2aFNj5cgfuUrGm/4X9h+/0P3w7CV9Y163WyRsaH5Z+RXgtRummyjn9mqX0OrqzC8em7/EbqJ+hMMlcZJH2tYB1mHfbW2jxsHo/r6GLL/0BXaOnWWZksfg8wWvSf6KjEsR9YFHehSUtON+mldOhumseOUKcb0ITRcfuMEEM5sdRYP9i0jzBbNX0/oJNah5UL9mi3NbIUyH2S2ktBs7UWztRfN1h40LVbQr8lKoul7tLNXj9/9ECShOaL6tXUryDN3Puhfu7HRb+3zpcX6Pf5IOeNMF50JM8bFsbRt+N8ws2VuPyusiNBsWUU3W8vwYB45S4O+uiPzNHOUdoCciiaC2mlntNAkofGZ+elSeKi4ZqIfbDQWlh67ZIxXvYx2fdeDT7SAJUe18pnyflQPNkLj9o5m1haj2aK60vKi6gEp2nKIGqZ7VQ3c9JVRbofp0myp6pZJgzQl5by63gYzR2tniT+Q2ykU86PHbFkSma1H8ditpNNA+D9/kab47r/A/7TrJ8of7NQBfl9Mi4vfPVYTjY5s31iLpQfQJNH8f0mzpddrZqu3Nk1m69GWWr8BHUQc3NV6jJjXzVbpuFfhQWm2SsdpYxL6Bfp/QQOmlxHPWjFb5g6xTIGZrRjEabP1GhoVL+CO2WrgGJrZ+oeyzm3IbNFZDzq75SyH0ZCQaSkHqcp6jRYtWoQ0WwSdtbp06ZJx1opu7aDf4oHOdlFdWLPVpwvsfXU07B0SB3vo+q0YJTbMljdhs5U/CbM18HXwAs++kqfZGqTsGIs4brbWDgav4LzZ+tQTOG222qLZmr6qgWPoZktV5zZktswXlRc0eZmta9eu+d07i9aV2lE5Teumy9xHh82Wddhshcaa2foKSoizrU/B1EMXc+s/XQoPl5Fnbp54CqbJM3TLPl1mnNFrNW+rKPMzW5++Ls7E0G0sjLEkbLYKDzZbEUozW0PQqHgDp83W6y9+5glaVYqLarNVmES72coPwmz17Qp7XxsDe4f2gz10/VaMsqJDK9fN1ltotpbjwZzxZwaarTFotlR1y6XZCoS+IqX62+gxPX51T8GSf2lGyq/s2GWYZTJbt9GzE33NxTVagct8JxbN1qCJ4AXyNlvdBis7xiJstkLDZkuNG2ZrxqqGnoDMFp0l0r+mK2jYbFmjIMzW+IUfwfTEzzzBu0lHYPkJNCcOYJgtRd3yBZrZmnrovJifNVq7PcXAg+eC2naooF143bqs/OUkGTJT/awxmtmqVEK7r9RiNGDmep13drLZKiwsmq1JnsBxs7UOjYpHcN5sfe4JXDFbq9GseADPm624brD39bGwdxiarT5dYpYVHVu7arb69+8Pc+bMgYULF3qCKlWqKI1KJNgxW/q8brYeDTqz5YMqpeii7qdgCZ2pMo2lm62WT2s/IKDrwMz1OrFpttTH81jj2VeahjdbT3YfDI8NnuQJnDdbQ9GoeAOnzdZENCpegM1WaLxutpLjusM+NFv7hvWHvX26xiwrOrZx3WzRjw1+++03T1C1alVYd/w8JBy/AB+iQckPZLbGotlS1X0ozdWDjUeJ66kekfeIWnT4ItYvhRJkntafEW0fkcZrkHy8UMu5m0X5S+XKi68LZ0uztfDwBShFd7/3NYdl5mVJ3g1jtlC/xzGiSmS2VMfyWCRvs9VjCDw2ZLIncNxsJQ4Dr8BmS004s5WcciY5zZSsrNC250swM6GhJyCztWPHDti5c2eh0LhxY3fNVj+T2aKvFGOUFZ3YbNmBzNanh7+GTUdOBZkVu1gxWw+J25TIs1eNFxj1pcS1V7lntYjFRy6hmTKXPxVktvRxK88NXv+YNFtD1MfzWIPNVoRisxVawmxV+sITtKoc2mylpaVtRfwSVl54zWwdPHgQUlJSCoUmTZrAp59+6qLZ6oFmaxyarQFoWrrFLAVhti5evAi//vprgXPb+gaQeeuWsi5SyGx9jmbrkyOn4aMTV/LFzPVfoNlaoqwrDBbsPMRmq5CwYLaGYsMpnsB5szUcjYo3cNpsTUKj4gWcN1svw8w1jTwBmS06OBWWWrduDbt374aTJ0+y2QpDQZmtW2h6zJRCI5Rx80ZQuc7t6xvB2hs5Ypra+hIbwOEbue31snRTWSBktkT9ldnYNh5uYNnH+5qKfgZbPoKbennydjGtGkuHzVb0SDNb6uN5rGHNbA3Fxh7AcbO1fgR4BefN1mZP0KpyP0fNVjs0W7PQqHiBaDBb27dvh2PHjrljtvr3hH0Tx8O+4QNhb1z3mGVFp7aumy0a++bNm36QWUpHMzV7axOY+tM5KLm+IVRI/hBuYN2mvbmGaOpPWaLtmj2NNTOE9SdPDBLTVJ6GY/Tc0AQ6XswUdbfjOCk5OWKazFYaTtOrNl4crKexN2vL0dsk5GTBJmG2tsEbW7VXbTmD/doSwmwdkWbrJJqUfDBzA5qtBWi2FHWFwYJdMWi2FMfyWOTZBnmarWHYcKonYLMVGjZbathshYbM1i+//KK87qUgcP3MFpstS5DZOnfuHOSg6TFDRik1OxtmodkiE5SZfV6UpWRliXo6s5WQlWlquxNKoGHKyM6BFzc0FnVUfj07C3qg2epwMV32awgH5RhkpKg+5/IsXMY0yMKyjf//9t4DPGor3f+nh8393bvl/u+WuzeBzWY32bRNoQWyobcEEnoHY3oAm96LSQFcqCG9B0JCxxjYFMCE5gbuxqZ3SIHg3iDh/Z+jMiONNbZnPGMdyd/v83webOmcozMezcyrDxpJKrbWUzH7mbfhYw0/ny8vj/2WSn7aTHXYdvKV7Sy9Lo+rohZbX7JiawMrUKrCSlZshbBiy2idGXxgyWLL+PPcalRYbD3x0ix6ZFaYLUCx5R5fF1tL2+yzBYN9XWyN70yrtvW2BSIUW/48QT5+yng6tuRlOjZnGh3l/6VoUTaOHOb3Yuv06dNUxAogLbxQyi4spOWs2GqWfkJaxguszQX5ZX6W2xZIy5Z8v58VXUGUr1k+hhVFAedypbYNWLGVWFCg/NyDbrL1RRdWsGIrjArYsqh4udgqZD/zNg2j+Jh58vLYaGXbPWlTQZ5crLE58mUqNbXYGjJv7V+UtzZhwosto89yK9KyZ6WKrXBb4PNiK2ou2QUUW8ag2HIPL7b4OS7ak4urk0GDBvm/2FrKiq25rNiazAoXi7JxlP+LrZMnT5a5UTgvlH7Kz6dl+/pQk7QsaRkvpjbm5Tp+Xvxdjq5tesZU6b8D1fby8jxpjFox0ZT/w0bJSh1j21XX32DrC87zYiuIctmyyDhWVO35jPKln+XxbrKxpeUx+6R+y/f1pSZ7ghzt+DKVmlpsiXqdLaPPcivSsmc/FFveBMWW+/C/c2ibaFswuM1kt8WWN9fZQrHlO/xfbE1Qiq3prGh5ybJsHBVQLcWW643CpUKIrZeKrdRMaZlUbOXmSD+nnVsuFU4br+U42ubnn6Z6bJn8szoGv9n5afZzT2oSs45aRfWmo7nyDdD5+uvS+nxqxcauFRlK23hRxcaQirY9YZSjjKUWW/zn/O/lou21a9ny7xp4sbVHKbY2sgKlKqxSii2jdWbwoRWLrdns89sGVFxsjZ/NGkbYAt8XW/NYoWIPfF5stWXFig3wdbEVML4Lrd7exxbwYoufUMz/K9EMUGxVjuootk6cOGG4zoo4iq10VmyduFIlVu3cSyEfsGLLYJ0ZfBhjxWLL+PPcaqDY8jJSsbWTFSo2AcWWMSi23MOLrdJyvpbvbwYOHIhiqxJUR7HFv6RgdJV/K4JiS5xIxdYc9vltAyoutibMYQ2X2QLfF1vzWaFiD3xdbIW13W8LhrSZ4vtiK5IVKzbAk2Ira9cKql27tnRl62U7jrusz6IxrVoS++M61ld0LSSOv4uthKkT6VjoK3Rs3gw6xs/fsiibRvu/2MrMzKScnBxboBZbX7FiaxMrUKoCL7YWsWLLaJ0ZfGTJYsv489xqtOzZv/xi60lWbD3KGtoBFFvuQbFljD+KrddZoWIHeLHFvyqvXp/IHZkrWklFlJbiUmV9JivCXNbJtKAStY0bUGxVDn8XW2PHjpXeW+0CvxE1ii0xwp6PW0af5VakEsXWXNZwuS3gLyQUW8b4vtj61hag2HIPL7aKi4slu1Uey1vK934rLim7rm4d2XYVadZFjaknLQtPL9K1dcXvxda0IFZsvUrH5s+kY1MnWJZNo4f7tdiaO3cuf43w6zTZItxs7WPF1jcZKLbMjlRszWWf3zagZa/KFFsGHa2Iz4utXQvILqDYMsbnxdYEVmztYMWKDeDFFr8ukfaCkIZEjVZsVS0asT1ds+441anNlo/YrlmmXb7NZbkeFFuVozqKLfa+YXgtNCvCi62DaZm0NzXLsGDxBBRbVUsNLLZW2AIUW+7xdbEV3u5bWzCkrT+Krb62gBdbhYWFkt2qiIwdy6g2L6CUoqugiC/fIf0XYvOwVJf2GY5iS79cD4qtylFdxZbR5TmsCC+29qadoK/TT9FmVqBUhdWs2HqZFVtG68zgY0sWW8af51ajZa8BFRRbE1mxNY81tgG+LrZKdi0ku4Biyxh/FFtrWKFiB3ixxS8Cqb36dkWkR8jnbwVu41cOT5eLquah+nbprDBztNEsd8Hvxdb0YDoW9hodWzCLjk2baFk2jQn0e7HFnwd+OQ4tu7NWSdeyar5vGd3iv/Pb5cQdktbxq8DzW/iU3Ha2bx3VW7o2VtFt502oORGXzjnaGLF6Px/3oON3flX41FulujZa5PXuL1kiFVvprNjKYMXWSVakVIHVu5Riy2CdGXwca8Fiy+Cz3Iqg2PIyKLbcRy62DtiCIW2nothyAy+2+EUgud0qj5Z1n6aU1ALp58hRLaViKzRZ7teqbh25+ApNkdunRcoFGFuWly/3cQeKrcpRHcVWbGys/gsMN+X7DxaWltKuzJXs3xL55tPKjaZ5MdU8sqd0E2q5TyzVZcUX78NvXs3Xp5SUsHEuyjewzjjjHNuFVZobS3N4MZVcUqxrYwS/jQ+/QbXrchRb4qSGFVvzWMOVtsDnxdbuELILKLaM8UuxFcWKFRvAiy3+mLS3OjGihVJQOWi6VLe+jnJJCD2BZW6j4oq/i62jrNhKZMVWIiu2ElnRYlU2V1Oxpf8CwxHpptKBGQepRFm2U7o34QHpZ15M5V3gN4+OoGL2O79ZdeAF+fY7eaxQkoqtYuXLF5dWSRasSBnHFelG17HfOn6Xiq1i/uWKC1RfsWMSShu+fnMcvzm2vHzp9QJHXw6KLXEiF1vGn+dWo+JiK4gVW/NZYxuAYss9vi62IlihYgd8XWwNZ8XWG1H9bAEvtvhFIF1vd1J1tjvO71qaJN/axYgBAwb4t9iawYqtcFZsLWTF1nRWuFiUzWP9X2wdOXKk7Hl11w9JVooXNEmFhcqNoPdL63gxlVNUKP3L12l/1y6Xx9kkGy/pPL+yrJCKrWjH77yYSiwsYD+fk279k1tURMUXeWEXToXKen6DbG62NhXmO/qpaIutLaxAqQqvK8WW0TozKK/YeqTnq2PldzZxIhVbBp/lVgTFlpdBseU+crF10BaUV2zd/3zIz9o3q8qAYqvyjGzRwuRia5Km2AqyLJvHjvB7sXX48GHD/+rljInqTc3SsmiHVGxFS8t4MXWzoEBaJxmmPZ9RgWO5fM/DY+w55m2lfpFhlK+M54q0XulfWHhGKrB+YmOoP2ez7RRKN6qWx+DFFl/Pi62N+bm6sThysXWSFVunWYFytUq8vmsfK7bWGa4zg49jU90WWyx3K29twqSGFVvzWcNVtsD3xdYiVqjYAxRbxpRXbLE3qGjtm1VlkIqtnaxYsQG82OJX3DZ6nNUBiq3KUR3F1sGDB3WFcFr6VLmIUuA3lpZvBB0trefFlHSz6e83SNZqsXJDaHU5/1fb/5hys2lj5JtXO9rvWUd5muU/8e2cW87WhVIuW86LLX7z6jFR8n8lut6MGsWWOJGLLePPc6uBYsvLoNhyH6nYas+KFRuAYss9vNjKzs7W3VeuOvF7sTWTFVsRrNgKYcXWDFa4WJTN4/xfbB04cMBwnRXxdbH1Ciu2trKfReATFFumUXGxFcyKrQWssQ3webH1b1ao2ARfF1vL2h+yBUN9Xmx1ZYVKf1tg/2JrMiu2FrNiazYrWoItS3UVW0bPkW85IJ107zBYjCYpGQbtqgYvtvaxYusbVmwZFSyesAbFVpUiFVsGn+VWBMWWl0Gx5T4ottzDi603WaFiB1BsWYPqKLa+/fbbMjd0tiootsRJDSu2FrCGq22B74utl1mhYg9QbBnj82JrIiu2drFixQbwYuvmzZuGH1jVAYqtyuHvYmv69OnUo0cP6tevny3g71+OYusUK1KqgFRsfciKLYN1ZvBJnBWLLePPc6uBYsvLoNhyHxRb7kGx5TtQbFUOfxdbkydPpkuXLvEPa1tEZ7YMChZPsFKx1VjU62wZfJZbkcoVWwtZYxuAYss9Pi+2Ohy2BUPbTXNbbL0Q9PYN7ZtVZbBbscWfazNJSkryW7F1bNYUSopYQkmL5lDSzEmWZfO4kX4vti5evGh4U2crwoutQ2mZFM0KLqOCxROsVGwJe1FTg89yK9KyN4otryIVW1+yQsUm+LrYWs4KFTtQXrHl1UVNbVRstW3bhs6dO0dnzpyR3ryrm/Hjx9PZs2dRbFUAii3P0JqtbaxAqQpqsWW0zgw+tWCx9djC18kOtOo9sOJiy6ijFfF9sfUKK1TsAYotY/xRbL3FChU7oBZbvODh/41U3UyYMIEuXLggFXsottxTHcUWfx6MbupcGfhNqdNuub8xdHWDYkucoNiyKCi23INiyxi/FFu7WbFiA9Ri6/Lly9K3A40erz+ZNGmSdO7Wd999h2KrHKqr2Lp9+3YZdvObT2su1RB4sahMG15spV7kV3gPphJpWZx8X0Wl7UtR/L6JZfvtPqofO6W0pEwbI/iV47eWFhuu46DYEic1q9iaxIqtENbYBqDYcg+KLWNQbLnH9sXWbFZsLVvKiq25lDRrsmXZ/NIovxdbfD/Q3sxZRbr59N7PpZtRa3+WbhLNiqxmsZ9L/6YUn5Wu9s5vQp2VOU0uoJS2DXf0ctyUml9ZPmJfH2rGCqGdvJBTbi79LL8lEFvGf866tEW5HlcwpbHx+DJ+1fiIffrizPUG1CootsSJVGwZfJZbERRbXgbFlvvIxdYRW4Biyz0otqxBdRRb/L+SS0pKyiAVWJoCJ7moSFo+lt8TMfYAFf8k32SaL7+LFVVbigqldaHX+QVMg6mw5LxUhOUXy+PxYmv4+VPOsVmxVcLa8GIqlBVPJSUxUqGVxMbbKRVtfIwSaf3w8yelftxsbS7ibcvOl4NiS5zUsGJrIWu4xhb4vth6lRUq9gDFljH+KbYG2AIUW9agOoqt06dPUxErcFyJUmxW4Y9yUZVdWCgt54XV5oJ86Wf+34iJBQW0PLoPNUs/If2eXVgg/8vvabh3PRUq4/Fi6yZb5xibjckJOHdSWlZ0Qb7hdIHU/rBUeOUW8m04+/Fia1NBntzeABRb4kQutow/z60Gii0vg2LLffjfeQUrVOwAii33oNiyBtVRbJ08eZIKWMHkinTz6T3rKZ/9PIbbrJhoaXkr9nMT/vMPG6Ui7Bgbp+A8L5R48RREuUr7Jnt6UsDZbMd40o2q81lb9rN8Y+t9jnUSynhHWZvIOH6j6TDKY8t5saX248XW4u9y9P00oNgSJyi2LIrPi62vWKFiE1BsGePrYiuQFVtvs0LFDqDYsgbVVWzl5+eXQS62PqM8/vv3G6RC6Cbrk59/murt6MkKrnVS4XWU7T98GS+mmqRGS33T0qdKxdfRPL5OHk8qtpTf1WJLXaeSlr5c2k6tPUHKtvKlYuu60i/tnLx+w7UcXT8VFFviBMWWRUGx5R4UW8ag2HIPii1rUB3F1okTJwzXWRFebPELmu5hxdb2U9eqxBu7oulVVmwZrTODtXFpKLZMouJiazIrthaxxjYAxZZ7UGwZ4/NiK4gVW/9mxYoNQLFlDaqj2MrKypL2ATuAYkucSMWWwWe5FalEsRXCGr5hC1Bsucf3xVaMLRjabjqKLTfYvtiaM5WSlodS0svzKIkXXhZl8/jRfi22+PMQGRlJhw8ftgU1tdgS9d6IRp/lVgTFlpeRi63XWKFiD3xebHVkxYoNQLHlHhRb1sDfxdZLL71E33zzDSUnJ9sCqdjKYMXWcVZsnWZFShV4Y7dSbBmsM4O18e6LLZa7lbc2YYJiy6Kg2HIPii1jyiu22BtUtPbNqjKg2PId/i62ElmxlcyKrWRWbCWzosWqbPFzscX/G9Fu90Y8kJZJ+9JPGBYsnoBiq2pBsWVRUGy5B8WWMb4vtp5jhcpAW4Biyxqg2PIMXmwdSjtO+1FsmR4UWxYFxZZ7UGwZg2LLPSi2rEF1FFv83oi//PKLLcB/I4oTFFsWxefF1tesULEJKLaMQbHlHhRb1qC6ii2jmzq7Q7pBddwhw3VG8OtrqVeLr7XvC7pl0KYMl1ex9hFUarSuHFBsiZMaVWw9xYqtf7KGdgDFlntQbBmDYss9KLasQXUUW3zsW7duVZpdUrF1kP18kepFBtPyBPkCpqmlJY71gRfOSPdFLCgtlYqtPL7u5mbpgqR82bh9vaU+gRkHqVQd9yjrd/601M9RnLHxi5T1lUEttvayYiuSFShV4U2l2DJaZwbrLFhsGX2WWxEUW14GxZb78L/zSlao2IFhfii23mGFih2wfbE1lxVbK1ix9QortuawwsWibJng/2LL3Y2o3SHfRPoA+1m+0TS/ifTOeH57HfnG0eoNrPOLi6X2vNjKKS5ytBkVxf6N/ZaKpZtQ91RuQs368SJO7XdpJfs5nIqUbVaWmlpstQ5Y3kJ5axMmNavYmsKKrZdZYxuAYss9vi+2Ym2BX4qtL1mxYgPsX2xNU4qt+axoYYWXRamOYsvdjajdId1EOnY/+/msVGzl8BtUKzerzivUrpfbO/4bcW8Q5bK2DTU3sh7LCq+Ac7macaPlfrqbUleemlpsiXpRU6PPcitSiWJrEWv4pi3wfbG1mBUq9gDFljHlFVveXWcLxZavQLFVOaqj2HJ3I2p3yPc15Dellv+rkN8YWnvjaOd6uT0vtn5SbiTNeUa5qXU+68/XbczLlZbrbk4t3dhavqm12q8yoNgSJ3KxZfx5bjVQbHkZFFvug2LLPSi2fAeKrcpRXcWW0U2d3aEWU9INqVmxtTR2smSujrHx9Ovl9rygUm9ArdJqRy+pz7AzWY5larGlbxNKucrvlQHFljhBsWVRUGy5B8WWMSi23INiyxpUR7Hl/Y2oT0nF1g0T9h93oNgSJyi2LAqKLfeg2DIGxZZ7UGxZg+ootmx3I2oUW0IExZZFQbHlHhRbxqDYcg+KLWtQHcVWZmam9FzYARRb4qQmFVsD+AennfBZsdW27WWj8a2KT4ut1m1KjLZhVXxZbBmNb1U6duwgvWmbVWy9+aZ8AOUvOnToQCNGjKAePXoYrrcSu3bt8luxtWLFCsNtWpUXX3yRlixZQnPnzjVcb3U+/vhjyxRbrAYpNXoMVmX//v2LDYstNexD+GmlSLELVS62eNgO2zA5Ofl59mG8wGAblsNXxZYao21YGJ8UW5wff/xRuuI2f8OzA2YVWyr+MFucmzdvSo+P2zvXx2xV/FFsqfD7I3LDZRf4f40a/Q294dSpUz4fs6pYodjiYe+9d7PPppku78dWxn2xFR8f/3hSUtJ49oDHWh1WGI1jDFMeWpXCXkB3sT9aOzbeS0bbshrsOeaP4zHl4VU57O8SwMYbZxPGKg/LEW+LLf4hfuXKFalIsQO82OH//WL0WKuDH374wXBevoAXxbyIMFpnRfxRlKpcu3ZNKirswpkzZwz/ht7Aixt+LTKO0XozcC28RS222HNxF3v/HeDyfmxZ2OfswE2bNtVVHh6CIBXF22ILAABEQ9RiC0GQGh4UWwAAu4BiC0EQIYNiCwBgF1BsIQgiZFBsAQDsQtMBS7oob20IgiDi5KkBS4uM3rQAAMBqsNytvLUhCIKIE/YGFe36hgVApUnZSnVq1aLFR29Kv4+qX4/YbqXjZk4u1a9Xh/0cQDmOvtuoTm22PmCDc6y8FKpXpxYFbLihWQZA5UGxhSCIkGFvUCi2gPekhFNtTbHVsl5dw2JLLcL4z7xdSnhLx/rsHGWsbaOk3xNuZjvHB8ADUGwhCCJk2BsUii3gPW6KLUcBpaAWVxt+kgupUQ2cBizhpnx9s/CW9Q37AlBZUGwhCCJk2BsUii3gPRWYraaLE5S2KVS3tvP3+nVrU8CGDdJ/Qar/bdiA/1dj08WUK7UHwHNQbCEIImTYGxSKLeA9lS62WIHlKKa2SUUWN1rOAksuxhYnyOMA4A0othAEETLsDQrFFvCeSv43Ikf9b8JjYfJ/KfI2jv863CKfr3Uj27xbJgHr0xjX2UIQRMTg0g+gSnhQbKknwDetXdv534XqsqZsme7bigB4Di5qiiCIkMFFTUGVqOC/ETnqNxDV87b4MuflHZzLtP/lCIA3oNhCEETIoNgCANgFFFsIgggZFFsAALuAYgtBECGDYgsAYBdQbCEIImRQbAEA7AKKLQRBhAyKLQCAXUCxhSCIkOHFVtiHX5GWw4knDN/IOJ/tjNG1rQxG46gYtS+PlMwLhuNwPtx60LBPeRiNw7l+46Zh+/I4e/Ga4Victzd8a9jHHSs/3WM4Dufqd9cN+5TH5Ws/Go7FWb12r2Efd7z1xX7DcTjnLn1n2Kc8fvjxJ8OxOBEff23Yxx0fbDloOA7n5Lkrhn3Kw5dzW7sjxnAcztG0M4Z9yiPb8S3Psng6tw274wzH4eyPP27YpzxyypvbR57NbfeBFMNxODujk3RtG3VCsYUgiIBp1GVui0ad57XR0TrkN8rqMmnUKeTBMu0rQOlqGKP25fF/Lab8SulaJo06zn3cqE95KF0NY9S+PFiX2nLPsmncaf4/jfq4hT0vSlfDGPYph1q1+BUajNP4udnNjfq4hf2dla6GMexTDuXPbd6zRn3c0mH+P5SuZcL264aGfcqhGuf2G8M+5eDLud3b8dW/KF3L5C/dF//BqE95sG4+m9s9HUL+V+laJmysRtq2/9cp5HfKKgRBEARBEARBEARBEARBEARBEARBEARBEARBEARBEARBEARBEARBEARBEARBEARBEARBEARBEARBEARBEARBEARBEARBEARBEARBEARBEARBEARBEARBEARBEARBEARBEARBEARBEARBEARBEARBEARBzM3zm48sen5LDNVEnttyeLjyZ0A8SOftsY2N/p41gee2xOxX/gyIh3l+W9xHRn/TmsBzW+LaKn8GBDElL2yLvWC0b9YEWu/fX0/5MyAIUkPz3JYjzzJKjd4jgP1gn3lX+myM+ZXy9COC5vnNh+fidVmD2Bq7vlvUsbuVp98/UeXW94UlVFOS9mOu9AeG3PIuqtxaf/yS8hetGRnxZSLkVhWiyq07yt+zJmTPhR+om/ReA7mFmBsut2YdOE6/1KAX4OrEs9LrD3ILQRBVbn117nv2PliTKpGalwWHsqgH5JYlosqtC7lFNer4oCam344EyC1/BXKraoHcQrwJ5BaCmBfILQRBanIgt2pOILesE8itmpMaI7cuZyY7T1WL+0lZ6t9AblUtZsity3k/0aa4ZAr6RnNqIyPom5O06UqR0sq/gdyqWqpVbrnZX57/hi1j7zOX8pR2fg7kFiJKqlVuXTlF3be6vPYMiLh8h35RuvgjkFsIgqgxV24V0ZWrV2jlnhTqrnsfTKaJsTfoPHtjdj+jItq6N45eUPpMPF5At5TGV/Ju0pb4FJrEah3+XqeOO/GbE7ThciH9XMHDNJoT73skp7DC9+YrWanUY5vSJ8M5JylXT1GvbbHKmCfoEJuIP9/rXQO5ZZ2YJbf4vr96bwq9oKlVJnydTOGXCugcm0j5cymi7dHx1EPpOyEjn4rVHTz/Jm1PSKXJe2L0ddDXSTQh9jqdyWGvBQ8e6NUTadRHfS3FXKfCCl7U2vZ8XkXajV07Tf22O1+X3976hX5WVlVHbCu3uKRYxg4w5T+sC5Bblkj1yi22v2j3kXIIyvSv5ILcqlqqT24V0SZXqWXISYpVevgrkFuIKIHcQhCkJscUuXX1FE1lB5pa8VSGby7ROXdyi/Xv6ZBEyfRFjnowepNWsYNUvSgzRivD5OhlWXmU7atJ3hWayubQjc8r2+ggWT9HSYBVk+GC3LJOqltuHT0aTz0rUZ88//VFOn3b4HV59TT1dQiiZFp/82fNa0Qvvdxzgg64EUtX82/S6n2p9OJWdRsaKiG3KP8qzYyMY6+7JPpMNzc1N2nNjjh6URlzQrqLAPNj7Cm3rpzUPUlBrpILcssSqW65tcmttHIVX8m0yY9n5EBuVS0ifC2RnymqLTK5EPXnfCC3EFFSnXLrclaKU27F3ageoWYQyC0EQdRUt9xKSGAHkJqD3PBLvxA7Vq50pDOjHP1P0GHd2U83aWtWkZszs1zFl1aKVTyv8tbzdRUeuMfeoBLHm745ggtyyzqpVrl19TT1cYgplzOueCpYz8+K6q2crSgJqtuVP/NJ7us6tssjvqYVZ6zN10msltJILjdyiwu7Xo55uYH1LXD0NUdw1YyvJbrILsgta0Sca265yq2TFKes8Ucgt6oWc+VWEcW5iK3nv7lM/t6DIbcQUVKdcis+3nkwE3S8EHILQRDTU61yS3fGlSyILlzhXwHUSKdvkin8+A26wOZSZjb8rCjNGV+eiTFXuaUVY+WtU+Iyd8Mzy/LKjnMo282ZuLqvKCbT54Znefk2kFvWSfWeuVVE26K1gvYEHbjJ9kdpw3yd5qwr1zO38q/SDOmMKHl96MWfqbRSEy6ioydSNa8BeexTt3+p+Mx1F9lV4Zlb+TdpDZujKq30j88luq8oujvLy7eB3PJjILeqFvPlVhHFxbl+tdW/Z23xQG5VLdUtt+Li9NegUAmKu0xxuOYWUsNSfXKriDazAzij156WoGo4owtyC0EQNdUpt1zPfqoI16//6fqX97VFXYpYvxSX7erP2uIpM7dvTtBhfh0gto5fh2iKRqrJ67XbV77SKPVXr6WlEV1fX6KzbJl+rqzPPrUPQ3dml38CuWWdmHPNLReRpcXN1xF1Z0dJbdzLKXdnUk2IuUiH+Ouxsg+00nKrWPo6pPx1S/Urj5qzswxlmraPPLbzzC7/BHLLj4HcqlrMkluX2f4SpN1fJPwvtdRAblUtZp+5xfefYJf9B19LRGpKqvWaW3llv0rOr7e5vIz0OkkxRmct+CiQWwiCqDFTbpW9dpXrmU9aCeVyTazYG1Razhv3launygopA6mljf4rj3omxp6goK2a8Sot19xH93VGQwHm20BuWSfVKrfyr+jOvuKvk7CM63SObfuydIF5jYRl65zX03K5llZFZ1DpUkRXr56m6brXu5uvJbrG0zO3PAyXcI6vWVb2bLIqBHLLj4HcqlqqXW657icMf1883iiQW1WLCNfc4l9lXa7bl/x7UXnILUSUVKvcchvXs7qSaWMu5BaCIP5PdcotV3lU9muFrhd1L0duuZNLrl8fZJR7AfhKpuK5exqXM7cgtxBNqk9u3aTXIzWvK8MztFzP6FKvq+Uityo4c8s4bPua61w5z7AqJ36VWy5nbkFu+SiQW5ZMdcotfgFwM/YRo0BuVS3VJbcuZ56kYOmrh3oBejnvMi1zvYsi25/8OR/ILUSUVJvcYq+zFXtOUiz/n1BlEY/hmVt+/moi5BaCIGqqU26VlVdcEhUokqjsOtezs8q/mHxZAVXR2V363KStCZfZe3ShfkyDryT6Qpa5nqVWHReVh9yyTqrzzK0yd0qMvU6nVdGaX0TbEly+qqgRYJW5mPzVE6dpWvwlOpRTqPvq4dX8q7R6n8vXgSsjqvwqt6r/ovKQW34M5FbVUn1yq4g2ucqIcsHdEkVO9cktlwvHG5JMG6vh66yQW4goqU65NUlbwBnxzUm/nrGlBnILQRA11Su35Bh/ZVCD5npX+rh8bVEnrwzkWLm4fkXR9SuRZZnItneebc8XfyXdVxK3qNfp8m8gt6yT6r7m1pWrp2laBfs/f82EXSxwuWC8y5lfBqJJL8DckaT5umMF8aPc0n0lkb0uv63oLDIfpGbILZMCuVW1mH9BeXMCuVW1iPG1xOoN5BYiSsT4WmL1BnILQRA1ZsitqsXljCefnEVVvblyIpV6ag6gq0Ns8UBuWSfmXFDe2+gFl3zdLGWVhcIlXB+HNKsescUDueXHQG5VLZBbiDeB3EIQ8wK5hSBITY715BaPy1laHn390NxU90XktYHcsk6sJbd4qnJxefPjetdHf19nSxvILT8GcqtqgdxCvAnkFoKYF8gtBEFqcqwptxBvArllnVhPbiHeptrlVk0Ecsu7PLcp/o9Gf8+aAOSW91HlVk0EcgsxO923xpw32jdrApBbCII8vy2mGT+INnqPAPaj+7aYy5Bb4qfrltip7PkqcX3+gE2pDrmFIAiCIAiCIAiCIAiCIAiCIAiCIAiCIAiCIAiCIAiCIAiCIAiCIAiCIAiCIAiCIAiCIAiCIAiCIAiCIAiCIAiCIAiCIAiCIAiCIAiCIAiCIAiCIAiCIAiCIAiCIAiCIAiCIAiCIAiCIAiCIAiCIAiCIAiCIAiCIEjZtG3b9p9t2rQJad269SIAgP1gr/GH2Uu9tvyKRxAEQRAEQRAEQRCbpX379udHjhxJiYmJlJycDACwEWPHjqU2bdpc6NKly13KSx5BEARBEARBEARB7BUutyZNmkS//PILIQhir8yYMYM6der0/VdffdX26NGjrRISEp5IS0v7A1uFM7kQBEEQBEEQBEEQewRyC0HsGy63nnvuuZzDhw+/euzYsZDExMQpR48efZ6tqqO8BSAIgiAIgiAIgiCItaPKrZ9//pnu3LkDALARkFsIgiAIgiAIgiCI7QO5BYB9gdxCEARBEARBEARBbB/ILQDsC+QWgiAIgiAIgiAIYvtwuRUcHEy3b9+WrrsFALAP06dPh9xCEARBEARBEARB7B3ILQDsC+QWgiAIgiAIgiAIYvuocuvWrVvSVxMBAPYBcgtBEARBEARBEASxfSC3ALAvkFsIgiAIgiAIgiCI7aPKrdLSUumriQAA+wC5hSAIgiAIgiAIgoiWPzJ+I//om6hyq6SkRDp7C4jELhrXoB63EMSeqrK0aEEtRm6ntPQSKi016u8ka9cqGvtMK2pZuzbV1ozRgo0xMmI7pWe4G4PN4dn6VLe2ZrtG/YtZ/zJ9gdlMmzYNcgtBEARBEARBEAQRKsMYPzO0giGSEcj4LcPjQG4JTNYqerZ+XZ2Mcs8I2lZQRCVe95dpEZZKhcWlLmPUq9wYzcMopbAYkksgILcQBEEQBEEQBEEQ0WIkt9xRKenF5VZQUBAVFxdLX00EApG1kv6lkVMjtuZL4snZZqfuzK7mYalUUMTPwGLrdo6jBvXqOPYH3TpXXNuGatpKc1DlVnMKTSmgohKXvmyOct9A2pJXSMXqOmA6U6dOhdxCEARBEARBEARBhIoncssdOumlyq2ioiLp7C0gEJl6uRW4NU+STvK6nbTymXqarws2p7AULr/4+kxa+S/NVwkDt1IeP6vLdXwNO8c2oHp1lfbNQyklv5CK+TppDhWfudV8+BZKZduQ+gBhgNxCEARBEARBqjN3GMmMRQAAUA7bGfz9wlAweMAFxirGk+3bt7/A5VZhYaF09hYQiOMr6JmKvlbYPJBCt6ZSQWGRpm8UjdWe0RWaLMkt3dguROnk1lJKziugIr6OzaEyckumOS1N4gKu7PjAHPr3709/+9vfitu1a3egQ4cO+5999tmvHnvssfW1a9d+mT1nRu8xAICazYeMW4yXGPUZCIIgCOJR+MHqxwx2/IAgCOI2np655ZBYDMP3F/XMrYKCAunsLSAQGct1cmv4lhxJUhVlRNGY+toLzQ+nLTlcKjn7Ro1pQPXqKOubL6Wk3Hwq1KzXw8bTXrh++BbK4XKLr2Nz0H4tcUlSLuUX6vtnLP8X1a9XW5lLAG12mQswD5y5hSCIh3mGUcCA3EIQBEG8CuQWgiCViTu5VaHEchfILYFxJ7eU9TqB5Sq4JCmlPeurOQ1fupVS8guckisjg6JGP8PGUMUUo/kSvQirQG5lRPE5as7sYv0TyxVpoDqB3EIQxMNAbiEIgiBVCuQWgiCVSWfGCobHEstduNyaOHEi5efnS19NBAKR7iK3NmdTbr6+zQ4XwbU5m8sn5/p0flZVXY28ckfz4ZK4yivQj8/nULmvJTangCVJlJtXoO8PTGXKlCmQWwiCeBLILQRBEKRKgdxCEMSUqHIrLy9POnsLAGAfILcQBPEwkFsIgiBIlQK5hSCIKVHlVm5urnT2FgDAPkBuIQjiYSC3EARBkCoFcgtBEFMCuQWAfYHcQhDEw0BuIQiCIFUK5BaCIKZElVs5OTnSVxMBAPYBcgtBEA8DuYUgCIJUKZBbCIKYEsgtAOwL5BaCIB4GcgtBEASpUiC3EAQxJVxuTZgwgbKzs6WvJgIA7MPkyZMhtxAE8SSQWwiCIEiVArmFIIgpgdwCwL5AbiEI4mEgtxAEQZAqBXILQRBTArkFgH2B3EIQxMNAbiEIgiBVCuQWgiCmRJVbN2/elK67BQCwD5BbCIJ4GMgtBEEQpEqB3EIQxJRAbgFgXyC3EATxMJBbCIIgSJUCuYUgiCmB3ALAvkBuIQjiYSC3EARBkCoFcgtBEFPSunXr5W3atIlm7O/cuXN89+7d03v37n22T58+5wEA1mfs2LFxsbGxL0NuIQhSiUBuIQiCIFUK5BaCIKYnPj7+7+zgtzs7CJ7OD4QBAPYCcgtBkAoCuYUgCIJUKZBbCIKYnvj4+D8mJSU1ZQfAQxhjAQD2gr2+B7J/nwoJCYHcQhDEKJBbCIIgSJUCuYUgCIIgCIIgiJmB3EIQBEGqFMgtBEEQBEEQBEHMDOQWgiAIUqVAbiEIgiAIgiAIYmYgtxAEQZAqBXILQRAEQRAEQRAzA7mFIAiCVCmQWwiCIAiCIAiCmBnILQRBEKRKgdxCEARBEARBEMTMQG4hCIIgVUqNlluNuywMaNR5/p1GnReQtzTusqD0rc+jA/Lz89t4Qsuhy//N+ldp2xVx33ML8w8lZHU32n55/LPPkiSj8XwJn9u3sVkvGG2/PKpjbn/v/vJ3169ntzPafnmwuSWy/n59Tr2d2wMvvHzFaDxf8ljvxSkiz+3776+3N9q+O44cO9Xt/udDcozG8yVPD1n2tXdzW5RtNJ4v8WZu7248OPS+rgsLjcbzJR3GvP6FqHPrMnbNWk/nNn9N5CT2eXLbaDxf4s3cFrwRGczmdstoPF8ycOYHyzx9DwmY9/GS6vi78bl5+ncLmP/p4uqY27SILTM8/bt1n/j2+9Uxt6nhm2Z6O7d7Oi/YfH+XoLuUkg2xfyC3EARBkCqlZsutTgtnseLrztmL1ygvLw8AAAAAAJhM2xErqVGXhQcbtQ5pqJRsiP0DuYUgCIJUKTX9zK0QLreyzlw2LK4AAAAAAED1ArlVIwO5hSAIglQpkFuQWwAAAAAAwgC5VSMDuYUgCIJUKZBbkFsAAAAAAMIAuVUjA7mFIAiCVCmQW5BbAAAAAADCALlVIwO5hSAIglQpkFuQWwAAAAAAwgC5VSMDuYUgCIJUKZBbkFsAAAAAAMIAuVUjA7mFIAiCVCmQW5BbAAAAAADCALll63RgFDLIQ5Yy7mIgCIIgiGEgtyC3AAAAAACEAXLL9nmLcYthJLGMOMn4fwwEQRAEcRvILcgtAAAAAABhgNyyffjzeonBj0OMZJYrTRh1GAiCIAjiNpBbkFsAAAAAAMIAuVUjUtmvJ+LriAiCIEilArkFuQUAAAAAIAzBoRvpvucWbr6/SxCkhr1T0dcT8XVEBEEQpNKp2XKr08JZXG6dvXjNsLgCAAAAAADVD8vdSrmG2DcVfT0RX0dEEARBKp0aLbd4WAEV7VpQAQAAAAAA84DcqjFx9/VEfB0RQRAE8SiQW5BbAAAAAABCAblVo+L69UR8HRFBEATxOJBbkFsAAAAAAEIBuVWj4vr1RHwdEUEQBPE4kFuQWwAAAAAAQgG5VeOifj0RX0dEEASpjrRu3frBNm3abGfstwPsIdF///d/f2e0zqLwD0SPRB0roPwut9577z0KCgoCAjJ79mw6fvy44fNWE9izZw8FBwcb/m1Epk+fPjRkyBDDdcBc+GsqIyODcnNzDfc5kfnuu+/o/fffp3fffReASvPWW2/RqFGjqF+/fg4CAwMNXx81Ff6+kJaW5tH7AuRWxXn22WebsmOTHQb1sCW59957T7PHdMBonRVp27btsIceeqiB8nRVPuxJHc4GoCZdX6THu/UGAtGi03PEnxv2HDVWni5h0r5t6yv9u7Wn94KfB4LB9xkGP6NIqLD9eBGf2/gn36DJj38CBKJXy1HSfsOeJo9OY2YFlN/lFvtwo77D29DsN4BIjA9h7zNt29C2bdsseSDuCyZNmiQdiOXk5BiuF5EzZ85Q+/btqUe7thTdoxN9C4Th024dqB17H96yZYul9ikVLrbatWtHS746TK8nnmacAaBCFm7+N7Xr0IGmvPkhrT56yrBNTSZ0bzy179iJ3nzzTbp586bha8+VaRFb6P7nF73/UN8Qz8VADQqre99m3Lqv/2hqPGAsEIjmnbtR6zZtLnbp0uW/lKer8lHl1oO9hhoODsyDCy7+3KxevfrFhISEpomJiY8dPXr0rxkZGaZfJI7LraD+najww35AMPg+8+KLL+5U9pmn+H4TExPzO+WpMy2QW+Kiyq24uLh27D2mLaNNbGzs35SnzjCNWof8Zs36fZn+FhuQW2Kiyq0NGzZIZ2x8//33dP36dfrpp58seWDuDVq5xeGP/ccff5T+FqJy4sQJYsUi9X3+OTowaSwdmjyODo0fQYdGDqJv+3YzlC6gelDl1ueff07Xrl2Tnq8ffviBsrOzDfc/0YDcAt4AuVU+qtxix4J09epV6T2Bf9Zy0eWu/mo7YiU16rLwIKvT+LWYEDdhdS/klqBwudWhQ6cfdu3a9Tw/LomPj3+aOxAiqvg/4SG3xEWVW5s3bw4/duzYnMTExKnsiR3Fn1zl6TMtkFviwveZgICARL7PsH1lVkJCwmTGE8pTZ1ogt8RFlVtsf1mUlJS0QNl3nmNPm9uvKTbusjCkUecFd7LOXDYsrnwF5JaYqHJr7dq1dO7cOTp//jxduXJFOiCvKWdyaeXWjRs3HAKJCy4uuvjBh2icOnWKOnbsSL07daRvRw6mQxNG0OEZQXR4zhQ6ENCXvu3ZCZjEp91lufXpp586XlMXLlyQDmSN9j/RgNwC3gC5VT6q3Fq2bJl05i1/X7h06VK5n7WQW5ULq3shtwSFy60uXbvmREdHL2HHJCGMyfy4hIjqKU+f+0BuiYsqt7Zs2bKSP7GJiYnz2L+TEhISHlCePtPilFv9gWDwfWb48OFJfJ9hbwRcVMzgZ3EpT51pgdwSF63cUvaZ2XFxcc+zpw1yCxhiJLcuX75cY+UWl1n8DDb+v+r8Z6P2IqD7WmKf5+jAsD50aNJYOjxvGh0M6GcoXUD1ALkFaiKQW+VjJLfUz1p3Z0lDblUurO6V5daAMdR44DggEG7k1vPs3/rK0+c+DrnVe5jh4MA8Hu/WB3ILeAzfZ1S5xfaZ+exfyC1QLpBbwFMgt+wgt56nA8P60qFJ4+jwvOmK3OoMTOLT7h0ht0CNA3KrfCC3/BdW90JuCQrklk2B3ALewPcZseXWmzT58U+BQPRqOVpoudVveBua80ZbIBATQtpCbkFuAR8CuQVqIpBb5QO55b+wuhdyS1Agt2wK5BbwBr7PQG4BT7CE3HqzLRCICYsgtyC3gC+xutyaPXu29H7NP0uAeHR54QVaFZ9lKFDMBHKrfCC3/Bf2uoDcEhTILZsCuQW8ge8zIsutCU+9SVOe+BQIRG/ILeAhkFuQW8C3WF1uTZ48WXq/5he7vnPnDiHihIsRflbdqrgsWpN4RihCFLk19c0P6fWjpwzb1GTCILf8Flb3Qm4JCuSWTRFebg3oRIUf9QeCwfcZyC3gCZBbwFMgtyC3gG+xi9y6ePEi/fLLL5LgAmKgyq0v4lJpc2ImbWJ8lphFbyeeNhQq1QnkVvlAbvkvrO6F3BIUyC2bArkFvIHvM5BbwBMgt4CnQG5BbgHfYhe5xef8888/S4ILiEFERIQkt7bEJVNkYobEpsTj9B7klvBAbvkvrO6F3BIUH8mtADbYS0AgrCG3BgDB4PsM5BbwBMgt4CmQW3aQW93owLB+ityaQQcD+tO3PbsAk/i0eyfbyK3bt29Lgqs62J3Ql+rv6EG14g5R4e1bhm2qziVavb8P1Ytk22E0P36Wilwe4+6jfamBNI+DVHDLX/PwDsgt6wK55b+wuleRW2MNj8OBeUBu2RTILeANfJ+B3AKeALkFPAVyC3IL+BY7ya1bt25Jgqs60Mqtglulhm3K5fIqahjVi2pFRtC20hIqNWijiqvmx7+gp3f0pjqRwRR2o5hKDNpwuZVf6sU8/Eh4eDjklkWB3PJfWN0LuSUovpNbg9iAQBge7w65BTyH7zNiy623aMoTa4FAQG4BT4HcsoHc6tuNDgT0o0OTFbk1vD9926sLMAm7yC0+95KSEiotLa0WdsYrciv2AOWVFLNlF2hltPMsqzI42mn66toEU+j1QipSt3FJkV97P6fk4mLKzJxGd+3o6fi9RJ1HgiK3Yr+lXLa8tDSGXorqQ3XZmIHnC6igRG6Xpetf5OjvTyC3rAvklv/C6l5Zbg0ca3gcDsyjeRfILVsCuQW8ge8zkFvAEyC3gKdAbllfbu3v2026ztbhyePoyLwZdGh4fzrQqwswibU2kVt8HysqKqLi4uJqIcoht/ZTTlEhW3aOVihyq1n6ScpV53JxJd21g5+hFU6bCwuoUB3D3XKJwzROElRBtPSHfCqQlhmPz+chy61oypbmofbtQcPPsb9RkTzm8eNTFbm1nhLZ9ooc2/IfYWFhxnIr6TStSTpjKjq5deyUYZuaTNg+z+UWh+VupVxD3ITVvZBbguJDuTUeCMTj3ftaQG4NBILB9xnILeAJ3sitRq1DfrN2x5E0f4sMh9x6qy0QCMgtyC3gW+wit06dOkUFBQVUWFhYLexwyK1oulmQz5adoeX7FPmUlkXZ6lzOr1AkVhhtys+jfHUMd8sZjrHZWO4IOJtDOQXaeeyjn6R5HKKxitxS2/Ax0zMUubXnMzqan08Fmu35i9DQUMgtiwK55b+wuleRW+MMj8OBeTTv0h1yy45AbgFv4PuMyHJr4lNv0dQn1gKB8EZu8bACKtq1oPI1qtya+1ZbIBCQWzaQW/26S19FPDzlJToyfwYdChxAB3p3BSax9oXOtpBbJ0+elH7Pz8+vFiLjFKkUE003pO2epmWK3GqSmkk/qXM5t1yRWKG0MTeHch1jHKLRUb0lCSULqyBafC2bktOnUgMuocq0l3FsV1m/zTGPfXQ9L1dqk8bGkESWY2wNe9ZRAn+vdBnXHyxdulSRWykUmXhcYnNiJr2fdJreSDprKos2f6nIrY9ozTHz5yMaYfsSILf8FFb3Qm4Jim/kVp8AajyYDQiEwRJy6+OBQDD4PiO03GryFk19ci0QiN6tRJdbXKi0AwIBuQW5BXyLXeTWiRMnasx7gFWA3LIukFv+C6t7Zbk1aJzhcTgwD8gtmwK5BbyB7zNiy623aeqT64BAQG4BT4HcgtwCvsUucisrK0t6TfD3ASAGkFvWBXLLf2F1L+SWoPhIbg1ng00AAiG+3OpMhR8PAoLB9xnILeAJwsutwLY09+12QCAmvAy5ZX259QIdHD6ADk8ZT0fmz6RDgQPpQO/ngEnYRW5lZmZSdna29LoAYrBkyRLILYsCueW/sLpXklt/HfQS/YUddwNx8Inc+kef4XQfGwyIwxOQW8AL+D4DuQU8wQpya97b7YBATITcsrbcat+W9vd/gQ4GDqDDU8fTkQUz6dCIgXSgz3PAJNa+aG25NWrUKOn9mn+WADGB3LIekFv+C3tNOOSW0XE4MI8WPpFbfYfTfUPYgEAYnngBcgt4Dt9nRJZbQU3epmlPrgMCAbkFPAVyC3IL+Baryy31zK1Lly7RnTt3+ME1Iki4GMGZW9bEG7nVdsRKatRl4cFGrUMaKuUaYhBW98pya/BLhsfhwDwgt2yKNeTWYCAYfJ8RX259BgSid6sxHsutxl0WhjTqvOBO1pnLhsWVr4DcEhPILcgt4FvsIrcuXrxIv/zyiyS4gBiocmt3XBJ9nZhOXyam0Y6k4/Rx8hl6M+msqbysyK1pb35Ebxw7bdimJhMOueW3sLpXkVvj2XH3RCAQPpJbgYaDA/N44oV+kFvAY/g+A7kFPAFyC3gK5JYd5NaLdDBwIB2eOoGOLJhFh0YMogN9ngcmsfbFLraQW3zOP//8syS4gBhERERIcmtnXBJ9mZhO/2bws7c+SjJfJkFulQ/klv/C6l7ILUHxjdzqF0j3DWUDAmGwhNz6ZDAQDL7PQG4BT7CE3HqnPRCIia+0o/Yd2kv7TU2HiwhLyq0BL9LBERq5NXIQHej7PDCJtT3sI7du374tCS67s/toX2qwowfVijtIBbduGbYRAVVubY1LoR2JxyW2JGbSB5BbwgO55b+wz29Zbg0Zb3gcDswDcsumiC232ihyawgQDL7PQG4BTxBdbvUPbEvz32kPBCJIkVv87CV+ZkBNzODB8n8mnDp1yoJyqx3tH9CDDo4YRIenTlTk1mA60LcbMIm1PbraRm7dunVLElzu2J3Ql+pLUugQFdwqNWxTLpdX0V07elGtyAjaVlpCpcpyx7iRCvu+oNTSUrql7WvULu4g5bN22jaVQSu3HP3Z3BpGyXPbqp2b2lbdpitsrimsvTzXS7qxUwwegyeEh4dDblkUyC3/hX1+Q24Jio/k1gg2WBAQCMgt4A18nxFbbr1D059cDwSiD+QW8BDILafcio+Pp7Nnz9Lp06elA3uryK1vB/SQvop4ZOpEilHk1sG+3YBJ2EVu8bmXlJRQaWmpW3bGK3Ip9gDllRSzZRdoZXQfqhcZTKHXz9Cy+KlUb0dPSfo0i/2cUlmbEte+OjnE+xVSpGbcLXG9XbYh98/KnEYN+Ni6Nt9SrtQmhl6K6kN12ZiBFwqooMTZ5y7eZ+/nlFysmUuCIqB4f7bc8bubuUnrpDGKHGPoxomMoM1sXXGZsc/Rqmj22Ph4yrbUvlmZ0zVz04+rArllXSC3/Bf2+a3IrQmGx+HAPHwnt4axAYEwPPGiFeTWUCAYfJ+B3AKeIL7cakfz3+kABCLolfYOucW/9mJ0EWO74yq3+Blc/MDDMnJrYA/pq4hHpk2kmIWz6NCowXSwXzdgEnaRW3wfKyoqouLiYrdEOSTUfsopKmTLztEKSW5xwRNES8+fooKis6xdH7nd3vWUVFhIReoYF1cqZ26F0+bCAio0HPcgjY3qLYmq4efzKL+Itbm+iZ5ly+oo/ZwyTJ3H4bJ92LjHj09VBNJ6StTMg29PFlDRlC31l+cmn7lVdm6y3OJjFDgfC+f6ZmVebLvn2N+TbTfKIbfY2GybRm2cy4JoyQ9svtoxNYSFhclyKz5FupA8Z0tSJn2YfJreSj5rKi9vkeXW9Lc+ojcTzZ+PaEREQ275K+zzW5ZbQycYHocD82jRFXLLllhCbn06FAgG32eElltN36HpT60HAgG5BTwFcssOcqundLaWLLdm06FRQ+hgv+7AJNb2eM4Wcou/DgoKCqiwsNAtOxxSKZpuSm3P0PJ9stxqlpZFOWr/8ysUiRVGm/LzKF8dw81y/bj5mnZBtOT7/TRSElf851zKM2pfeIjGKHIr4GwO5RbI46ZnTCXpbK89n9Gx/HwqKLO9ffST1F+eW0M3c5NkFRvjqGYMfR/93GS55Rybz0OSbGzsjWzs7UqbZmmZlF3O3zw0NBRyy6JAbvkv7PMbcktQfCi3goFAPPFif8gt4DF8n4HcAp4gvNwa0Y7mv9sBCETQq5BbkFvAl9hFbp08eZLyubwpKHBLZJwihWKi6Sep7RlapsitJmlZlK3210isjXm5lKeOoZFWi7/jEsrduAVOMcXG5vDxbyrr9O3z2DLnPPiyY1xO/bCRnj6viksAAFqFSURBVFHOmJLkFnus+WW2t49uSP3luamiynVuDrmljvHDGbbcOT/XuUnttWOz+S3f11f+O+0JYnOShdtR9rdR52QE5JZ1gdzyX9jntyK3JhoehwPzaNH1BcgtOyK+3OpChZ8OA4LB9xmR5VZw03dpxlOfA4Gwgtxa8G4HIBDBGrnFL1isve18TWHQoEHWlluDeslya3oQxYTMoUOjh9LB/i8Ak1jb0x5y68SJE5Sbm2vYRmVbrCKFjuyl61LbUxShyq2U4/ST2v/sckVihdIXOdmUoxkjha1rydZJ0omvv5pNW8qMy9s6x5aXO4WAfh7q8lNs+WS2XBFOR9ZSwrX11IoLrj1rKT4nh3IN+v+oGZfPrZW7uUnLVCZSkz1htPh0JmW7/M342JLcOrJHN3bedxucso31f/XqTbqp6WfE0qVLIbcsCuSW/8I+vyG3BMUncuuh/iPprwGTgEBAbgFv4PsM5BbwBEvIrfc6AIHQyi1+ZzT1lvM1Ccgt4EvsIreysrKkg24uuIAYqHJrW3wKRSUdl9ialEkfJZ+mt5PPmsorGrn1VqL58xGNZZBbfgv7/Jbk1v1DgwyPw4F5+EZuDRhJfx3OBgTC8EQPK8itACAYfJ8RW269RzOafAEEos8zYy0gtzoCgQh+tQPkltXl1uDe0lcRj8wIVuTWMDo44EVgEmt7PQ+5BfwC5JZ1gdzyX9jntyy3hgUZHocD8/CR3BrFBpsMBOKJHgPEllsDu1Dh2gAgGHyfgdwCnmAFubXwvY5AILRyi99qnn810adk7aIxdesQ2wGpVq0WFJFRQrfKtMuirF0raEyrltSydm2lrUyLFiNp2Y7jlHnrtkE/3zBw4EBLy60Dg3vT4VFDKEaRW4dHD6NDA14EJrHOJnIrMjKSDh8+DARixowZBnIriz5KPkNvJ58zFb3cMn8+orEs+qjHcmv5J9/Q3194edlDfUMaSAUbYhj2+a3IrWDD43BgHpBbNsUacms4EAy+z4gstyY1fY9mNvkCCIRXcqvTwllcbp29eM2wuPIVDrn1fkcgEMGvOeVWSUmJdPaWT8lcQa20ciu9mEo1655xrKsMcv+SUs34PsDycmtIbzo8eijFzJhEMYvm0uExAXRoYA9gEut6d7O03AoKCpLer19//XX6+OOPgUCMGTNGem4gt6yHN3KLw3I3+/xDygn7/IbcEhTfyK2Bo+ivgWxAIAyQW8Ab+D4jtNxq9j7NbLoBCIQ3couHFVDRrgWVr4HcEhNVbgUHB1NxcbF09pZPyVxOLR0CqzmFpxdRCV8eNYbq1qntEFfNw9OpqMSlr0LUmLpUp7YquOQxig3aeQvkFvAlVpdb6plbFy9elG64YHSHUWAOXIzwM7d2xCfT7qQMxnGKTMqkj5NO0zvJ50zlVUVuzXjrI3o78Yxhm5rMcsgtv4V9fstyi1/nKXAKEIgWz/lEbo02HByYhyXk1rpAIBh8n4HcAp4gutwaMKIdhbzfCQjEJI3cKioqks7e8inHXeRWWiEVlxyn5a00wmrEdiosKjbuL+HafhsVlNveM6wvt/pIX0WU5dY8RW71BCaxrnd3yC3gF1S5tTs+ib5OSqevkjIoKjmTPk05Q++knDOVV7cqcuvtj+jtJPPnIxrL90Nu+Svs8xtyS1Agt2yK6HIreGAXKloXCASD7zMiy63Jzd6nWU03AIHoK7rcGtmOQj7oBARi0mKn3CosLJTO3vIpGct0cisstYCKinfQaM3XEZuHpUqyyrC/RAYtc5VbhUUG7bzD8nJraB86PGYYxcycRDEvz6PDYwPo0KCewCTsIrf4nH/++WdJcAExiIiIMLzm1seQW8IDueW/sM9vWW7xr8KNmAoEosXzL1KXrs/5QG4ZDA7M44mecuEsrtzqSkXrRgDB4PuM2HLrA5rVdCMQiL7PjIPcAh6hlVsFBQXS2Vs+JT1CJ7dCU/KpsCidIrSyqnkopeQXGvfnsDGc1+2qRYHb8iW5ZdjWCyC3gC+xk9zi16QzugmDk0u0O2slPbOjF9WJ7EG1GM33RVDkTyVUqrTZndCX6u9g6+IOUcEt+aYVJ7KmUYMdPaX2tSKDKfBiMRXfch2bcXMLtY7q7Rz7+FkqZHNyjKksV+HbDr94jkoqnLc7LtGq/X2pHh8v7iDll+pvsrH7aF82b7Zu3xeUUmp0c4zy2X20n9yfjZ3Cxva0f3h4uCS3tsen0M6k4xLbFLn1bso5U3lNI7feSTJ/PqKxAnLLb2Gf35Lc+tvwyXQ/O+4G4uATufXwwDFssGlAIJ6E3AJewPcZoeVW8w9oVrONQCCsILcWfdAJCMTkxR2oQ4f20kWk8/PzpbO3fEqai9xK5mLKdbm8LjA0hVIKtH0jKaJlHc31thiBWykvv0C/jSpiebk1rK8ktGJmTVbk1nA6NLgXMIl1fewht/i8+TXpXG/A4ODmZno2SpZazTPOUKHU9iLtylxJz8QfYr/LN6jY5ZBbXBa5LNsbTM0je7IxginsRhEVa8e/FUvjonpTXbau+V7exjmGs//nlFJSIt+k4uZFWpUwleop0ozPqaC8+RvCxohW5dYBymNja9fvUuUW225yiebmGN5yaTU1ZH/DWpERtKWkSJJyhu0UILesC+SW/8I+vzVyy/hYHJiDb+TWoDF0/0g2IBAGS8itz0YCweD7jMhya0rzD2l2s01AIMSXW+1p0YedgUBMXtLRIbf488TP3vIpaeHUwiGxmtLS5FzK16zfPuppqlPbeWH58gmkLcl5uv6+AHIL+BK7yC3+WuBf2zW6Tp3MERoryacexM++Gp5xkNL4V31d2u2MV0RU7AHKVcbTLbuwgu7awQVPOG0pKqQiqd95WhndR5JMwy/k03bdGEXO/nvXU3JRkX6bl1ZSQ2m8YAq9XkCF2nUV4txurdhvKYdtS7t+Z4Iqt9ZTEpurvF3eh81H+jsYwMdhc9T1Z8s2x/WRf9a1D6al1/OpQLNNLWFhYZBbFsUbuTV8/qd033Mh3zRqHdKQfQYibsI+v2W5FTjZ8DgcmIeP5NZYNth0IBBP9hwEuQU8hu8zkFvAE7yRW406hTwY8kbUmdzcXMPiyldAbomJ3+WWT9hOo56uQ7W1Z3ApoizPsL1nWFlu9ezQjg4G9KPD44ZTzOwpFPvKfDoyLpAO8zsoAlP4rO8L1K6t9eXW6dOnpTMbjb7Kq+PHQ7Q8frLjjCmJvZ9TInttFbL1UQ4xtZ+ylfFclzl+37te6rdDt77Apb3md6U9345zPpvoWeWrjAHn2HuER19hPkvLHXIrmm6ybWnX8+2qcuuYY7vOPs3SsyhH/ZtdWKGclRVGmwryqYD3d8gtNjbrX3RhpaYNe/9VtuMOI7m1PSmLPkk5Q++lnDMVVW7NfPsjejfJ/PmIxkov5FbbESupUZeFByG3yg/7/Fbk1hTD43BgHr6RW4PH0v2j2IBAGJ7sJbDcatf2siy3RgHB4PuMyHJravOPaE6zzUAg+nkhtxp3WRjSqPOCO1lnLhsWV76CHywNHNmeXv6wMxCIKRq5xQUn/2qi0KRup5EtWlDt2s1oaVIO5Rq18ZABA+SbvkBuAV9gF7l18uRJ6fVhJITdc5DGKGdzNUnLomzWPzJOEVEx0fSTMl7ZZc5+DkG25zM6xubDz9TUt89z/q5po87BsS4yjDbmeS7AtWMf1Y19hpbtU8RXzD66webhupw/5pvq3+z8CuUMsjDaoMyDjy3JLbU/b6PILbWNOg8jQkNDZbmVkEo7kzMltidn0SepZ+m91POm8tq2rxS59TG9m2z+fERj5bfHILf8FPb5LcutEVMMj8OBefhGbg0ZR/ePngEEwhJya/1oIBh8n4HcAp5gCbn1UWcgEFq5Vd51P+yMteVWezoY0J8OvxRIMbOnUuyrC+jISyPoML/IPDCFz/q9aBu5xX93lcEqaelTyXlReBdioumG0lcrpspblv/9BnpGOeOqVmQQLb6WTTnKtlzbO3533a5CE9buGJdFSn/POO2UWEbsWUcJ/Exng/ZNUjPpJ/XxnFuuyK1Q2pAri3it3LrO5peff4jGRPXRSL0geo09bi4F9XOSWbp0KeSWRYHc8l/Y57cst0ZONTwOB+YBuWVTILeAN/B9BnILeII15FYXIBBTlnSC3ILcAj7ELnLrxIkT0tmcRm2AOahyKzIhlXYlZ0pwufVp6ll6P/W8qSxW5Nastz+m95LNn49orILc8lvY5zfklqD4RG49MmQc/W30TCAQT/YaLLjceo6K1o8BgsH3GaHlVouPaE7zLUAg+v3rJbHl1qj29MrHXYBATFkqy62JEydSdna2dDBb07C83Bo+gA6PH0ExcxS5NX4kHeYXmQem8Fm/HraQW1lZWdJBt9FrxlocoFGuX3k0oElKBl0X/PFCblkXyC3/hX1+S3Lr7yOnGR6HA/No8XwPH8mtMWxAIAxP9hZcbg16joo+HwMEg+8zIsutaS0+ornNtwCBgNwCngK5ZQe5NZAOjx9JMXOmUeyrC+nI+FF0eFg/YBJ2kVuZmZnSewI/8AZisGTJEsgtiwK55b+wz29Zbo2aZngcDsyjRTefyK2X2GCzgEBYQ26NBYLB9xmR5db0pz+meS22AoGwgtx69ZOuQCCmhnZ2yK2bN2+WOZiqCVhdbh0KHEhHJoyk2LnTKO61hRQzYRQdCegHTGJ9f2vLrZkzZ0rv1/w1AcSDHSjq5FZkchatTT1LH6SeN5UlGrn1frL58xENyC3/hb0uFLk13fA4HJhHi249fSC3hr5EfxvLBgTCALkFvIHvM2LLrU9oXottQCD6/Wu8tN9AboHKArllB7k1SJFb0ynutRCKmTCajgT0Byaxvn9PS8ut999/Xzo7aMW+WPok9QxtSDklnR2kyhQgFpEpWbQ27Sx9kHbeVBxy652P6f0U8+cjGqsOQG75K+zzW5Zbo2ew4+7ZQCB8JLfGGw4OzOPJ3kPEl1tfjAOCwfcZyC3gCaLLrUGj29Nrn3YFAjEtTJZbAwcOpLVr19K6detqHN27d7e23BqhyK150ylucQjFTBxNR4b3ByaxfoB95NZHqWfps9QztCnlJG1NOQEEY1vqSdqUeoo+5mduGQiV6kSVW7Pf+Zg+SDlLH7JlwMlqyC2/hX1+y3KLfxVu3BwgEL6RW8MmGA4OzOPJPlaQWy8BweD7jOhya36LbUAg+gsvtzrQa58+BwRClVujRo2ipKQkSk5OrnH06dPH4nJrMB2ZMIpi583QyK0BwCTWD+hlC7m1cl8sOyg/V+YgHQAjlm77itpDbrkFcst/YZ/fkFuC4hO59WjABHrgpTlAIJ6C3AJewPcZseXWpzS/xXYgEJBbwFNUuTVp0iT65ZdfqCZm8GD50gGxsbF0+vRpSW5xKWEZuTVyCB2ZOFqRW4soJmgMHeHX4QKmsH5gb5vIrTjlwPwCABWydNvXitz6hD5I4VLUpc07AdSgfl1iZQejP01MOE3vu7ZJ+5TaNWtAderwNoye79LbiQZjpR2kqQPvonp15XbPrDpB76a4tnHlIA1udhfVVcd+bA69fOwMfWDY1vesPpAIueWnsM9vSW49OHYWO+6eCwTi6W69fCW3jDcAzOGpPkMFl1vPU9GG8UAw+D4jtNxq+SnNf3o7EAgryK3Fa58DAjEdcssht9j7qyQjuODiMsIqcuvwyCHS2VpxityKDRpDMYEDgUnYRW6t2hdHH6WdZ1wAoEJUuTXnnU/ow5RzBm0+pXYNG1AdSW7Vor9O/YbeS9bvX2FzWlD9enVk+aTwr1Un6L0U7TgMLsoaKKLssTn06rEzkkDStfGYgzSkWUOH/PrXqqyy260Cr0Nu+S3s8xtyS1B8JLcm0gPj5wGBeKqvFeTWBCAYfJ8RWW7NaLmWFjwdCQTCGnLreSAQ08O6OOTWzz//THfu3KlxqHLLql9LPDxqqHS2Vtz8mRS35GWKDR5LMSMGAZOA3AI1kYrllqu86k9BCaelM6fk9Z9Se438clBGXnEJ5TwDSyu/wuY+rYz/OPVbdZKWvBVADzaoS6wAks4CC5rRjOrVl7f/1ynv0rtJZ6V+0wb+ynEWWFnYWFtP0vup6vYZu9dS+6bNqE4djYh77HF65vU9bC7Grxlv5BaH5W42PlJO2Oe3LLfGzTY8Dgfm8XR3yC1bArkFvIHvM5BbwBO8kVv8fwQPxGcm5OYaF1a+QpVbS9Y9DwRiejjkFuQW8CW2klvp7EA9nR2cA1ABS7crcuvdT+jD1HOGbT5K14upv077RpZBbF3YXKf4+teqd6l1A6fokgQWl0t8DNezthLP0IfK+GHznqb6irwqA2sbNL2pQ27V6vUuvcPlFus3bVAFcmvbSekrlB/9+xX6x131ZVlWDs/ws77U+Sq8fhByy19hn9+QW4LiG7k1PIgemDAfCMRTfYeJL7c2TgSCwfcZoeVWq3W0oOUOIBD9n5WlqCdyi4cVUNGuBZWvgdwSE63cun37tvTVxJrGoEGDrC23Rg+jmOCxFLdgFsUtfZliJ42lmJGDgUmsH9THFnJr9b44+jj9POMCABUSqpFbH6WeM2wjob321mNz6LXEM/RRuuasLXWZi8SS2x2koQ459jj133ZSOvNLHTtcK7ccfdys7yWfuaWu+1gauyHV03wtkZ+t5Vy/VndmWZn1OvHVj4KOnpakm7p+DeSW38I+v2W5xa91bXAcDswDcsumQG4Bb+D7jMhya2ardbSw5Q4gEMLLrTEdacln3YBATI/oCrkFuQV8COQWqIlUWm7pBFUt+tfqE7RktvasrROKNHJpx5e/pRFekpzSb6esvKpovfdyq1y4WDumF2uQW/4L+/yW5NY/xs+lBycuAALhE7n1WGCw4eDAPJr0E1xuDX6eijYFAcHg+4zYcuszWtgyCgiE6HJr8JiOtPSzbkAgZmjk1q1bt6SvJtY0LC23OnagI2MCKHbSOIpfOJvil75Ccezn2FFDgEl8PrgvtWPvd1aXW6/vi6NP0s8zLgBQIWGK3Jr77if0ceo5wzYOdGdvPU5/rVOHpDOeHptDixPPSDLI0U6VWbVYu8dYO0k+9afgo6cleaQdN8JFXr2XpJ9H2fVnNev1cuuvU7+m95P5/n+QIf+rXV/rsX4UFMnmkObsH/HOy9ShSX3623S1r7ruAr0BueW3sM9vyC1B8aHcWgi0dH9SfiPiPDyI7jNq40ea9AsQXG51o6JNwaBchlFkB2UfqvUnCp9r1Ma38H1GZLk1q9V6Cmm5EwjEACvIrfXdgK+Z2Yhq11ben9o2pWlcXBm1M2DGMqfcKi0tlc7eqmkMHDjQ2nJrbADFTn5Jlluhr1Ic+zl29FBgEp8P6WcTuRWvHJhfBKBCwrZ/o5FbXOwYt5PRn5Wl0nrVSfogteJ2/Fpd76eU3Tcj5rXUyKv36L0k/TzKrufyy816Dc+uOuGY1/RBrE3dsm20yGJMP783DiZBbvkp7PNbkVvzDI/DgXk83b23D+TWiGB6MIgN6BcG0W8MXsR6nqR7DPuaiFZu/bEz3WfUxo/4UG6xP7+Ez+K13Hr9WWqhe971tPj7n2jE8Bco3aivJRlG4X93Pr4R1pJbAxiN5R+rnsrLrUX0VK3auv1Cx38+SP/3h0UU9KRRX+ANvpJb77zzDo0cOZJ27dqlK7Kqgiq3Qtd3L8uKR6ixKmcMaPS331KzoS1o+mcGfde3p25/ry3/ry/nb4+4aWdjtHLLw8c/c9lzvpdbWSuoFSv+5eekBUVklNIto3aGZFHWrhU0plVLallb87wyWrQYSct2HKfMW7c8GK9ivJNbW2lkvbruv6LStCk1Hb6JjiXmkv5mDRX0kwigjTezKVe3PT3VLrf6d6BedWor8/4fCu47hI4YtQPVLrfGjh1Lb731Fl28eNFwvaeUkVsZ7ODcFNZShwb1K/wa2F+n7aEPUs2cJ+CERWrkVtp5wzY1GW/k1vUbN+n9jTG/Y/u53fIFYxTj/2OUW59WJuzzW5ZbE+YZHoeXTxDd92JX+u2f72V1lOaY5Q9/pl893JH+b/A8eoCLGsO+diGI/nhPA2cd+Yf21HicN3/LsvhIbk1ig4X4h2GduT52PvGGPEX3GPWtNEH0hz86x/tNd6M2HtL9Kef8JLll0MaP+FButWE4H4vMdsZwhlfSyyG3Nk/yjLmPuM6jXFoMDzAexzIEuMgtoza+he8zPpJb5xi654ORxVjKeJzhUVS5NfuZ9bSo1S73PDWa7im7XTd0oSFGYwCPGPCsfK22qsqtuXPn6j/kFf7whz/QiBEjvJJe5cotrZypBI2GtKOllhZY7am7Rsg1ncHPojJqV0l8JLdKSkqkryZWmUwXuZVeQqVG7bSwPs84+lQGPm4xlZQajOUhXsmtlHB6utLzHUobf8qmbH4Aw/vVq6jfYFp35Rpd++47SYhkZ2dTbm6ubvs6uTVuOMVOGU/xIXMoPuxVimM/x44Z5lsGNKPH66j77P9QcL+hdMSoHah2ufXXv/61zPt1w4YNqVevXvTBBx9IB89G/dyhyq01++Lp0/QL9Ck7MDeFL1+hf9SvV+Fr7P5pe+jDVBPn6VMO0tCmDRxnKrV+/RR9lGbUTjzCNXLrk7Tzhm1qMm96IbfajlhJjbosPMjvas32Bzsln1HmtczYyRjC+H+MSod9fitya77hcbghAc/R/6vE+0utWn+m3w+cSw9MNBijxhBMf7znLked+esus+iBCUbtyuIjuTWZHgxe5B+GddHIrXvoD8MM2hgxbAj95k/3KP0U2O+/eSFY1+6eRzTry2CwPWVcrXC7+09P0R9cxn3wBY3c+lMXui84mG1LOx82l2eHsOWaPj6kSf/h/pRb7qiU9HLKrcmeMfdRzbb+ROFrKmrD6NijbJs1PWjE3/+kb8fP+po7vGxbFaWP9syxFn9/lMKN+qwZTpEd9W3V9pFsXZn2jHQ27xYakdWiY2uprV5ule0n4c3jcQPfZ/wot9yRzfiY0YNh+GHqrdx66qGdLm30Z3bd85f3XNYznmJt/vNBRxsJ9vtTDxm0faiL40NK2hbr2+WP2r6s318WUbBrPw5v+5cudM9/qm0VlG2V6fNQ1zLb0s9TO8f3aQgfW7Punj+GGM+DI431D81YDHeP2QVv5FbjLgtDGnVecCfrzGVHQeVObrmjMtKLy60hYzpS2Ofdy6KTW7+lbisqasNo10KSM3zdzGG/daxrNMS53MHKFtT877919mXbaNTuEZqhbacZn8um0JXtaUQH57hynxb6Pips/BeGNqJGmvcIib/9lo3VnmZo2o7oUFv/OHTwx862rRmXz7uRpk2jvzWi7mxMRxuOi9yasZ7P/Xe6uTdlfxejuc9S5FYw+1wsLi6Wzt6qMpnLqaVD/DSncElCGbRTiRrDDuac+1vz8HQqKjFox4gaU4/qOh4XH7uIig3aeYIv5NaAD07T2XPnpbNnrly5QlevfkZDNWdoPbkgmq5cvUY3EpZo+jWhhQcv0bkLFxwHOlevXnXAx/nhhx/oxo0bYsutAR2o1x9/rznD5n/okQea0Bejh1KMdoxKtt383ANUT90fHmhHn+vG6Ukr/1HHsQ+80HmIdEF93TY4bDu9+Xa0r7Xf/w+90KWHcXsfIoLcckdlpJeocqv1mgpEz7vDqL56HadaT9CASH7tJnX9QVkaKfuDThp9uZY6NGlGdepovmr2zyeo9Rv7pOsp6bahovT5u3qtKMb9j/WngW9E08dKnwg2n3rqfHq9T4tT5LOZ5DEO0oyBDaheXed8pvS/y/F7WfjjOa15PAp8Hk2b6+f+GJv7mr3u5+4nILfKB3JLF3dyy4hixmaGW+nFPr9lucWv82RwHF6GHuw1wz6fWVeZh/rT3ycsNG7rSsAkuveff6H/0Lz2Ob/64+P0f4Mm0ANc6mjba7b16+fm0ANDh9Fv72nM3rPV1+yf2fKXZHkWzMZu24z+o25dZew/068eGkB/Ge8yN8Mx/6Ifs6vLmKy9Y8x/lB3zvrZ/ZWPK/X/Vsp/j73Hv4w2pjtv3pT/T7wfMZY9ZMzcXnn7BB3LrnyMn0z8mLfILDwa4yK0A43Yq+vbu+U0PuX2FckvZXsXj6uf2YA+N3CqXih+TN5gkt9yhk15+lVtl2j1KkeryNa3L/Vqjik4iVdhHM49Kjs9xbMNVxpVDGbnlzeOpAL7PaOXW559//kq3bt3GsnH4fuAJ3zEM5+MhfN8Z16RJk2V8bpLcemaXe1zl1sM7NesWUZf/0hbjD1KXp7TrK3fWl27Mh51yq3xctvWwU1S5x5s+FVH2Md9b3tc4FXSP2YWOT/Sl3/3ud3TPPfec/7//+79zf/7zn8+y39NYv/3uqHf37843/F0jatb8afrXv/4lce+99xpu21O00sspt14oy0z+Qa/2U+VWRe0aU+B6efnMYRqRI0kvtU8HekH7lUVXtG11Y5dPoyHtPewnP6ZQ1r5iucXarSz/a5ra8TybO+u3XNOPoZVbRUVF0tlbVea4i9xKK6Jio3YSx2l5q7pOCTFiOxUWFRu0UzlOK3Ttt1FBue0rxpdyi0upnKQtFPa0Zo61nqT5+9jBzIWL9F3Mq3q5deAinWXb4tv78ccfpYMcFS60tGi3r5VbMS8FUtzUCRS/aC4lhL1G8eznuLEBvmWgXm5N6j+MYsb2oml/quP+a2P/aE+HxwxTxqh8262t/kD11L/dH5rQBi6jHHNRxlHWv9iZSzZ1HUM3T/eU6edDvhjan/76l79Qjx49pNcVPyty8uTJNGPGDJozZ47P4e/5Ro/RE379619Lr4PPPvuM3n33XUluvbEvntamX6C17MDcFCpx5hY/a+ujVM0cdYJLlkYfp2m/3ihLL34NJGn8BhWfuSGPoZlTuX1kCcXHXzb3aaqnHCzWemweLUk+J0kOea6KbNOcoTW1EnJLmnel5iHT+vWTzrn7GVVuzXv3E/o07bxhm5rMWweT6JHH/kmdOnWioKAg6X1hypQpNH36dJo9e7bha7vxE53pP+9tdqFW7bqvsedzkY0oZRjusx7gkF6tWrX6iH2G33ooaIHhcbiWB9nfXfcVvD92oMYTKtFv+POVPNOLvZ92m0MPBin9ermINK/4M/1+0FxJFjnG1LzPeYd8Rpo6plZu1fpHP3pgwkJpeYVySzOGET6SW1PYYC/7hQcDulYsqx4ZIredNER3fa7f9ChvrCZ0j7qc7XR/+FM5/VzW3/3sJN16Ix7s0cTRvtafnNuS1nkxnqc80WsQNW7cmB80xnbo0GE/Kxr2sZ+//N///d81bJtGL3p3fMJwPhbvOc9YyXhclVvFW6Z4xjy93IpYY9DGbbueNNKxrBaNnOfSRyeKHqVIaXkgRTzg7NMiMFDfR0cl2urmxbehn1PZPvox9XP25vFUzD8efJAefvjh7/g+ww5iotnr+5v77rvvPTaO0b7B4Wdb+UNuOfYXhuPMrTnPfE4vP7PbPU+NqVhQ/VcX6vrwBy59X6YmGsnT5OFd+vW6cbvQEHW5Vm6xcYc8o+33AXXVyLR77ntfs84dZfssUtdp5dZ/jaZgbT82P62k0s/f3ZgVPeaxmjG70GDdY3MysLU5Z265wg+U+B3o1q9f7zgol+TW2I4U/sULZZllILc8aDcrQC+3uLSR+3SgFx7QHOj+vTF1m9mh4rH//gjNdIwho9uGIta068ui33ajoe3dzqv5TO3jLa+fG3RzZ3PTtS9/vFnLnXKrsLBQOnurymQs08mtsNRCKjJqJ7GDRjvasr9FWKokq4zbcjJcZNg2KigsMmhXefz2tcSmw+iVz2Pp8pWr0niXLl2i7+Neq7hfwEa6ma2XWa7o5Nb4ERQ3bQLFvzyPEsIXU/y0iRQ3brhvGdi8rNwa15um/a9GWP3xbzSpay+KGWvQX22rPm9/cN926zNaudWUNvC7QTrW68d5scswOuIYoxP1qeOcj34dgz2GJxyP4W+0TDeu7/hi2ABhz9wy4ve//z0Fsppn586dklRVz9yypNxS+xmKH43Y4tfzust5PS+dwCozRn+anHiWXL8yaLhtDZ7KLXn77pZrcZ27i8AqM3f2mHX9/QPkVvlwuYUztxzx5MwtI1IZMxj3M+qwz2/pzK2HgriQMT4WV3lw0jD6bYP6zveHh/pLZzgZtVV5cNJk+uO9TiH2q1b8rCgubzRterXQSKwn6M8vLWD9XJb/sSM1Hu+c44PDu+mE2a+7zaUHg9xss6Vzm9KYqtwyGlPz/vfr513HdH698FctxznGLCu3nH8TRz/lfenXz8+hB5QxK8I3cmsUOyiezAb0Aw8O1wqpe+gPw43bcR6crJdb5fKnrnSfo5+B3HI7bvlzUNHLLee2VO55VB2vFt3depJunS9oMsC0M7d0UsIo/pZbkR0183mgNWVIy/UyqFwM+5Qj0yQq0baMcKqoT+XlVrmwx5OuG9c9fJ/x0dcSoxnG89Gj/Uqi2zjl1hf08jP/do+L3GryMBcwfLle5NSq1ZWG6Pq6ri+H/xpDk9R+OuE0hoJ1Y/6bhvzROeY993GhpvZ7rlJnifE+izR9nNvicktZLqGd/4PU9SnlcSvweah9nWN68phVmeYcU2Vg66BqlVtGEssdOrm1wYXZLtJqVXcKc23DGNGR/e3UdlxAKWPNGq4RT+1byKJI23d1C3r6Ae3XEg3aauegGduBbo6KQFKWl3+WlUyjYe0183KRW7O0j5fN1XEA7v5voaOCuWv/bvp5sL/dCqfcKigokM7eqjLpETq5FZpSQIVG7STSKUIrq5qHUkp+oUE7hfRlmut51aLAbfmS3DJsW0l8eebW+QOf0BDHVwo4A+jDs+fpEjuI4XIjNzlMc80t/ZlbrvCvOH733XfSPMo9c8s0uaWu60S9/6T9qqHCPzrQYX42k24cpa3ra0bT1ldyq1zKjOs7RJVb99xzD40bN44OHjxY7vu1qHKLfy2xsmchzRhocBbUP+fRUodg0guicnH00/ZxOZPKgOqSW+XCt5uk3a7/UOXW/Pc+YfvNeVp3/CLQ8PahJOoAuaWmsnJLJ7EYhmGf37LcCg5hx93sfaMC7n3cKWokEcW/omfQTuXByQEaIfZn+v1gLq5c2gRqRZVzzDJyi0sjtU+Zcefrxr33ibscZ039qtV4WSipY2rlluuY7P3BMeYg1zGdZ2JJkk4Z8752GrklCb9FmjGnuMitufRAsHPM8nj6hT6+klvGG6gqZeWWcTvOg5Mn6ySVdMaUpj1ff1+PrvQb1ubu1pPd9lPX8eVqG62MkubRw7lOHlM/t7Jyy7mOo5dbzrF8RZMBgf6WWxVKLHeR5VZ3Kt461TPmu8itNzTr3hhBkYGPunxNT9tmhE4U1XrgUYrU9mfrM+a3pZGsTYvAEY7lOlHGx5vvXCe3d26jora6uXXsxZa7zIkLL3VOb/RyWVeLRs5X1kl493gqgu8zfpRbXzK8uhGBKrfmPvMFvfLMv91jILe064dqZBMXXEMd6z7Und1U67/Yuqec/fj6yQ+PoSb/Jcshx3IXucWll7OPfnvOfmVFlNp+sov0UoWYtN5Fbum35X5MDp+H2tc5ZtnHPETXT33MtfXzcMFfcssTieUOWW51ovAvXqTwDS4Yyi1l3eoONCLAVSDp25SVW0pfLopq/5ZazOpAMyWZw5fpxVILSSyx5bo51KJG7R+hwFVyn1mzXb4m2L65sg0jESVve5aL9JKlkrzOdQ7OdR2k9TqJx8edxdY7xn1EEnXdtX8jQ7mlrGOUlVvOdbNWPC/JLf41ifz8fOnsrSqT5iK3krmAMminomsv9wkMTaGUAm2bSFrWUnPmDydwK+XlF+jH8gJfyi1+sMKvk/VFQD3HAWqtWgPpk4uX6QYbL6ccucW/0sgPdLTwORgd+Ojk1oSRFDdtoiy3IhZT/PQgiuNfVfQlg1zk1oAAinmpE/Wu83vq2bU3bRoXSLFS2z66s7le7MrasXVx5bVVnlPe9ghv2+1B5zW3pOW95OWDWPuH9WLM0UcznuOabH/4Oy0bOFzZlrx+a7fm1PtPtemxlr3osKOfb/kiYKCpcquyEssdqtx6Mzqe1mVcMDxQrxa+YjW0Rm61WXNKkkmGbR0cpGFcDin7QJs1e2hqf+e1rbioCk05R2td2tX6Z3+avPOsJGnUcZa/9zJ1eKoe/X3mHuLX0eLL9dLsCRq4Zq90XTK+bvl7r7D2TWnwztOSTFr3nv4rknwu/O6T675i2x7Qguqy9w/nOvWxKfNS3jvun65u+yBDfS5Ym2Z3Od9fHmNzjzojb1Mz945N+Ny/cczd30TsgNwqD8gtXVzlVqUklruwz2+P5JZeKsn86uEB9Jeh/CwmpU3gFLq3bXP6j7r3SjLrnsfvojqOz/Q/0++7TaQHgxUx1Ksb/Uc953tVLTaWKofsKLfUfny5fCKPc3xXbCW3VO551OVC8ga4CqX7Whv3+U2Pyo5rW7nF5ZVXEstdnHJrmmfMf8z5Ny2XP9HI+SMNx+AXejfu46RFoL5v+X243HK2zQisaHw+N2f74q0jy0gsbduIQOdj1veT8ebxlAffZ3wkt/iZWI3lH6sep9zaQK8886V7nhrrIre4gNG3KSu4tOse1qwzRpZUSp8ycss5ljyepvjX9Jt838O6Dzh3yFJJGU8nt1y3xV7zDrn1EHWVxJxzfVm5pV1X8Vxc+2jxldzKyMjQFVi+QJVbEV+8SBEbXHARS+6RRRWXMtr+rnKLCzR5HZdb2v56Gg9r72zrItjYC0bX1kH75prxXbZdDrptldOPn8XFH9/IjuWNK8stx9/BQG6p2+GM1Mgt13nM1sgt/jzxs7eqTFo4tdDJKgOaLqXk3Hxdv+2jnqY6lf56VSBtSc6jfE1/b/Gl3Lp27ZqjzeYRWsE1QBJcP8a7XFBeI7c8kR/iyK3abs8geaSlIqWkMTxpG0irHtZIKh3/Qy/+43/KCjF1nlLfP7jp64Rvzy5yi9UHXv+ngxFOuZVA6yRhcskcvnq1wq8lcu6fvlc6u2nd8XXUkR0oqvtYmzX8zCp5LL2UGkCTk7jg4stbsOVOyWSEc3x1rKfL6fMEDdzBRZPcdqbRGWRKuza9nmIHmfI42rkun/c01VcPMjXIAkxuI49d3jxkZDlWPc+hU259Kp3xZ9TGkPeGU4MGyoH6Y/JZcvy5MWxbjSyf35Lq11f+vr3epw9TuLAzblsZ3j6UDLnlzL0MjyWWu7DPb1lu8es8TWHvG5Xkvnb3sddgRTXHn+n3Q/hZWGr78l5zf6Zfd2dtJzm38WBvrdzqRI25NFLXTRmul1tDFkjbUdfr5dYE+WwpaUxWKznklsGYWrnFzzLTjamVW+MdY+rl1gBZeil9yqzX8Otu8+gBzeN1xTdya/RUeogNBsShqe/kls/jtdwCfofvMz6SWz6NKrfm/WsDvfqvL4FA+Epu+QNJbo3rJEuVjQIyx0UQbXjBuJ3NmL3SKbf4ATI/e0tsttPIp+u4iL+mtDQph3IN21fMgAEDPJdbGviZWrw9Ryu3+N8zOztbWs/lBoefnXXz5k3HOn5HRLWvt3IrduIoSWglvDKfEiKWUMKMYIofPwKYxIaAgdS+GuWWr9HKrc8yLtJn7MAcgIpYppFb69IvGLYxxEVuhSafk2SQYdtqZMX8ltRAI7c+Sjlv2K6yvAO55bewz29Jbj08aZHhcTgwj5a+kVvT6KGprwGBaDpwhNhya0h3Kt42HQgG32fEllsb6dV/fQUEQnS5NXQcK+w29KBlGwVEJ7cepVmiztPHzFnZzWJyS0PqdhrZogV73pqZKre4tOCSisMPVFzPouEyi187i4stDr8rIl/GD2j4crVvZbfHgdwSF8gtUBOB3CofyC3/hX1+y3Jr8suGx+HAPFq+2Ie6PAe5ZTsgt4A38H1GaLn17EZ69dmvgEBYQm5xqbJJQOZq5Fb7FjRL1Hn6GK3ccldg252qyi0z0MmtoNEUPyOYEl5dQAnLllLCzEkUP2EkMIkNwwfZQm69FZ1A6zMu0np2YA5ARSxX5NaC9z6lz9IvGLYxRCu3aj1B99dy85X2x+ZRWPI5SRQZ93VDr/fp4xR5Piu1XzUswxM0MPI0rc2Qx+ZtXeXW+uOHaHjzhlTPcb2zeRSa5DInN7wLueW3sM9vyC1B8Y3cGjOdHpq2GAiENeTWDCAYfJ8RW25totee/RoIxKDWwZBbwCMgtyC3gG+xjdzan8AOyi/S+kx2cA5ABejkVsYFwzaGvK8XVPf3nkfTdslnb63/mh0gO64fxPjnPApLOUefafo+1KAptZ3+IUX8Wz5bTFru0q/1mpM0feCvqL7j+mfyzQD4DQR4+5VsnH+wcQbvOC1d70tatkAjt3q/Tx+9NYzualDP2V/TtjK8exhyy19hn9+K3HrF8DgcmAfklk2xhNzaPgMIBt9nILeAJ1hBbi3f1JOWbwaiMHdVd0luTZw4UboGFP9KXU3D0nKrU0eKDR5D8TMnUcJrCylh+VJKmDWJ4vlXFYEpbAgcbGm5NXv2bOn9mr8mgHg898ILtDb1rKFAMROfyC1XeeW6vtYTNMhVKn19iGbPC6AHmzSl2nWMz8q6f/o8alu/PtWVfq+cmNLJLR2eiy0O5Jb/wl4Xitx6lR13LwEC0fLFvlWXW4+PnU4PT18CBKLpoJHSB5K4cusFKt4+EwgG32fEllub6bVnvwECAbkFPAVyy/pyKy54LCXMnExHX1tIR5eH0tFZkylh4mhgEhsCh1habk2ePFl6v7506RLduXOHEHHCxQg/q25d6ln6PPOSUKhya+F7n9L6jAuGbQxxkVvhKeckGaSuXzVfe/fIATQ16awkvz7P5F8RvMtxR9o2a/ZIZ2LJ/eR16tcHudxq55Bb8l0kP01T2xqzyuXMrY93vaw7G+z+6d9UOIaW97yQW59sP0yP9HwtuHXrkHpsm4ibsM9vSW49MuVVw+NwYB4+klsz2GBLgUBYQm5FzgKCwfcZkeXW/Gc30+JnvwEC4ZXc6rxw7P3Ph/x85dqPhsWVr1Dl1opNPWnFZiAKWrmlXuS8pgG5BXyJXeTWxYsX6ZdffpEEFxADVW7tTDpOX6afot2MHelnaONxD2SSn/CJ3KqANmtOSdfEkvuuo84NGziEVXlIMuudALYd9WuFRshnZPGvQ/Lxy8it1PNs+Wf6bTqWq3Nyjzdyi8NyN9sWUk7Y57dGbhkfiwNz8I3cGjeDHp7BBgTCALkFvIHvM0LLrdabaXHrb4BADGrjudziycvLi2YYFla+QpJbL3WSpcoWIApzV3en9u3bSftNTWfv3r3WlFuTxlLCLBe5FTQamMSGEfaQW3zOP//8syS4gBhERERIcmv3sXT6OvWExL/TTtGm4/wMosumsnzHHkVurZVuRGDUxhCN3Gq75jSt/fIz6tysOdVRv2L4zyeo7ZvRitQq238V6/+PpnWptnqR91pP0P29P6KIt4ZRfWXc+6fvpU/T5P6r3n+NOjVtRnU1X2G8/5/9afCb+2mdZht6ufUBfZzKhR1fd5iGD25I9dTrd7F1YWzdeqWfO947nAK55aewz29Zbk191fA4HJiHj+TWTDZYKBCIpoNGSYWz2HJrNhAMvs+ILLcWtN5CS1rvAQIhvtzqTCs296IVW4AocLnFz9yaNGmSdPBUEzN48GDpdfPVV1/R6dOn6eTJk5KUsI7cGkcJs6bQ0ddC6OjyMDrKfk4IGgNMwk5y6/bt25LgcsfuhL5Uf0cPqhV3iApv3zJs4w0ns6ZRgx09qVYkGzsymEZcKqGS2wZts7dQ66jeVEdq14OaHz9LRRXM2YjdR/uy7fHHcZAKbpX/OBxtlW2qNN+3jCIunWPz1G9/99F+jrFT2di3Nes8RZVb/z6WTt+knpDgcmvz8Yv0ReZlU1mhkVufZ5g/H9F4H3LLb2Gf34rces3wOByYB+SWTbGE3NoxGwgG32cgt4AniC63hr3UmVZu6UUrtwJRmPc65JYqtw4ePEhZWVl0/Phx6ewty8ityeMoYfYUOro4hI6uCKOj7OeE4DHAJOwkt25xGXP7tlu0cqvgVqlhm3K5vIru2tGLakVG0LbSEipVljvG3RdMzSN7Up3IYAq7USyJI2f/OBoX1YfqsnXN9/E2skDKL/V8Hlq55ejP5tYwSp7bVu3c1Lb7vqAUtvwWX37zEq1OmMbmLAu55sfPUGEFfztvCA8Pl+VWYjp9k3ZCQpJbmRfpi6zLprIiSpFb76+lz7lsM2hTk3n/COSWv8I+vyG3BMVHcmsWPTwzDAhE08FWkFtzgGDwfUZ8ubUXCMSgNpMgt4BHaOUWPzPA6DovdkcrtzIzMyW5xc/eso7ceokSZk+lo4sXKXJrKiXw63ABU9gwYqgt5Bafe0lJCZWWlrplZ7wioWIPUF5JMVt2gVZG96F6mjOadDjaafrq2gRT6PVCitSOe2GlQ4BtKS6iYmnbzu0EXiig7Y7231KuNH4MvSSJL3l9QYk836zMaWysnlRr7+eUXFxMJerjSFCEFe/Pljt+dzM3aZ00RpFjDIlLqhALpqWsbaHB2FmZ0+U5sMezubjQ8XhWRbPHwLbTLOMU5bv5u0NuWRfILf+FfX7LcmvaYsPjcGAeLXv4QG498dIsemRWGBCIZpBbwAv4PiOy3FrYeistbb0PCMRg0eXW+M60amtvWrUNiML811+A3FLkVrxFLygfP+UlOjpnKh1bsoiOrQyjY+zno5PGApPYONIecovvY0VFRVRcXOyWKIdU2k85RYVs2TlaoUinZuknKU/tf1EVVOG0ubCACtUx3Cx3Hdfx+971lFRYSDvcrXfM4zCNjeotya3h5/Mov0ge9/jxqYrcWk+JbJwizfZkARVN2VJ/eW6yqCo7N1lu8TEKHGNIXN9Mzypfkxx+jv092XajHHKLjc22yf9GKxWRpS7Tz8tlTA1hYWFl5NaXaadoS+ZF2pB12VRWKnIr5P219MVx8+cjGh9Abvkt7PNbkluPTl9seBwOzKNlT5/JrXAgEM0GjxZcbr1IxTvmAsHg+4zQcqvNVlraZh8QCMgt4CmQW3aQW+Pp6JxpdGzJy3RsZTgdYz8fnTQOmMTGkcNsIbf466CgoIAKCwvd4pRM0XRTanuGlu9T5FZaFuWo/c+vUCRWGG3Kz6N8dQw3y/Xj5rNlh2iMIqscZ1Lt+YyO5edTQQXtA87mUG6BPG56xlSSruWl6avf3j76Seovz62hm7lJsoqNcVQzhm4d67NR6eNYph37x02KBAuixWeiaaR0lhn7+ftcytWM50poaCjklkXxRm71mfI+Ne4S8k2j1iENlXINMQj7/Fbk1hLD43BgHi179oPcsiPCy62hL1Jx1FwgGHyfgdwCnuCN3GrUeV6bPlPf+/HH6/49kIfcEhOt3OLXdNHemaumMGjQIOvLrbnT6NhSRW6xn49OHgdMYuMoe8gt/tVc/nt+fr5bIuMUKRQTTTektqdpmSK3mqRm0k21/7nlisQKpY25OZTrGOMgjdZJqyBafC2btpYZl7X9fgM9o5wVpbbLUcbRzyNXWpaWrogsx9ga9qyjo7m5lFem/z66rvTPz+eCTP5qo9zPOTdZYBnThI1xjI2hHVtqrxtbnp/89USlX+px+qmCv/fSpUshtyyKN3Kr7YiV1KjLwoOQW+WHfX5DbgmKb+TW+Fn0yGw2IBCGZkOsILfmAcHg+4zIciukzTYKbRMNBGJwm8key63GXRaGNOq84E7WmcuGxZWvcMgtLlW2A1GYv8Ypt/jFo9W7ctUkrC+3JmjkVgQdmzudjk5+CZjExlEBtpBbJ06coFwugAzaAHNQ5daXiem0J+2EBJdbWzMv0sasy6aySiO3Nhw3fz6i8SHklt/CPr9luTVjKTvujgAC4SO5NdtwcGAekFvAG/g+I7TcaruNQttGA4EQXW4FjO9Cq7f1odXbgSgsWPMi5BbkFvAhdpFb/M6h/KCbCy4gBoZyK/0Ubc26RBtPXDGVVTv3ynLrg7W0IdP8+YjGhzGQW/4K+/yG3BIU38itCbPpkTlsQCAMlpBbO+cDweD7jNhyazuFtt0PBGJwmymQW8AjtHKL343L9dbzNYGBAwdaVm716tSREqZOpGPzptOx0Ffo2KoI9vMMOjZlPDCJTaPtIbf4nUOzs7OlA28gBkuWLIHcsiiQW/4L+/yW5dbMUHbcvQwIRMue/X0ht+YYDg7Mo9mQMZBbwGP4PiOy3FrUdjuFtd0PBGKIFeQWlyqRQBQWvOGUW/y2//zsraqTSTvH1KU6tWsR28UMGRnJb8Nv0DdzBY1pVYdql9NXpgVFpLsZw0Mgt4Avsbrc4u8F/P169OjRNHHiRCAQPXv2lJ4brdz6Kv0Ubcu6RJtOXDEVVW4t+mAtbcw0fz6i8RHklt/CPr8lufXYzFB6lB13A3Hwidx6csIcw8GBeUBuAW/g+wzkFvAEK8it17f3odcjgSiocis4OFi61Tw/e6tqZNLylhqx1Tyc0otLHOszo5bTmJZ1aNT2Iiou0faLojF16xDbUR0Cq/nI7ZSR4exbmhlFK8a0ZGPXdrSRxi+q2rwtL7emaeTW6gg6Nn8GHZs6HpiE1eXW3LlzpbODNmzYQElJSZScnAwEYc6cOWXO3ILcsgaQW/4L+/xW5FYYO+5eDgTCR3JrLj06lw0IhKHZUCvIrQVAMPg+I7bciqSwtt8CgYDcAp6ilVtFRUXS2VtV47hebtVqTiO2p1NRsVFbJ1GjNX2ah1NaYbFhO4njK6iVRoQ1D0+jwiKDdpXE+nIrSD5bK/RVOrZ6GR2bP5OOTZ0ATGLT6OG2kFus3pDuJnrnzh0gCFyM8Ofmm2OpFJ2aSftSs+jr9JO0HXJLeCC3/Bf2+S3LrVlhhsfhwDxa9oLcsiWWkFu7FgDB4PuMyHLr5baRFN72WyAQwsutCV3o9ci+9PoOIAoL3uzhkFuFhYXS2Vu+YMdolzOsHDSnEdu4jNK230GjtbIqLJUKdOtdyaDlrTQybMQ2KigsMmhXOSC3gC+B3AL+QpVbe5PS6Nv0LNqfliWdvRWZdYk2n7hiKqsVufXyB2tpU6b58xGNjyG3/Bb2+Q25JSi+kVsT59Kj81YAgWg2dKzgcqsHFe9aCASD7zNCy612kRTe7lsgEEPaii+31kT2pTU7gCgs1MitgoIC6ewtn5O+g0a1bEm1dbIrkLblF1Ch1CadIrSyKnAb5RcUlh3HARtPK8NCU1h7o3aVw/Jya3qQ/FXEMEVuLZhJx6ZNACaxaYx95Ba/mygXXEAMIiIipOfmq8R02pt2QuLr9FPSmVtGQqU6gdwqH8gt/4V9fstya3a44XE4MI+WvQZAbtkRK8itkl0LgWDwfUZsubWDwtsdAAIxpO1UyC3gEarcCgoKovz8fOnsLf8RqZNSgVvzJInF16VFtKS6dZzyS7vOlchR+q89hiaztgbtKou15VYnSpgeLJ+tFfYaHVu9nI4tmEXH+HW4gClsGhNoC7nFPjukGy4Y3WFUZXdCX6q/owfVinQh7hAV3JLvvupoY7RMbb/vC0otLaVbmrEN28UdlMZwu10VNl6KwXgVc4lW7e9L9fgYbFv5bAzt+t1H+1IDvl1p/BIPx7/k7M/GluZ3eTU1jOrF5hxBW0uLqdSwn5Pw8HBZbiWl0970ExJfZ5yi7Scu0eaTV0xl9S6N3OKyzaBNTebjWMgtf4V9fkNuCQrklk2xhNzavRAIBt9nILeAJ0BuAU/xudxKi6CWLheGNyRwK+XxM7c0fdMiWukEV8UE0ta8fCrQjOENVpdbRxW5lRj2GiWuXk6JC2ZR4rSJwCQ220RuxcbGSjdccL27qIObm+nZqF5UJ7IHBV4opCI3dy7d5ZBbXBbJd2TVLtsa37vMek5W5jRqsKOnYRtH/72fU0pJCZUqfXRjc2FUUkwlmnUVc5FWRaty6wDlsbG163epcoptN5mNLW9X7lM/MphCb5yh5QnT2PbZvNkYzeM+p1RHO96/nyK3DtCW+D7yz3xbDvgY7G+ptHcFcsu6QG75L+zzG3JLUHwkt+axwVYCgbCG3AoBgsH3Gcgt4AmWkFtcqkQBUdDKLf488a8mVpW0tO0UPrIFNW9em2o7zrCqRU2bBlLollTKzzfu54D3HzWyTP9aTZtSYGgojWheRz9u4BZK4ZLLaKxKALkFfIld5FZMTIx0TTqjmzCoZF5aSQ128DOPnIKmWewBSuXXs1Pa7IxXZBNbnquMp192mMZG9aa6rO/wC+x1zG8+8dMmepYtqxMZTluKCmmHrn2Rs//e9ZRcxO+8qpmXo688Xn4FN7PQc55WRveR5Vbst5TDtqVdvzNBlVvrKYnNS94u78PlFlseGUxLz5+iwuJzhm0dy/jYbN4ll1YpZ26F0+aiAirSbMuIsLAwt3Jry8krpvK6Rm5tzjJ/PqIBueW/sM9vRW5FGB6HA/PwjdwKmkePzmcDAmFoNgxyC3gO32dElluvtIuiiHYHgUCILreGT+hCb+zoR29EAVEI0cit3Nxc6ewta5BK20e20Fy0viktTcqhXMO25TNgwADryq3OnejojGDpOluJ4a9R4uvLKXHhLEqcPhGYxOax9pBbhw8fls5sNLpOnSE/nqXl8X2oHpc3kT0o4Fwu5RUWUZRDTO2nbGW8MssurKC7JEkWREu+/5ZGSrKL/5xH+WXaFzh/37ueEgvUa/cp6MaS+zvWVQh7DA65FU032ba06/l2VWF1zLFdZ59m6VmUo/7N2DxkcRVGmwryqYD3d8gtNjbrX3RhpaZNntRGuz1XnHIrg/amn5T4OuM0bT9xmbacvGoqr+/ap8itdbQ5y/z5iMbHsakeyy0Oy91ytYa4C/v8luXWnAjD43BgHpBbNgVyC3gD32cgt4AneCO3eE6eu3I416Co8iWQW2KilVvlFdh2xvpya5J0nS293AoCJrF57AhbyK1Dhw5J8tfobEeJ8yuo1d4I2vx9LuUpy9LZMvVMroCz2ZSTX0CRcYqIiommn5TxjJalZ0xlfeWv83GapGXRTcP2ec7f93xGx9ic8/n2fzjDlk9hy+UxtP09gc/jLscY+yiRbY+Pr1+uHfsMLdsnyy3dcva3aCj9LcJoQ578N+LzluRWzD66wcaV2khyK4he+y6HcqTx3BMaGgq5ZVEgt/wX9vkNuSUoPpJb89lgq4BANBs2zgJyaxEQDL7PQG4BT/BWbrECKtq1oPI1DrnFpcpOIAohb0FuQW4BX2IXuXXw4EHpd9czHZ2cpsj0ZfT0Xvm6W5KU2hNEw1L3UxIfS2mnFVM3lPGMlvHxVEmkX162veN3dbsSQdRkTxgtOXOCcjR9vYM9trgp1HJHT5fHFk2JXFS5tHXIrdRM+knd9rnlitwKpQ258lmlWrl1nY3D26Wxdq1YO3k7rO0192egLl26FHLLokBu+S/s81uRW8sMj8OBeUBu2RTh5dawHlTy70VAMPg+I7Tcar+TItofAgIBuQU8RZVbEydOpOzsbOmriTUNy8utmZPp2MLZlBixmBLXrKDEEPbzjGBgEpvH2UNuHThwQHp9GLWxFgdotHJNL70M09Mk5TjdEPzxqnLr66QM2pd+UuKbjNMUeeIybT151VTWKHLrlQ/W0ZYs8+cjGp9Abvkt7PNblltzl9GjC9ixNxAG38it4PmGgwPzgNwC3sD3GdHl1rL2h4BADBVebnWlN6P605s7gSgseqsn5BbkFvAhdpJb/KDb6DUDzAFyy7pAbvkv7PMbcktQILdsijXk1stAMPg+A7kFPAFyC3iKVm7dvHlTKrJrGpBbwJfYRW59++23kvA2es0Ac1iyZImx3Dp5mbaeumoqDrn14TrawmWbQZuazCdxkFv+Cvv8VuTWcnbcvRoIhI/k1gLDwYF5QG4Bb+D7DOQW8ATh5dbErrJU2QVEYdHbkFuQW8CXWF1ujRs3Tnq/5q8JICaQW9bDG7mVduIitR+x+olatULqKOUaYhD2moDcEhTILZsCuQW8ge8zwsutDoeAQAxtB7kFPEOVW4GBgdLd0fjt/2savXv3ll43VpVbx2ZNocSQOZQUsYSS1qykpEXs55mTgElsHjfS0nJr8uTJ0vv1pUuX6M6dO/zMEUSQcDHCz9zak5xB+zNOUnT6Cdojya1LhkKlOoHcKh9v5FbbESupUZeFBxu1DmmolGuIQdjntyy35i2nRxeyY28gDC17+0puGQwOzKNZAOQW8By+z4gvtw4DgRjabprHcqtxl4UhjTovuJN15rJhceUrILfEhMuttm3bSAe0K1eulFixYgUtX77c8bvd6du3L3Xr1k0SW5BboKrYRW5dvHiRfvnlF0lwATFQ5da+xDQ6kJZF3zL2ZZykqBOQW6IDueW/sLoXcktQfCa3Hlv4OhCI5gEvCS63elLJl68AweD7jMhy69X2O2l5h8NAICC3gKeocmvt2rXSgTiHF96nT5+WDsh5AW53xo8fT3369IHcAj7BLnKLz/nnn3+WBBcQg4iICMNrbu04eZm2nbpqKq5yy6hNTeZTyC2/hdW9ktz657wVhsfhwDxa9R4IuWVHILeAN/B9BnILeIIV5NZbO/vTW7uAKLjKLVX48K8kfffddzUCfr0xfvbW1atX6cqVK9JBPf8Zcgt4g53k1u3btyXBVRl2J/Sl+jt6UK1IF/Yto/BL56m0EmOdzJpGDXb0ZH2+oPD43lSPj8d+Trt1i25r2u0+qm5rGW27VUq3jNbFHaQC1k9d7g7evkGZeQdT87hDlO6yXbOB3LIukFv+C6t7IbcExTdya9ICeiyEDQiEAXILeAPfZyC3gCdYQm5xqbIbiMKid8rKLbXg5reeN3ou7cakSZOoX79+0gEGF1pceP3www+QW8Ar7CK3+LxLS0vp1q1blWKXKrf2fk4pJSVUypffjKVxUb2pLhdG2uVuyMpU5BZv+9NGepb1rcP6Bl4opKJSpd3NzdRaWc5FVPOMM1SgztOxLpjCbhRRsWZsd+xyyLADlMfmd+vWRWmZKrwCzxdSobrtqnJpNTWM6sXGjaAtJUVUYtSmHMLDwyG3LArklv/C6l5Zbs1fYXgcDswDcsumQG4Bb+D7jNhyaxct73AECATkFvAUyC0byK3ZUyhx0VxKWraUkt7gcov9PGsyMInNL42yhdzicy/hMqq0tFLsjNfIreJiKuHLf4pxyq1YLo+Ky7ZXJJUOZYwogzHVfoGxEVR3hyKKiouoWDtm7LeUW9G2eBs25k5Vyim/S31+2uIQa80yTlO+8nfg8u0uLt+046ho+vMxy54NZkQwLb1eQIXKPCsCcsu6QG75L6zuhdwSFMgtm2INufUqEAy+z0BuAU+whtwaQG/tBqKw6J1ekFuQW8CH2EVu8X2sqKiIiouLK4VDRLkKnL2f0+bCQirUtr+4ku6SxFQQLf0hnwqU5cePT1XO3FpPSaxP0fVNDsk0/Hwe5au/S+tP0/LoPlSPrWuWfpJyiw7RWEmk6cfUzS02mrKLCp3z0K7TzlmhGWufq7Znc5bPunId/zCNi+ojCbzh59jfsIiNqcotvj32OBzbu7hKGSOcNhXm6/8mlSAsLAxyy6JAbvkvrO6F3BIUH8mthWywNUAgILeAN/B9BnILeALkFvAUyC3ILeBb7CK3+I0VCgoKqJCLqUqwQ5VEe9bTsfx8KmDL0jMUWRUZREu+Z+8navvzKxxyS7vc0X7PZ2XHYMuWxMnX4Qo4m0O5BdpxwmhJ2iS2ric1S8uibJd5O+YWG00/FeS7WbevzDodbFsNDeZc+ONGh4Dj88ph8+JjynLLZUw+hiS3wmhjfh7lq8srSWhoKOSWRYHc8l9Y3avIrZWGx+HAPCC3bIol5NZXrwLB4PuMyHLrtfa7aEWHI0AgILeAp0BuQW4B32IXuXXy5Enp9/z8/EoRGafKrc/oKH/vcF0eGUSLr2VTTpnlBuxZpxnjII2WzsgyWnealu2Tz96S+4bSxtwcylW2UWZuMdF0Iy/Xzbp9dN1lnSu8rbuvGzZJzaSflL+Xo12ZMQ/RGOUsL7mf/m9SEUuXLoXcsiiQW/4Lq3shtwQFcsumQG4Bb+D7DOQW8ATR5VbgxK709q4B9PZuIAovQ25BbgGfYhe5deLEiRrzHmAVVLn1TVIGRaeflNiTcZqiTl6m7aeumsobitx69cN1tPWE+fMRjbWQW34Lq3shtwQFcsumQG4Bb+D7DOQW8ATh5VZQV1mq/BuIAuQW5BbwLXaRW1lZWdJrgr8PADFwL7eu0PZT10zljV3RGrll/nxEY21cGuSWn8LqXsgtQfGN3Jq8kB5bxAYEwtB8OOQW8By+z4gtt3bTig4xQCCGtpsOuQU8AnLLBnJrzhRKfHkuJS1fSklvrqQk/vPsycAkNo+3h9zKzMyk7Oxs6XUBxGDJkiWQWxYFcst/YXWvLLcWrGLH3W8AgfCR3AoxHByYR/Ph4y0gt14DgsH3GaHlVofdtKJjDBAIyC3gKZBbdpBbUynx5XmUtDyUkt5cRUn859lTgElsHj+arCy3Bg8eLL1f888SICaQW9bDG7m1MzqZHu+9JKBW65B6SsmGGIS9JiC3BAVyy6ZAbgFv4PsM5BbwBK/kVueFY+9/PuTnK9d+NCyufAXklphAbkFuAd9idbmlnrl16dIlunPnDiHihIsRfubWnqR02p9+gqLTs2jvceWaW6evmcobuzVyi8s2gzY1mbXxadShk2dyi8Nyt1KuIW7C6l7ILUGB3LIpkFvAG/g+A7kFPMEbucXDCqho14LK10BuiQnklvXlVuKcqZLQSlbkVjL/efYUYBJbbCK3Ll68SL/88oskuIAYqHJr39FkOpCSQQfTsmh/xknadfKSoVCpTiC3ygdyy39hdS/klqBAbtkUyC3gDXyfgdwCniC+3HqO3t49kN7+NxCFl9/pDbkFuQV8iF3kFp/zzz//LAkuIAYRERG6M7c4ezNO0c7T5sskyK3ygdzyX1jdC7klKJBbNgVyC3gD32cgt4AnQG4BT4HcgtwCvsVOcuv27duS4PIHuxP6Uv0dPahW3CEqvH3LsI237D6qjB2pJZias22l37pFtw36WAFVbn2TnEHRGScl9vCvJZ6C3BIdyC3/hdW9kFuCArllUywht75+DQgG32cgt4AnQG4BT4HcgtwCvsUucovPu7S0lG7duuUXdjnk1kHKLy0xbOMtzrEPUJ409kXadbSPQ3gFni+kwlLjvh5zaRU1jOrFxo2gLSVFVGLUxkeEh4eXkVv8mls7T12hyNPXTOVNjdzadtL8+YjGOsgtv4XVvZLcenzBKvonO+4G4uATufXU5BDDwYF5QG4Bb+D7jMhya3GH3bSyYwwQiGEWkFvv7B5I7/wbiMIrkFuQW8Cn2EVu8bmXlJRIgssf7IxXBFTsAcorKWbLLtDK6D5UT3e2lQZHO5f+ujbfUi5r4xxb/l3q89NmejaqN9Vh7ZplnKbU41Pprh099f1VeL9i57ak7SX0pQau2zMkmJZe5/LM2ddXQG5ZF8gt/4XVvZBbggK5ZVMgt4A38H1GbLn1b1rZMRYIBOQW8BTILRvIrblTKemVeZS8QpFb/Oc5U4BJbJlgD7nF97GioiIqLi72C1EOAbWfcooK2bJztEKRW83ST1Kuuu3rmxxSavj5PMovctffYGyddJJpFhtNuedXUMMd/GyrIFr6Qz4VOPoepnFRfagua8e3ladsSx1Tklusf7Z2exdXKmduhdOmwgIqVJf7gbCwMMgti+KN3Oo8bg017rLwYKPWIQ2Vcg0xCKt7Zbm1cBX982V27A2EwTdya8oiNtibQCCsIbcWA8Hg+wzkFvAEb+RWo07zujw7fEXej9f9eyDvkFtcqnwJROGVdyG3rC+3pmnk1mpKfmU+Jc+ZCkzCLnLr1KlTVFBQQIWFhX5hh0NORdNNaTtnaPk+RW6lZVG2uu0fNzrkVsDZHMotMOqfL7c1HFu/TkIjt5Z8z97n1OUu28pRtsXhY8pyax/9pB3TMVYYbczPo3x1uR8IDQ2F3LIo3sittiNWUiPIrQrD6l5Fbq02PA4H5gG5ZVMgt4A38H0Gcgt4gjdyq3GXhSGNOi+4k3XmsmFx5Ssgt8QEcgtyC/gWu8itkydPSr/n5+f7hcg4RUDFRNMNaTunaZkit4zOuHK2c9ff3di5unVl2hhsq0lqJv1kMKYkt2L20XXdmIdojHK2l9w/iBZfy6YcTV9fsXTpUsgtiwK55b+wuhdyS1Agt2wK5BbwBr7PQG4BT4DcAp4CuQW5BXyLXeTWiRMnqvk94BRFKHKrScpxulFD3n88AXLLukBu+S+s7oXcEhTILZsCuQW8ge8zkFvAEyC3gKdAbkFuAd9iF7mVlZUlvSb4+0D1cJLCHXIrg25U67atAeSWdYHc8l9Y3Qu5JSiQWzYFcgt4A99nILeAJ0BuAU+B3ILcAr7FLnIrMzOTsrOzpdcFEIMlS5ZAblkUyC3/hdW9kFuCArllUyC3gDfwfUZkudWz7TDq03YEEIjObboLLbe6PN+O+g3rBASiZ7+O0j5T0+VW586daeLEiTRhwgQaP368BP85KChISMaOHSu9pjqyA90xvXrSpMGDaWHQRFo6ZzZNGjqERr3QHZjE4Oe7Ulv2mrK63BozZoz0mgDi0KtXL+m5+XjjFlq7NVLi/S820Stvvkezl68xlQnzQiTxNmLSVJq17HXDNjWZKa+FUbv27SG3/BBWw0hyq/mwcdIxNxCHZ7t2p65du3ottxoyZvMDzy5duoQNHDjwg9GjR28PDg7eD8xn5syZXypPqlByi+0vPfg+06FDh1e7d+++PCAgYD0rnPewOUe7PgZQ/XzyySdvK/uMMHLLNWxe/+JzBGIhmtzS8uOPP0pFHT/g4wUeEIuaJre0WOXMLS03b96Uni/+3PGLgKtCBYiDleSWFv46uHjxorRf8TO5gHjwr4+ePXvWcL8zE363TT437Tz5MqO2NRXILd+H1b13s/r3RXbcNDMpKWmhti4GQlB5uaVNTEzM79iT+jTrHMAPirlMAeLAntDZ7AUXLILcUsPeZBumpqb+H5tbN8ZcjtHcganMYvuNcHKLzetptr/MUWSK0RsZMIeF7DmZx+ikPFWGMUNu8YO8K1euSAdNrsUeMB/+3PCD2poot7go4nLr6tWrEvzAQ3SuXbsmHSTxA1x+8CjigW5Nhostzo0bNwz3OZFR/yOC71daoQLEgV/4X8TX/OnTp6W5aecKuaXn0qVL0nu4u89ayC3Pw2rfu9nxdVf272R2zITjEsFQ/EeH/fv311OessqFda6flpb2W3ZQ89fU1NQn2b9AINhz8mh8fPzfs7Ky/lN5ykxPSEhInYyMjAZccCUmJj5lNG9gHuyN4An2vDzG9pv/Vp4yYZKSkvIfbF5/ZPP8E5vj/wJx4M9JXFzcfylPlWHMkFv8fyn5tVw4XCYAseDPj7v/SbY7/CBD3T+N/jYiws8wU+EChf9r1A6YixVlsfpa4PsV/08JIBbq8yLia159P9LOFe9NetRr2hm99jiQW56HH8/yupcdm/zeqC4G5sKfF+4/iMjtN0oQBEEQxOuYIbcAAAAAAIB7ILcQBEEQBEE8COQWAAAAAIBYQG4hCIIgCIJ4EMgtAAAAAACx6DxuDbEaDXILQRAEQRCkMoHcAgAAAAAQD5a7lXINQRAEQRAEqSisgIp2LagAAAAAAIB5QG4hCIIgCIJ4EFZAQW4BAMwhJZxa1qvLb51EtWo1pcVHb1JOrtE69zRdnEA3c3Ll9vWd7QM2/ETZOZptcbaNogb16mj6B9CGG9mUo20jsY1GNahHdaQ2bF4JNylbnRcAAFQDkFsIgiAIgiAehBVQkFsAAHPwQG4ZyioXto2qT/XqKOIqYAP9lK291X4KhbesT3VrK+sVHHJMM05KeEuqX7e2Y5wbunEAAMD/QG4hCIIgCIJ4EFZAQW4BAMzBx3JLf/aWfMaVYzzNWVtNAwKoWZ06SjvXs7e0Z225O7MLAAD8C+QWgiAIgiCIB2EFFOQWAMAcPJBbhpQ5O8vd2Vvas7ZkYbVlVANdO/XsrG2a5UZndQEAQHUAuYUgCIIgCOJBWAEFuQUAMAdfn7nFMTp7a6vmrC3Da3Qp7ZI1y5oupoSbOZRrtA0AAPAjMcknqVVARJtaISF1pGINQRAEQRAEKT+siILcAgCYgz/kFsP1mlmLm9fTnbWlfs3Qtd2GwHqOs7YCNtyo9PYAAMCXtB2xkhp1WXiwUeuQhuz9CEEQBEEQBCkvjbssDGnUecGdrDOXDYsrAADwKx7ILXcYf3VwG42qr143q7y22utracBZWwAAE4HcQhAEQRAE8SCQWwAAU0nZSqPqqXLJRW65EVSuuLsuVkr4KKpfV/4qokTTANpws+zF4cu0U7+i6JgHAABUL5BbCIIgCIIgHgRyCwAAAABALCC3EARBEARBPAjkFgAAAACAWEBuIQiCIAiCeBDILQAAAAAAsYDcQhAEQRAE8SCQWwAAAAAAYgG5hSAIgiAI4kEgtwAAAAAAxAJyC0EQBEEQxIM07rxwbKPO8+806ryAKuKx3kuSs7Oz2+bn57epLOt3xg5gfSs1flV4ot/SeFHn1nJIxFeezm3u6u2TWV+/z+1fAcujPJ3b/DWRk9g+84vReL6k60tvfCLq3LqNf+sDT+c2bO4nS6tjbkNmfxQu6twC53662NO5PTfhzQ+rY24zlm+ZJurcFrwRGezp3J4ZtnxXdcxt5af7Rog6ty92J/T3dG6P9116lPX1+3vvkWOnuhltvzye6Ls0wd9/t8ZdFpR6M7cHX3zlIuvv178bn1vW6UudjbZfHtUxt793W/S9p3M7de5qp/ueC8kzGk/l3s7zv4HcQhAEQRAEQRAEQRAEQRAEQRAEQRAEQRAEQRAEQRAEQRAEQRAEQRAEQRAEQRAEQRAEQRAEQRAEQRAEsVNq1fr/AbGwB0rC3uHWAAAAAElFTkSuQmCC;" vertex="1" parent="1">
                    <mxGeometry x="3" y="180" width="607" height="240.89" as="geometry"/>
                </mxCell>
            </root>
        </mxGraphModel>
    </diagram>
    <diagram id="2NKA3EmBz0pPjTJKpEW7" name="O3CPU">
        <mxGraphModel dx="2021" dy="585" grid="1" gridSize="10" guides="1" tooltips="1" connect="1" arrows="1" fold="1" page="1" pageScale="1" pageWidth="827" pageHeight="1169" math="0" shadow="0">
            <root>
                <mxCell id="0"/>
                <mxCell id="1" parent="0"/>
                <mxCell id="yRpksBQJHvgPAqN1ccL3-1" style="edgeStyle=none;html=1;exitX=0.5;exitY=0;exitDx=0;exitDy=0;entryX=0.5;entryY=1;entryDx=0;entryDy=0;endArrow=block;endFill=1;" parent="1" source="yRpksBQJHvgPAqN1ccL3-5" target="yRpksBQJHvgPAqN1ccL3-3" edge="1">
                    <mxGeometry relative="1" as="geometry">
                        <mxPoint x="130" y="154" as="sourcePoint"/>
                    </mxGeometry>
                </mxCell>
                <mxCell id="yRpksBQJHvgPAqN1ccL3-2" style="edgeStyle=none;html=1;entryX=0;entryY=0.5;entryDx=0;entryDy=0;startArrow=none;startFill=0;endArrow=none;endFill=0;exitX=1.004;exitY=0;exitDx=0;exitDy=0;exitPerimeter=0;" parent="1" target="yRpksBQJHvgPAqN1ccL3-4" edge="1">
                    <mxGeometry relative="1" as="geometry">
                        <mxPoint x="534.1199999999999" y="170" as="sourcePoint"/>
                    </mxGeometry>
                </mxCell>
                <mxCell id="yRpksBQJHvgPAqN1ccL3-3" value="gem5::BaseCPU" style="rounded=0;whiteSpace=wrap;html=1;collapsible=0;" parent="1" vertex="1">
                    <mxGeometry x="70" y="20" width="120" height="60" as="geometry"/>
                </mxCell>
                <mxCell id="yRpksBQJHvgPAqN1ccL3-4" value="构造函数&lt;br&gt;&lt;div style=&quot;text-align: left;&quot;&gt;&lt;span style=&quot;background-color: rgb(30, 30, 30); color: rgb(212, 212, 212); font-family: Consolas, &amp;quot;Courier New&amp;quot;, monospace; font-size: 15.4px;&quot;&gt;CPU(&lt;/span&gt;&lt;span style=&quot;background-color: initial; font-family: Consolas, &amp;quot;Courier New&amp;quot;, monospace; font-size: 15.4px; color: rgb(86, 156, 214);&quot;&gt;const&lt;/span&gt;&lt;span style=&quot;background-color: rgb(30, 30, 30); color: rgb(212, 212, 212); font-family: Consolas, &amp;quot;Courier New&amp;quot;, monospace; font-size: 15.4px;&quot;&gt; BaseO3CPUParams &lt;/span&gt;&lt;span style=&quot;background-color: initial; font-family: Consolas, &amp;quot;Courier New&amp;quot;, monospace; font-size: 15.4px; color: rgb(86, 156, 214);&quot;&gt;&amp;amp;&lt;/span&gt;&lt;span style=&quot;background-color: rgb(30, 30, 30); color: rgb(212, 212, 212); font-family: Consolas, &amp;quot;Courier New&amp;quot;, monospace; font-size: 15.4px;&quot;&gt;params);&lt;/span&gt;&lt;/div&gt;" style="rounded=1;whiteSpace=wrap;html=1;" parent="1" vertex="1">
                    <mxGeometry x="510" y="100" width="307" height="70" as="geometry"/>
                </mxCell>
                <mxCell id="yRpksBQJHvgPAqN1ccL3-5" value="gem5::o3::CPU" style="swimlane;startSize=23;" parent="1" vertex="1">
                    <mxGeometry x="-75" y="120" width="540" height="820" as="geometry">
                        <mxRectangle x="-75" y="160" width="100" height="30" as="alternateBounds"/>
                    </mxGeometry>
                </mxCell>
                <mxCell id="yRpksBQJHvgPAqN1ccL3-6" value="&lt;div style=&quot;background-color: rgb(30, 30, 30); font-family: Consolas, &amp;quot;Courier New&amp;quot;, monospace; font-size: 15.4px; line-height: 20px;&quot;&gt;&lt;div style=&quot;&quot;&gt;&lt;span style=&quot;color: rgb(255, 255, 255);&quot;&gt;public:&lt;/span&gt;&lt;br&gt;&lt;/div&gt;&lt;div style=&quot;&quot;&gt;&lt;div style=&quot;color: rgb(212, 212, 212); font-size: 15.12px; line-height: 20px;&quot;&gt;&amp;nbsp; &amp;nbsp; BaseMMU *mmu;&lt;/div&gt;&lt;div style=&quot;font-size: 15.12px; line-height: 20px;&quot;&gt;&lt;font color=&quot;#6a9955&quot;&gt;// 下面是5个Buffer，可以理解为各个stage之间的连线wire&lt;/font&gt;&lt;/div&gt;&lt;div style=&quot;font-size: 15.12px; line-height: 20px;&quot;&gt;&lt;font color=&quot;#6a9955&quot;&gt;// 它们是公有区域，用于&lt;/font&gt;&lt;span style=&quot;color: rgb(106, 153, 85);&quot;&gt;存放各stage之间输入输出的消息&lt;/span&gt;&lt;/div&gt;&lt;div style=&quot;font-size: 15.12px; line-height: 20px;&quot;&gt;&lt;div style=&quot;font-size: 14.84px; line-height: 20px;&quot;&gt;&lt;div style=&quot;color: rgb(212, 212, 212);&quot;&gt;&lt;span style=&quot;color: #6a9955;&quot;&gt;&amp;nbsp; &amp;nbsp; /** The main time buffer to do backwards communication. */&lt;/span&gt;&lt;/div&gt;&lt;div style=&quot;&quot;&gt;&lt;font color=&quot;#d4d4d4&quot;&gt;&amp;nbsp; &amp;nbsp; TimeBuffer&amp;lt;TimeStruct&amp;gt; &lt;/font&gt;&lt;font color=&quot;#ff9999&quot;&gt;timeBuffer&lt;/font&gt;&lt;font color=&quot;#d4d4d4&quot;&gt;;&lt;/font&gt;&lt;/div&gt;&lt;div style=&quot;color: rgb(212, 212, 212);&quot;&gt;&lt;span style=&quot;color: #6a9955;&quot;&gt;&amp;nbsp; &amp;nbsp; /** The fetch stage's instruction queue. */&lt;/span&gt;&lt;/div&gt;&lt;div style=&quot;&quot;&gt;&lt;span style=&quot;color: rgb(212, 212, 212);&quot;&gt;&amp;nbsp; &amp;nbsp; TimeBuffer&amp;lt;FetchStruct&amp;gt; &lt;/span&gt;&lt;font color=&quot;#ff9999&quot;&gt;fetchQueue&lt;/font&gt;&lt;font color=&quot;#d4d4d4&quot;&gt;;&lt;/font&gt;&lt;/div&gt;&lt;div style=&quot;color: rgb(212, 212, 212);&quot;&gt;&lt;span style=&quot;color: #6a9955;&quot;&gt;&amp;nbsp; &amp;nbsp; /** The decode stage's instruction queue. */&lt;/span&gt;&lt;/div&gt;&lt;div style=&quot;&quot;&gt;&lt;span style=&quot;color: rgb(212, 212, 212);&quot;&gt;&amp;nbsp; &amp;nbsp; TimeBuffer&amp;lt;DecodeStruct&amp;gt; &lt;/span&gt;&lt;font color=&quot;#ff9999&quot;&gt;decodeQueue&lt;/font&gt;&lt;font color=&quot;#d4d4d4&quot;&gt;;&lt;/font&gt;&lt;/div&gt;&lt;div style=&quot;color: rgb(212, 212, 212);&quot;&gt;&lt;span style=&quot;color: #6a9955;&quot;&gt;&amp;nbsp; &amp;nbsp; /** The rename stage's instruction queue. */&lt;/span&gt;&lt;/div&gt;&lt;div style=&quot;&quot;&gt;&lt;span style=&quot;color: rgb(212, 212, 212);&quot;&gt;&amp;nbsp; &amp;nbsp; TimeBuffer&amp;lt;RenameStruct&amp;gt; &lt;/span&gt;&lt;font color=&quot;#ff9999&quot;&gt;renameQueue&lt;/font&gt;&lt;font color=&quot;#d4d4d4&quot;&gt;;&lt;/font&gt;&lt;/div&gt;&lt;div style=&quot;color: rgb(212, 212, 212);&quot;&gt;&lt;span style=&quot;color: #6a9955;&quot;&gt;&amp;nbsp; &amp;nbsp; /** The IEW stage's instruction queue. */&lt;/span&gt;&lt;/div&gt;&lt;div style=&quot;&quot;&gt;&lt;span style=&quot;color: rgb(212, 212, 212);&quot;&gt;&amp;nbsp; &amp;nbsp; TimeBuffer&amp;lt;IEWStruct&amp;gt; &lt;/span&gt;&lt;font color=&quot;#ff9999&quot;&gt;iewQueue&lt;/font&gt;&lt;font color=&quot;#d4d4d4&quot;&gt;;&lt;/font&gt;&lt;/div&gt;&lt;/div&gt;&lt;/div&gt;&lt;div style=&quot;color: rgb(212, 212, 212); font-size: 15.12px; line-height: 20px;&quot;&gt;...&lt;/div&gt;&lt;div style=&quot;color: rgb(212, 212, 212); font-size: 15.12px; line-height: 20px;&quot;&gt;protected:&lt;/div&gt;&lt;/div&gt;&lt;div style=&quot;color: rgb(212, 212, 212);&quot;&gt;&lt;span style=&quot;color: #6a9955;&quot;&gt;&amp;nbsp; &amp;nbsp; /** The fetch stage. */&lt;/span&gt;&lt;/div&gt;&lt;div style=&quot;color: rgb(212, 212, 212);&quot;&gt;&amp;nbsp; &amp;nbsp; Fetch fetch;&lt;/div&gt;&lt;div style=&quot;color: rgb(212, 212, 212);&quot;&gt;&lt;span style=&quot;color: #6a9955;&quot;&gt;&amp;nbsp; &amp;nbsp; /** The decode stage. */&lt;/span&gt;&lt;/div&gt;&lt;div style=&quot;color: rgb(212, 212, 212);&quot;&gt;&amp;nbsp; &amp;nbsp; Decode decode;&lt;/div&gt;&lt;div style=&quot;color: rgb(212, 212, 212);&quot;&gt;&lt;span style=&quot;color: #6a9955;&quot;&gt;&amp;nbsp; &amp;nbsp; /** The dispatch stage. */&lt;/span&gt;&lt;/div&gt;&lt;div style=&quot;color: rgb(212, 212, 212);&quot;&gt;&amp;nbsp; &amp;nbsp; Rename rename;&lt;/div&gt;&lt;div style=&quot;color: rgb(212, 212, 212);&quot;&gt;&lt;span style=&quot;color: #6a9955;&quot;&gt;&amp;nbsp; &amp;nbsp; /** The issue/execute/writeback stages. */&lt;/span&gt;&lt;/div&gt;&lt;div style=&quot;color: rgb(212, 212, 212);&quot;&gt;&amp;nbsp; &amp;nbsp; IEW iew;&lt;/div&gt;&lt;div style=&quot;color: rgb(212, 212, 212);&quot;&gt;&lt;span style=&quot;color: #6a9955;&quot;&gt;&amp;nbsp; &amp;nbsp; /** The commit stage. */&lt;/span&gt;&lt;/div&gt;&lt;div style=&quot;color: rgb(212, 212, 212);&quot;&gt;&amp;nbsp; &amp;nbsp; Commit commit;&lt;/div&gt;&lt;div style=&quot;color: rgb(212, 212, 212);&quot;&gt;&lt;span style=&quot;color: #6a9955;&quot;&gt;&amp;nbsp; &amp;nbsp; /** The register file. */&lt;/span&gt;&lt;/div&gt;&lt;div style=&quot;color: rgb(212, 212, 212);&quot;&gt;&amp;nbsp; &amp;nbsp; PhysRegFile regFile;&lt;/div&gt;&lt;div style=&quot;color: rgb(212, 212, 212);&quot;&gt;...&lt;/div&gt;&lt;div style=&quot;color: rgb(212, 212, 212);&quot;&gt;&lt;div style=&quot;font-size: 15.96px; line-height: 21px;&quot;&gt;&lt;div&gt;&lt;span style=&quot;color: #6a9955;&quot;&gt;&amp;nbsp; &amp;nbsp; /** The re-order buffer. */&lt;/span&gt;&lt;/div&gt;&lt;div&gt;&amp;nbsp; &amp;nbsp; ROB rob;&lt;/div&gt;&lt;div&gt;&lt;span style=&quot;color: #6a9955;&quot;&gt;&amp;nbsp; &amp;nbsp; /** Active Threads List */&lt;/span&gt;&lt;/div&gt;&lt;div&gt;&amp;nbsp; &amp;nbsp; std::list&amp;lt;ThreadID&amp;gt; activeThreads;&lt;/div&gt;&lt;/div&gt;&lt;/div&gt;&lt;/div&gt;" style="text;html=1;align=left;verticalAlign=middle;resizable=0;points=[];autosize=1;strokeColor=none;fillColor=none;" parent="yRpksBQJHvgPAqN1ccL3-5" vertex="1">
                    <mxGeometry y="30" width="530" height="680" as="geometry"/>
                </mxCell>
                <mxCell id="yRpksBQJHvgPAqN1ccL3-7" value="实例化" style="swimlane;startSize=23;" parent="1" vertex="1" collapsed="1">
                    <mxGeometry x="557" y="240" width="100" height="30" as="geometry">
                        <mxRectangle x="414" y="250" width="540" height="250" as="alternateBounds"/>
                    </mxGeometry>
                </mxCell>
                <mxCell id="yRpksBQJHvgPAqN1ccL3-8" value="&lt;div style=&quot;background-color: rgb(30, 30, 30); line-height: 20px;&quot;&gt;&lt;div style=&quot;background-color: rgb(42, 37, 47);&quot;&gt;&lt;div style=&quot;background-color: rgb(30, 30, 30); line-height: 20px;&quot;&gt;&lt;div style=&quot;color: rgb(212, 212, 212); font-size: 15.4px;&quot;&gt;在src/cpu/o3/BaseO3CPU.py中，&lt;span style=&quot;font-family: Helvetica; color: rgb(240, 240, 240); background-color: rgb(42, 37, 47);&quot;&gt;将BaseO3CPU和gem5::o3::CPU类关联&lt;/span&gt;&lt;/div&gt;&lt;div style=&quot;&quot;&gt;&lt;div style=&quot;&quot;&gt;&lt;span style=&quot;font-size: 15.4px;&quot;&gt;，并通过&lt;/span&gt;&lt;span style=&quot;color: rgb(212, 212, 212); font-family: Consolas, &amp;quot;Courier New&amp;quot;, monospace; font-size: 15.12px;&quot;&gt;Param&lt;/span&gt;&lt;span style=&quot;font-size: 15.4px;&quot;&gt;传递了参数：&lt;/span&gt;&lt;/div&gt;&lt;div style=&quot;color: rgb(212, 212, 212); font-family: Consolas, &amp;quot;Courier New&amp;quot;, monospace; font-size: 15.4px; line-height: 20px;&quot;&gt;&lt;div&gt;&lt;span style=&quot;color: rgb(86, 156, 214);&quot;&gt;class&lt;/span&gt;&amp;nbsp;BaseO3CPU(BaseCPU):&lt;/div&gt;&lt;div&gt;&amp;nbsp; &amp;nbsp; type =&amp;nbsp;&lt;span style=&quot;color: rgb(206, 145, 120);&quot;&gt;&quot;BaseO3CPU&quot;&lt;/span&gt;&lt;/div&gt;&lt;div&gt;&amp;nbsp; &amp;nbsp; cxx_class =&amp;nbsp;&lt;span style=&quot;color: rgb(206, 145, 120);&quot;&gt;&quot;gem5::o3::CPU&quot;&lt;/span&gt;&lt;/div&gt;&lt;div&gt;&amp;nbsp; &amp;nbsp; cxx_header =&amp;nbsp;&lt;span style=&quot;color: rgb(206, 145, 120);&quot;&gt;&quot;cpu/o3/dyn_inst.hh&quot;&lt;/span&gt;&lt;/div&gt;&lt;div&gt;&lt;span style=&quot;color: rgb(206, 145, 120);&quot;&gt;...&lt;/span&gt;&lt;/div&gt;&lt;div&gt;&lt;span style=&quot;font-size: 12px; color: rgb(240, 240, 240); font-family: Helvetica; text-align: center; background-color: rgb(42, 37, 47);&quot;&gt;&lt;font style=&quot;font-size: 15.4px;&quot;&gt;在src/cpu/o3/SConscript中，将BaseO3CPU实例化：&lt;/font&gt;&lt;/span&gt;&lt;br style=&quot;font-size: 12px; color: rgb(240, 240, 240); font-family: Helvetica; text-align: center; background-color: rgb(42, 37, 47);&quot;&gt;&lt;div style=&quot;font-size: 12px; color: rgb(240, 240, 240); font-family: Helvetica; background-color: rgb(42, 37, 47);&quot;&gt;&lt;div style=&quot;color: rgb(212, 212, 212); background-color: rgb(30, 30, 30); font-family: Consolas, &amp;quot;Courier New&amp;quot;, monospace; font-size: 15.4px; line-height: 20px;&quot;&gt;&lt;div style=&quot;font-size: 15.12px; line-height: 20px;&quot;&gt;&lt;div&gt;SimObject(&lt;span style=&quot;color: rgb(206, 145, 120);&quot;&gt;'BaseO3CPU.py'&lt;/span&gt;, sim_objects=[&lt;span style=&quot;color: rgb(206, 145, 120);&quot;&gt;'BaseO3CPU'&lt;/span&gt;], enums=[&lt;/div&gt;&lt;div&gt;&amp;nbsp; &amp;nbsp; &amp;nbsp; &amp;nbsp;&amp;nbsp;&lt;span style=&quot;color: rgb(206, 145, 120);&quot;&gt;'SMTFetchPolicy'&lt;/span&gt;,&amp;nbsp;&lt;span style=&quot;color: rgb(206, 145, 120);&quot;&gt;'SMTQueuePolicy'&lt;/span&gt;,&amp;nbsp;&lt;span style=&quot;color: rgb(206, 145, 120);&quot;&gt;'CommitPolicy'&lt;/span&gt;])&lt;/div&gt;&lt;/div&gt;&lt;/div&gt;&lt;/div&gt;&lt;/div&gt;&lt;/div&gt;&lt;/div&gt;&lt;/div&gt;&lt;/div&gt;&lt;/div&gt;" style="text;html=1;align=left;verticalAlign=middle;resizable=0;points=[];autosize=1;strokeColor=none;fillColor=none;" parent="yRpksBQJHvgPAqN1ccL3-7" vertex="1">
                    <mxGeometry y="30" width="520" height="220" as="geometry"/>
                </mxCell>
                <mxCell id="yRpksBQJHvgPAqN1ccL3-9" value="" style="endArrow=none;html=1;entryX=0;entryY=0.5;entryDx=0;entryDy=0;exitX=1.003;exitY=0.025;exitDx=0;exitDy=0;exitPerimeter=0;" parent="1" source="yRpksBQJHvgPAqN1ccL3-5" target="yRpksBQJHvgPAqN1ccL3-7" edge="1">
                    <mxGeometry width="50" height="50" relative="1" as="geometry">
                        <mxPoint x="480" y="220" as="sourcePoint"/>
                        <mxPoint x="387" y="230" as="targetPoint"/>
                    </mxGeometry>
                </mxCell>
                <mxCell id="yRpksBQJHvgPAqN1ccL3-18" value="关键代码：构造函数、事件驱动" style="swimlane;startSize=23;" parent="1" vertex="1">
                    <mxGeometry x="-720" y="80" width="540" height="970" as="geometry">
                        <mxRectangle x="-660" y="140" width="150" height="30" as="alternateBounds"/>
                    </mxGeometry>
                </mxCell>
                <mxCell id="yRpksBQJHvgPAqN1ccL3-19" value="&lt;div style=&quot;background-color: rgb(30, 30, 30); line-height: 20px;&quot;&gt;&lt;div style=&quot;background-color: rgb(42, 37, 47);&quot;&gt;&lt;div style=&quot;background-color: rgb(30, 30, 30); line-height: 20px;&quot;&gt;&lt;div style=&quot;color: rgb(212, 212, 212); font-size: 15.4px;&quot;&gt;&lt;div style=&quot;font-family: Consolas, &amp;quot;Courier New&amp;quot;, monospace; font-size: 15.96px; line-height: 21px;&quot;&gt;&lt;div&gt;&lt;span style=&quot;color: #569cd6;&quot;&gt;void&amp;nbsp;&lt;/span&gt;CPU::tick() {&lt;/div&gt;&lt;div&gt;...&lt;br&gt;&lt;div style=&quot;font-size: 15.96px; line-height: 21px;&quot;&gt;&lt;div&gt;&lt;span style=&quot;color: #6a9955;&quot;&gt;&amp;nbsp; &amp;nbsp; //Tick each of the stages&lt;/span&gt;&lt;/div&gt;&lt;div&gt;&amp;nbsp; &amp;nbsp; fetch.tick();&lt;/div&gt;&lt;div&gt;&amp;nbsp; &amp;nbsp; decode.tick();&lt;/div&gt;&lt;div&gt;&amp;nbsp; &amp;nbsp; rename.tick();&lt;/div&gt;&lt;div&gt;&amp;nbsp; &amp;nbsp; iew.tick();&lt;/div&gt;&lt;div&gt;&amp;nbsp; &amp;nbsp; commit.tick();&lt;/div&gt;&lt;div&gt;&lt;span style=&quot;color: #6a9955;&quot;&gt;&amp;nbsp; &amp;nbsp; // Now advance the time buffers&lt;/span&gt;&lt;/div&gt;&lt;div&gt;&amp;nbsp; &amp;nbsp; timeBuffer.advance();&lt;/div&gt;&lt;div&gt;&amp;nbsp; &amp;nbsp; fetchQueue.advance();&lt;/div&gt;&lt;div&gt;&amp;nbsp; &amp;nbsp; decodeQueue.advance();&lt;/div&gt;&lt;div&gt;&amp;nbsp; &amp;nbsp; renameQueue.advance();&lt;/div&gt;&lt;div&gt;&amp;nbsp; &amp;nbsp; iewQueue.advance();&lt;/div&gt;&lt;/div&gt;&lt;/div&gt;&lt;div&gt;...&lt;/div&gt;&lt;/div&gt;&lt;/div&gt;&lt;/div&gt;&lt;/div&gt;&lt;/div&gt;" style="text;html=1;align=left;verticalAlign=middle;resizable=0;points=[];autosize=1;strokeColor=none;fillColor=none;" parent="yRpksBQJHvgPAqN1ccL3-18" vertex="1">
                    <mxGeometry y="390" width="330" height="330" as="geometry"/>
                </mxCell>
                <mxCell id="yRpksBQJHvgPAqN1ccL3-20" value="&lt;div style=&quot;background-color: rgb(30, 30, 30); line-height: 20px;&quot;&gt;&lt;div style=&quot;background-color: rgb(42, 37, 47);&quot;&gt;&lt;div style=&quot;background-color: rgb(30, 30, 30); line-height: 20px;&quot;&gt;&lt;div style=&quot;color: rgb(212, 212, 212); font-size: 15.4px;&quot;&gt;&lt;div style=&quot;font-family: Consolas, &amp;quot;Courier New&amp;quot;, monospace; font-size: 15.96px; line-height: 21px;&quot;&gt;&lt;div&gt;&lt;div style=&quot;font-size: 15.96px; line-height: 21px;&quot;&gt;&lt;div&gt;&lt;span style=&quot;color: #569cd6;&quot;&gt;void&amp;nbsp;&lt;/span&gt;CPU::startup()&lt;/div&gt;&lt;div&gt;{&lt;/div&gt;&lt;div&gt;&amp;nbsp; &amp;nbsp; BaseCPU::startup();&lt;/div&gt;&lt;br&gt;&lt;div&gt;&amp;nbsp; &amp;nbsp; fetch.startupStage();&lt;/div&gt;&lt;div&gt;&amp;nbsp; &amp;nbsp; decode.startupStage();&lt;/div&gt;&lt;div&gt;&amp;nbsp; &amp;nbsp; iew.startupStage();&lt;/div&gt;&lt;div&gt;&amp;nbsp; &amp;nbsp; rename.startupStage();&lt;/div&gt;&lt;div&gt;&amp;nbsp; &amp;nbsp; commit.startupStage();&lt;/div&gt;&lt;div&gt;}&lt;/div&gt;&lt;/div&gt;&lt;/div&gt;&lt;/div&gt;&lt;/div&gt;&lt;/div&gt;&lt;/div&gt;&lt;/div&gt;" style="text;html=1;align=left;verticalAlign=middle;resizable=0;points=[];autosize=1;strokeColor=none;fillColor=none;" parent="yRpksBQJHvgPAqN1ccL3-18" vertex="1">
                    <mxGeometry y="740" width="250" height="220" as="geometry"/>
                </mxCell>
                <mxCell id="-dLdo1xxMy98Cg99pYZW-1" value="&lt;div style=&quot;background-color: rgb(30, 30, 30); line-height: 20px;&quot;&gt;&lt;div style=&quot;background-color: rgb(42, 37, 47);&quot;&gt;&lt;div style=&quot;background-color: rgb(30, 30, 30); line-height: 20px;&quot;&gt;&lt;div style=&quot;font-size: 15.4px;&quot;&gt;&lt;div style=&quot;font-family: Consolas, &amp;quot;Courier New&amp;quot;, monospace; font-size: 15.96px; line-height: 21px;&quot;&gt;&lt;div style=&quot;color: rgb(212, 212, 212);&quot;&gt;&lt;span style=&quot;color: #569cd6;&quot;&gt;void&amp;nbsp;&lt;/span&gt;CPU::tick() {&lt;/div&gt;&lt;div style=&quot;&quot;&gt;&lt;font color=&quot;#d4d4d4&quot;&gt;...&lt;/font&gt;&lt;br&gt;&lt;div style=&quot;font-size: 15.96px; line-height: 21px;&quot;&gt;&lt;div style=&quot;font-size: 14.84px; line-height: 20px;&quot;&gt;&lt;font color=&quot;#6a9955&quot;&gt;// 初始化每个TimeBuffer，作为stage之间的连线wire&lt;/font&gt;&lt;/div&gt;&lt;div style=&quot;font-size: 14.84px; line-height: 20px;&quot;&gt;&lt;font color=&quot;#6a9955&quot;&gt;// 例如fetchQueue，作为Fetch的输出和Decode的输入，可以被两者访问&lt;br&gt;&lt;/font&gt;&lt;div style=&quot;color: rgb(212, 212, 212);&quot;&gt;&lt;span style=&quot;color: #6a9955;&quot;&gt;&amp;nbsp; &amp;nbsp; // Also setup each of the stages' queues.&lt;/span&gt;&lt;/div&gt;&lt;div style=&quot;&quot;&gt;&lt;span style=&quot;color: rgb(212, 212, 212);&quot;&gt;&amp;nbsp; &amp;nbsp; fetch.setFetchQueue(&amp;amp;&lt;/span&gt;&lt;font color=&quot;#ff9999&quot;&gt;fetchQueue&lt;/font&gt;&lt;font color=&quot;#d4d4d4&quot;&gt;);&lt;/font&gt;&lt;/div&gt;&lt;div style=&quot;color: rgb(212, 212, 212);&quot;&gt;&amp;nbsp; &amp;nbsp; decode.setFetchQueue(&amp;amp;fetchQueue);&lt;/div&gt;&lt;div style=&quot;&quot;&gt;&lt;font color=&quot;#d4d4d4&quot;&gt;&amp;nbsp; &amp;nbsp; commit.setFetchQueue(&amp;amp;fetchQueue); &lt;/font&gt;&lt;font color=&quot;#6a9955&quot;&gt;// 这个似乎没有用到&lt;/font&gt;&lt;/div&gt;&lt;div style=&quot;&quot;&gt;&lt;span style=&quot;color: rgb(212, 212, 212);&quot;&gt;&amp;nbsp; &amp;nbsp; decode.setDecodeQueue(&amp;amp;&lt;/span&gt;&lt;font color=&quot;#ff9999&quot;&gt;decodeQueue&lt;/font&gt;&lt;font color=&quot;#d4d4d4&quot;&gt;);&lt;/font&gt;&lt;/div&gt;&lt;div style=&quot;color: rgb(212, 212, 212);&quot;&gt;&amp;nbsp; &amp;nbsp; rename.setDecodeQueue(&amp;amp;decodeQueue);&lt;/div&gt;&lt;div style=&quot;&quot;&gt;&lt;span style=&quot;color: rgb(212, 212, 212);&quot;&gt;&amp;nbsp; &amp;nbsp; rename.setRenameQueue(&amp;amp;&lt;/span&gt;&lt;font color=&quot;#ff9999&quot;&gt;renameQueue&lt;/font&gt;&lt;font color=&quot;#d4d4d4&quot;&gt;);&lt;/font&gt;&lt;/div&gt;&lt;div style=&quot;color: rgb(212, 212, 212);&quot;&gt;&amp;nbsp; &amp;nbsp; iew.setRenameQueue(&amp;amp;renameQueue);&lt;/div&gt;&lt;div style=&quot;&quot;&gt;&lt;span style=&quot;color: rgb(212, 212, 212);&quot;&gt;&amp;nbsp; &amp;nbsp; iew.setIEWQueue(&amp;amp;&lt;/span&gt;&lt;font color=&quot;#ff9999&quot;&gt;iewQueue&lt;/font&gt;&lt;font color=&quot;#d4d4d4&quot;&gt;);&lt;/font&gt;&lt;/div&gt;&lt;div style=&quot;color: rgb(212, 212, 212);&quot;&gt;&amp;nbsp; &amp;nbsp; commit.setIEWQueue(&amp;amp;iewQueue);&lt;/div&gt;&lt;div style=&quot;color: rgb(212, 212, 212);&quot;&gt;&amp;nbsp; &amp;nbsp; commit.setRenameQueue(&amp;amp;renameQueue);&lt;/div&gt;&lt;/div&gt;&lt;/div&gt;&lt;/div&gt;&lt;div style=&quot;color: rgb(212, 212, 212);&quot;&gt;...&lt;/div&gt;&lt;/div&gt;&lt;/div&gt;&lt;/div&gt;&lt;/div&gt;&lt;/div&gt;" style="text;html=1;align=left;verticalAlign=middle;resizable=0;points=[];autosize=1;strokeColor=none;fillColor=none;" vertex="1" parent="yRpksBQJHvgPAqN1ccL3-18">
                    <mxGeometry y="40" width="520" height="340" as="geometry"/>
                </mxCell>
                <mxCell id="yRpksBQJHvgPAqN1ccL3-23" style="edgeStyle=none;html=1;exitX=0.998;exitY=0.038;exitDx=0;exitDy=0;entryX=-0.001;entryY=0.043;entryDx=0;entryDy=0;entryPerimeter=0;fontColor=#FFFFFF;endArrow=none;endFill=0;exitPerimeter=0;" parent="1" source="yRpksBQJHvgPAqN1ccL3-18" target="yRpksBQJHvgPAqN1ccL3-5" edge="1">
                    <mxGeometry relative="1" as="geometry">
                        <mxPoint x="-170" y="200.0000000000001" as="sourcePoint"/>
                        <mxPoint x="-97.23000000000002" y="289.2800000000001" as="targetPoint"/>
                    </mxGeometry>
                </mxCell>
                <mxCell id="zIGV5QPG4ARW6qxfrmee-1" value="" style="endArrow=none;html=1;entryX=0;entryY=0.25;entryDx=0;entryDy=0;exitX=1.001;exitY=0.011;exitDx=0;exitDy=0;exitPerimeter=0;" edge="1" parent="1" source="yRpksBQJHvgPAqN1ccL3-5" target="yRpksBQJHvgPAqN1ccL3-4">
                    <mxGeometry width="50" height="50" relative="1" as="geometry">
                        <mxPoint x="439.9999999999997" y="20" as="sourcePoint"/>
                        <mxPoint x="540.4099999999995" y="134.5" as="targetPoint"/>
                    </mxGeometry>
                </mxCell>
            </root>
        </mxGraphModel>
    </diagram>
    <diagram id="mYF64xDTud1y6wNXV5n2" name="Fetch">
        <mxGraphModel dx="1895" dy="523" grid="1" gridSize="10" guides="1" tooltips="1" connect="1" arrows="1" fold="1" page="1" pageScale="1" pageWidth="827" pageHeight="1169" math="0" shadow="0">
            <root>
                <mxCell id="0"/>
                <mxCell id="1" parent="0"/>
                <mxCell id="66mU_7PJDNLnkaf3Hdjs-1" style="edgeStyle=none;html=1;exitX=1;exitY=0.042;exitDx=0;exitDy=0;entryX=-0.01;entryY=0.056;entryDx=0;entryDy=0;entryPerimeter=0;fontColor=#FFFFFF;endArrow=none;endFill=0;exitPerimeter=0;" parent="1" source="66mU_7PJDNLnkaf3Hdjs-2" target="66mU_7PJDNLnkaf3Hdjs-6" edge="1">
                    <mxGeometry relative="1" as="geometry">
                        <mxPoint x="968.25" y="88.60000000000002" as="sourcePoint"/>
                    </mxGeometry>
                </mxCell>
                <mxCell id="66mU_7PJDNLnkaf3Hdjs-2" value="gem5::o3::Fetch" style="swimlane;startSize=23;" parent="1" vertex="1">
                    <mxGeometry x="179" y="90" width="611" height="570" as="geometry">
                        <mxRectangle x="-200" y="804" width="100" height="116" as="alternateBounds"/>
                    </mxGeometry>
                </mxCell>
                <mxCell id="66mU_7PJDNLnkaf3Hdjs-3" value="&lt;div style=&quot;background-color: rgb(30, 30, 30); line-height: 20px;&quot;&gt;&lt;div style=&quot;font-size: 15.4px; font-family: Consolas, &amp;quot;Courier New&amp;quot;, monospace;&quot;&gt;&lt;div style=&quot;font-size: 14.84px; line-height: 20px;&quot;&gt;&lt;div style=&quot;&quot;&gt;&lt;div style=&quot;color: rgb(212, 212, 212); line-height: 20px;&quot;&gt;&lt;div&gt;public：&lt;/div&gt;&lt;div&gt;&lt;span style=&quot;color: #6a9955;&quot;&gt;&amp;nbsp; &amp;nbsp; &amp;nbsp;/* IcachePort class for instruction fetch.&amp;nbsp;&lt;/span&gt;&lt;span style=&quot;color: rgb(106, 153, 85);&quot;&gt;*/&lt;/span&gt;&lt;/div&gt;&lt;div&gt;&amp;nbsp; &amp;nbsp; &lt;span style=&quot;color: #569cd6;&quot;&gt;class&lt;/span&gt; IcachePort : &lt;span style=&quot;color: #569cd6;&quot;&gt;public&lt;/span&gt; RequestPort {...}&lt;/div&gt;&lt;div&gt;&lt;div style=&quot;line-height: 20px;&quot;&gt;&amp;nbsp; &amp;nbsp; &lt;span style=&quot;color: #569cd6;&quot;&gt;class&lt;/span&gt; FetchTranslation : &lt;span style=&quot;color: #569cd6;&quot;&gt;public&lt;/span&gt; BaseMMU::Translation {...}&lt;/div&gt;&lt;/div&gt;&lt;/div&gt;&lt;/div&gt;&lt;div style=&quot;&quot;&gt;&lt;font color=&quot;#d4d4d4&quot;&gt;private：&lt;/font&gt;&lt;/div&gt;&lt;div style=&quot;&quot;&gt;&lt;font color=&quot;#6a9955&quot;&gt;// 5个wire：4个流入，1个流出&lt;/font&gt;&lt;/div&gt;&lt;div style=&quot;color: rgb(212, 212, 212);&quot;&gt;&lt;span style=&quot;color: #6a9955;&quot;&gt;&amp;nbsp; &amp;nbsp; /** Wire to get decode's information from backwards time buffer. */&lt;/span&gt;&lt;/div&gt;&lt;div style=&quot;color: rgb(212, 212, 212);&quot;&gt;&amp;nbsp; &amp;nbsp; TimeBuffer&amp;lt;TimeStruct&amp;gt;::wire fromDecode;&lt;/div&gt;&lt;div style=&quot;color: rgb(212, 212, 212);&quot;&gt;&lt;span style=&quot;color: #6a9955;&quot;&gt;&amp;nbsp; &amp;nbsp; /** Wire to get rename's information from backwards time buffer. */&lt;/span&gt;&lt;/div&gt;&lt;div style=&quot;color: rgb(212, 212, 212);&quot;&gt;&amp;nbsp; &amp;nbsp; TimeBuffer&amp;lt;TimeStruct&amp;gt;::wire fromRename;&lt;/div&gt;&lt;div style=&quot;color: rgb(212, 212, 212);&quot;&gt;&lt;span style=&quot;color: #6a9955;&quot;&gt;&amp;nbsp; &amp;nbsp; /** Wire to get iew's information from backwards time buffer. */&lt;/span&gt;&lt;/div&gt;&lt;div style=&quot;color: rgb(212, 212, 212);&quot;&gt;&amp;nbsp; &amp;nbsp; TimeBuffer&amp;lt;TimeStruct&amp;gt;::wire fromIEW;&lt;/div&gt;&lt;div style=&quot;color: rgb(212, 212, 212);&quot;&gt;&lt;span style=&quot;color: #6a9955;&quot;&gt;&amp;nbsp; &amp;nbsp; /** Wire to get commit's information from backwards time buffer. */&lt;/span&gt;&lt;/div&gt;&lt;div style=&quot;color: rgb(212, 212, 212);&quot;&gt;&amp;nbsp; &amp;nbsp; TimeBuffer&amp;lt;TimeStruct&amp;gt;::wire fromCommit;&lt;/div&gt;&lt;div style=&quot;color: rgb(212, 212, 212);&quot;&gt;&lt;span style=&quot;color: #6a9955;&quot;&gt;&amp;nbsp; &amp;nbsp; /** Wire used to write any information heading to decode. */&lt;/span&gt;&lt;/div&gt;&lt;div style=&quot;color: rgb(212, 212, 212);&quot;&gt;&amp;nbsp; &amp;nbsp; TimeBuffer&amp;lt;FetchStruct&amp;gt;::wire toDecode;&lt;/div&gt;&lt;div style=&quot;color: rgb(212, 212, 212);&quot;&gt;&lt;div style=&quot;line-height: 20px;&quot;&gt;&lt;div&gt;&lt;span style=&quot;color: #6a9955;&quot;&gt;&amp;nbsp; &amp;nbsp; /** Decode to fetch delay. */&lt;/span&gt;&lt;/div&gt;&lt;div&gt;&amp;nbsp; &amp;nbsp; Cycles decodeToFetchDelay;&lt;/div&gt;&lt;div&gt;&lt;span style=&quot;color: #6a9955;&quot;&gt;&amp;nbsp; &amp;nbsp; /** Rename to fetch delay. */&lt;/span&gt;&lt;/div&gt;&lt;div&gt;&amp;nbsp; &amp;nbsp; Cycles renameToFetchDelay;&lt;/div&gt;&lt;div&gt;&lt;span style=&quot;color: #6a9955;&quot;&gt;&amp;nbsp; &amp;nbsp; /** IEW to fetch delay. */&lt;/span&gt;&lt;/div&gt;&lt;div&gt;&amp;nbsp; &amp;nbsp; Cycles iewToFetchDelay;&lt;/div&gt;&lt;div&gt;&lt;span style=&quot;color: #6a9955;&quot;&gt;&amp;nbsp; &amp;nbsp; /** Commit to fetch delay. */&lt;/span&gt;&lt;/div&gt;&lt;div&gt;&amp;nbsp; &amp;nbsp; Cycles commitToFetchDelay;&lt;/div&gt;&lt;/div&gt;&lt;/div&gt;&lt;/div&gt;&lt;/div&gt;&lt;/div&gt;" style="text;html=1;align=left;verticalAlign=middle;resizable=0;points=[];autosize=1;strokeColor=none;fillColor=none;" parent="66mU_7PJDNLnkaf3Hdjs-2" vertex="1">
                    <mxGeometry y="50" width="600" height="490" as="geometry"/>
                </mxCell>
                <mxCell id="66mU_7PJDNLnkaf3Hdjs-4" value="&lt;div style=&quot;color: rgb(212, 212, 212); font-family: Consolas, &amp;quot;Courier New&amp;quot;, monospace; font-size: 15.96px; line-height: 21px;&quot;&gt;&lt;span style=&quot;background-color: rgb(24, 20, 29);&quot;&gt;构造函数&lt;/span&gt;&lt;/div&gt;&lt;div style=&quot;color: rgb(212, 212, 212); background-color: rgb(30, 30, 30); font-family: Consolas, &amp;quot;Courier New&amp;quot;, monospace; font-size: 15.96px; line-height: 21px;&quot;&gt;Fetch(CPU &lt;span style=&quot;color: #569cd6;&quot;&gt;*&lt;/span&gt;_cpu, &lt;span style=&quot;color: #569cd6;&quot;&gt;const&lt;/span&gt; BaseO3CPUParams &lt;span style=&quot;color: #569cd6;&quot;&gt;&amp;amp;&lt;/span&gt;params);&lt;/div&gt;" style="rounded=1;whiteSpace=wrap;html=1;" parent="1" vertex="1">
                    <mxGeometry x="1190" y="110" width="440" height="70" as="geometry"/>
                </mxCell>
                <mxCell id="66mU_7PJDNLnkaf3Hdjs-5" value="" style="endArrow=none;html=1;fontColor=#FFFFFF;entryX=0;entryY=0.5;entryDx=0;entryDy=0;exitX=1.001;exitY=0.025;exitDx=0;exitDy=0;exitPerimeter=0;" parent="1" source="66mU_7PJDNLnkaf3Hdjs-2" target="66mU_7PJDNLnkaf3Hdjs-4" edge="1">
                    <mxGeometry width="50" height="50" relative="1" as="geometry">
                        <mxPoint x="920" y="110" as="sourcePoint"/>
                        <mxPoint x="972.8" y="-124" as="targetPoint"/>
                    </mxGeometry>
                </mxCell>
                <mxCell id="66mU_7PJDNLnkaf3Hdjs-6" value="实例化" style="swimlane;startSize=23;" parent="1" vertex="1" collapsed="1">
                    <mxGeometry x="1213" y="220" width="100" height="30" as="geometry">
                        <mxRectangle x="657" y="160" width="420" height="250" as="alternateBounds"/>
                    </mxGeometry>
                </mxCell>
                <mxCell id="66mU_7PJDNLnkaf3Hdjs-7" value="&lt;span style=&quot;font-family: Söhne, ui-sans-serif, system-ui, -apple-system, &amp;quot;Segoe UI&amp;quot;, Roboto, Ubuntu, Cantarell, &amp;quot;Noto Sans&amp;quot;, sans-serif, &amp;quot;Helvetica Neue&amp;quot;, Arial, &amp;quot;Apple Color Emoji&amp;quot;, &amp;quot;Segoe UI Emoji&amp;quot;, &amp;quot;Segoe UI Symbol&amp;quot;, &amp;quot;Noto Color Emoji&amp;quot;; font-size: 16px;&quot;&gt;当创建 O3 CPU 的实例时，&lt;br&gt;Fetch 类的实例也会被创建作为该 CPU 模型的一部分。&lt;/span&gt;" style="text;html=1;align=left;verticalAlign=middle;resizable=0;points=[];autosize=1;strokeColor=none;fillColor=none;fontColor=#FFFFFF;container=0;" parent="66mU_7PJDNLnkaf3Hdjs-6" vertex="1">
                    <mxGeometry y="30" width="420" height="50" as="geometry"/>
                </mxCell>
                <mxCell id="66mU_7PJDNLnkaf3Hdjs-8" value="&lt;div style=&quot;background-color: rgb(30, 30, 30); line-height: 20px;&quot;&gt;&lt;div style=&quot;background-color: rgb(42, 37, 47);&quot;&gt;&lt;div style=&quot;background-color: rgb(30, 30, 30); line-height: 20px;&quot;&gt;&lt;div style=&quot;font-size: 15.4px;&quot;&gt;&lt;br&gt;&lt;/div&gt;&lt;/div&gt;&lt;/div&gt;&lt;/div&gt;" style="text;html=1;align=center;verticalAlign=middle;resizable=0;points=[];autosize=1;strokeColor=none;fillColor=none;labelPosition=center;verticalLabelPosition=middle;" parent="1" vertex="1">
                    <mxGeometry x="1312" y="250" width="20" height="30" as="geometry"/>
                </mxCell>
                <mxCell id="eKDVVrpwqSBAafih0iPy-1" value="关键代码" style="swimlane;startSize=23;" vertex="1" parent="1">
                    <mxGeometry x="-800" y="100" width="960" height="840" as="geometry">
                        <mxRectangle x="-800" y="100" width="100" height="116" as="alternateBounds"/>
                    </mxGeometry>
                </mxCell>
                <mxCell id="eKDVVrpwqSBAafih0iPy-2" value="&lt;div style=&quot;background-color: rgb(30, 30, 30); line-height: 20px;&quot;&gt;&lt;div style=&quot;font-size: 15.4px; font-family: Consolas, &amp;quot;Courier New&amp;quot;, monospace;&quot;&gt;&lt;span style=&quot;color: rgb(86, 156, 214); font-size: 15.96px;&quot;&gt;void&amp;nbsp;&lt;/span&gt;&lt;span style=&quot;color: rgb(212, 212, 212); font-size: 15.96px;&quot;&gt;Fetch::tick()&lt;/span&gt;&lt;/div&gt;&lt;div style=&quot;font-size: 15.4px; font-family: Consolas, &amp;quot;Courier New&amp;quot;, monospace; color: rgb(212, 212, 212);&quot;&gt;|遍历activeThreads&lt;br&gt;|如果是FS，处理中断pending和clear&lt;/div&gt;&lt;div style=&quot;font-size: 15.4px; font-family: Consolas, &amp;quot;Courier New&amp;quot;, monospace; color: rgb(212, 212, 212);&quot;&gt;&lt;div style=&quot;font-size: 15.96px; line-height: 21px;&quot;&gt;&lt;span style=&quot;color: #6a9955;&quot;&gt;// Fetch each of the actively fetching threads.&lt;/span&gt;&lt;/div&gt;&lt;/div&gt;&lt;div style=&quot;font-size: 15.4px; font-family: Consolas, &amp;quot;Courier New&amp;quot;, monospace;&quot;&gt;&lt;span style=&quot;color: rgb(212, 212, 212);&quot;&gt;|调用&lt;/span&gt;&lt;font color=&quot;#d4d4d4&quot;&gt;Fetch::fetch()函数实际fetch，直到所有fetching状态的thread完成&lt;/font&gt;&lt;/div&gt;&lt;div style=&quot;font-size: 15.4px; font-family: Consolas, &amp;quot;Courier New&amp;quot;, monospace; color: rgb(212, 212, 212);&quot;&gt;||获取当前thread即tid&lt;/div&gt;&lt;div style=&quot;font-size: 15.4px; font-family: Consolas, &amp;quot;Courier New&amp;quot;, monospace; color: rgb(212, 212, 212);&quot;&gt;||获取当前thread的指针即&lt;span style=&quot;font-size: 15.96px;&quot;&gt;this_pc&lt;/span&gt;&lt;/div&gt;&lt;div style=&quot;font-size: 15.4px; font-family: Consolas, &amp;quot;Courier New&amp;quot;, monospace; color: rgb(212, 212, 212);&quot;&gt;&lt;span style=&quot;font-size: 15.96px;&quot;&gt;||判断是否rom中的微指令，记在布尔变量&lt;/span&gt;&lt;span style=&quot;font-size: 15.96px;&quot;&gt;inRom中&lt;/span&gt;&lt;/div&gt;&lt;div style=&quot;&quot;&gt;&lt;div style=&quot;line-height: 19px;&quot;&gt;&lt;span style=&quot;color: rgb(106, 153, 85); font-family: Consolas, &amp;quot;Courier New&amp;quot;, monospace; font-size: 14px;&quot;&gt;//&amp;nbsp;&lt;/span&gt;&lt;font face=&quot;Consolas, Courier New, monospace&quot; color=&quot;#6a9955&quot;&gt;&lt;span style=&quot;font-size: 14px;&quot;&gt;如果从缓存未命中的延迟中恢复，则将状态更新为正在运行，否则进行缓存访问&lt;/span&gt;&lt;/font&gt;&lt;span style=&quot;color: rgb(106, 153, 85); font-family: Consolas, &amp;quot;Courier New&amp;quot;, monospace; font-size: 14px;&quot;&gt;.&lt;/span&gt;&lt;/div&gt;&lt;/div&gt;&lt;div style=&quot;font-size: 15.96px;&quot;&gt;&lt;span style=&quot;color: rgb(212, 212, 212); font-family: Consolas, &amp;quot;Courier New&amp;quot;, monospace; font-size: 15.96px;&quot;&gt;||&lt;/span&gt;&lt;font style=&quot;font-size: 15.96px;&quot; face=&quot;Consolas, Courier New, monospace&quot; color=&quot;#d4d4d4&quot;&gt;&lt;span style=&quot;&quot;&gt;fetchStatus如果是icache访问完成，则修改状态为Running，继续；&lt;/span&gt;&lt;/font&gt;&lt;/div&gt;&lt;div style=&quot;font-size: 15.96px;&quot;&gt;&lt;font style=&quot;font-size: 15.96px;&quot; face=&quot;Consolas, Courier New, monospace&quot; color=&quot;#d4d4d4&quot;&gt;&lt;span style=&quot;&quot;&gt;||如果是Idle则donothing返回；&lt;/span&gt;&lt;/font&gt;&lt;/div&gt;&lt;div style=&quot;font-size: 15.96px;&quot;&gt;&lt;font style=&quot;font-size: 15.96px;&quot; face=&quot;Consolas, Courier New, monospace&quot; color=&quot;#d4d4d4&quot;&gt;&lt;span style=&quot;&quot;&gt;||如果是Running状态，也会返回，返回前会做：&lt;/span&gt;&lt;/font&gt;&lt;/div&gt;&lt;div style=&quot;font-size: 15.96px;&quot;&gt;&lt;font style=&quot;font-size: 15.96px;&quot; face=&quot;Consolas, Courier New, monospace&quot; color=&quot;#d4d4d4&quot;&gt;&lt;span style=&quot;&quot;&gt;||&amp;nbsp; &amp;nbsp; 计算PC的对齐地址&lt;/span&gt;&lt;/font&gt;&lt;span style=&quot;color: rgb(212, 212, 212); font-family: Consolas, &amp;quot;Courier New&amp;quot;, monospace;&quot;&gt;fetchBufferBlockPC&lt;/span&gt;&lt;span style=&quot;color: rgb(212, 212, 212); font-family: Consolas, &amp;quot;Courier New&amp;quot;, monospace;&quot;&gt;：&lt;/span&gt;&lt;/div&gt;&lt;div style=&quot;font-size: 15.96px;&quot;&gt;&lt;span style=&quot;color: rgb(212, 212, 212); font-family: Consolas, &amp;quot;Courier New&amp;quot;, monospace;&quot;&gt;||&amp;nbsp; &amp;nbsp; 如果buffer无效或&lt;/span&gt;&lt;span style=&quot;color: rgb(212, 212, 212); font-family: Consolas, &amp;quot;Courier New&amp;quot;, monospace;&quot;&gt;fetchBufferBlockPC在下一个cache block，并且inRom为0，并且没有遗留的微操作，则&lt;/span&gt;&lt;/div&gt;&lt;div style=&quot;font-size: 15.96px;&quot;&gt;&lt;span style=&quot;color: rgb(212, 212, 212); font-family: Consolas, &amp;quot;Courier New&amp;quot;, monospace;&quot;&gt;||&amp;nbsp; &amp;nbsp; 调用&lt;/span&gt;&lt;span style=&quot;color: rgb(212, 212, 212); font-family: Consolas, &amp;quot;Courier New&amp;quot;, monospace;&quot;&gt;fetchCacheLine()从cache取数据，包含pc指向的指令&lt;/span&gt;&lt;/div&gt;&lt;div style=&quot;font-size: 15.96px;&quot;&gt;&lt;span style=&quot;color: rgb(106, 153, 85); font-family: Consolas, &amp;quot;Courier New&amp;quot;, monospace; font-size: 14px;&quot;&gt;// 如果成功读到第一个指令，从cache line的剩余部分抓取指令，并把它们放到队列头，准备decode&lt;/span&gt;&lt;/div&gt;&lt;div style=&quot;&quot;&gt;&lt;div style=&quot;font-size: 14px; color: rgb(212, 212, 212); font-family: Consolas, &amp;quot;Courier New&amp;quot;, monospace; line-height: 19px;&quot;&gt;&lt;span style=&quot;color: #6a9955;&quot;&gt;// 从cache中循环读取指令，除非超过&lt;/span&gt;&lt;span style=&quot;color: rgb(106, 153, 85); font-size: 14.84px;&quot;&gt;fetchWidth或发生分支预测&lt;/span&gt;&lt;/div&gt;&lt;div style=&quot;font-family: Consolas, &amp;quot;Courier New&amp;quot;, monospace; line-height: 19px;&quot;&gt;&lt;font color=&quot;#6a9955&quot;&gt;&lt;span style=&quot;font-size: 14.84px;&quot;&gt;//// 如果需要的话，从icache的下一个block继续读取指令&lt;/span&gt;&lt;/font&gt;&lt;/div&gt;&lt;div style=&quot;font-family: Consolas, &amp;quot;Courier New&amp;quot;, monospace; line-height: 19px;&quot;&gt;&lt;font color=&quot;#6a9955&quot;&gt;&lt;span style=&quot;font-size: 14.84px;&quot;&gt;//// 尽可能多地解压(预解码)指令或者宏操作，过程中&lt;/span&gt;&lt;/font&gt;&lt;span style=&quot;color: rgb(212, 212, 212); font-size: 14.84px;&quot;&gt;numInst++&lt;/span&gt;&lt;/div&gt;&lt;div style=&quot;font-family: Consolas, &amp;quot;Courier New&amp;quot;, monospace; line-height: 19px;&quot;&gt;&lt;font color=&quot;#6a9955&quot;&gt;&lt;span style=&quot;font-size: 14.84px;&quot;&gt;// 如果到了fetch buffer的界限，pipeline一个fetch&lt;/span&gt;&lt;/font&gt;&lt;/div&gt;&lt;/div&gt;&lt;div style=&quot;font-size: 15.4px; font-family: Consolas, &amp;quot;Courier New&amp;quot;, monospace; color: rgb(212, 212, 212);&quot;&gt;|记录这个cycle预取的指令数&lt;span style=&quot;font-size: 14.84px;&quot;&gt;numInst&lt;/span&gt;&lt;/div&gt;&lt;div style=&quot;font-size: 15.4px; font-family: Consolas, &amp;quot;Courier New&amp;quot;, monospace; color: rgb(212, 212, 212);&quot;&gt;|更新fetch阶段的状态&lt;/div&gt;&lt;div style=&quot;font-size: 15.4px; font-family: Consolas, &amp;quot;Courier New&amp;quot;, monospace; color: rgb(212, 212, 212);&quot;&gt;&lt;div style=&quot;font-size: 15.96px; line-height: 21px;&quot;&gt;&lt;span style=&quot;color: #6a9955;&quot;&gt;// Issue the next I-cache request if possible.&lt;/span&gt;&lt;/div&gt;&lt;/div&gt;&lt;div style=&quot;font-size: 15.4px; font-family: Consolas, &amp;quot;Courier New&amp;quot;, monospace;&quot;&gt;&lt;span style=&quot;color: rgb(212, 212, 212);&quot;&gt;|遍历Threads，如果需要调用&lt;/span&gt;&lt;font color=&quot;#d4d4d4&quot;&gt;pipelineIcacheAccesses(tid)&lt;/font&gt;&lt;/div&gt;&lt;div style=&quot;font-size: 15.4px; font-family: Consolas, &amp;quot;Courier New&amp;quot;, monospace; color: rgb(212, 212, 212);&quot;&gt;||获取该thread的pc值，对齐地址&lt;br&gt;&lt;/div&gt;&lt;div style=&quot;font-size: 15.4px; font-family: Consolas, &amp;quot;Courier New&amp;quot;, monospace; color: rgb(212, 212, 212);&quot;&gt;||如果已在icache中，从icache取&lt;/div&gt;&lt;div style=&quot;font-size: 15.4px; font-family: Consolas, &amp;quot;Courier New&amp;quot;, monospace; color: rgb(212, 212, 212);&quot;&gt;||否则调用&lt;span style=&quot;font-size: 15.12px;&quot;&gt;fetchCacheLine()函数填充icache&lt;/span&gt;&lt;/div&gt;&lt;div style=&quot;font-size: 15.4px; font-family: Consolas, &amp;quot;Courier New&amp;quot;, monospace; color: rgb(212, 212, 212);&quot;&gt;&lt;span style=&quot;font-size: 15.12px;&quot;&gt;|||cache block或中断pending等情况下直接返回false&lt;/span&gt;&lt;/div&gt;&lt;div style=&quot;font-size: 15.4px; font-family: Consolas, &amp;quot;Courier New&amp;quot;, monospace;&quot;&gt;&lt;span style=&quot;color: rgb(212, 212, 212); font-size: 15.12px;&quot;&gt;|||创建一个req指针&lt;/span&gt;&lt;span style=&quot;font-size: 15.12px;&quot;&gt;&lt;font color=&quot;#d4d4d4&quot;&gt;memReq[tid]&lt;/font&gt;&lt;/span&gt;&lt;span style=&quot;font-size: 15.12px;&quot;&gt;&lt;font color=&quot;#d4d4d4&quot;&gt;即&lt;/font&gt;&lt;/span&gt;&lt;span style=&quot;color: rgb(212, 212, 212); font-size: 15.12px;&quot;&gt;mem_req&lt;/span&gt;&lt;/div&gt;&lt;div style=&quot;font-size: 15.4px; font-family: Consolas, &amp;quot;Courier New&amp;quot;, monospace;&quot;&gt;&lt;span style=&quot;color: rgb(212, 212, 212); font-size: 15.12px;&quot;&gt;|||创建一个&lt;/span&gt;&lt;span style=&quot;color: rgb(212, 212, 212); font-size: 15.12px;&quot;&gt;FetchTranslation类型对象&lt;/span&gt;&lt;span style=&quot;color: rgb(212, 212, 212); font-size: 15.12px;&quot;&gt;trans&lt;/span&gt;&lt;/div&gt;&lt;div style=&quot;font-size: 15.4px; font-family: Consolas, &amp;quot;Courier New&amp;quot;, monospace;&quot;&gt;&lt;span style=&quot;color: rgb(212, 212, 212); font-size: 15.12px;&quot;&gt;|||调用&lt;/span&gt;&lt;span style=&quot;color: rgb(212, 212, 212); font-size: 15.12px;&quot;&gt;cpu-&amp;gt;mmu-&amp;gt;translateTiming&lt;/span&gt;&lt;span style=&quot;color: rgb(212, 212, 212); font-size: 15.12px;&quot;&gt;(req, tc, translation, mode)&lt;/span&gt;&lt;span style=&quot;color: rgb(212, 212, 212); font-size: 15.12px;&quot;&gt;函数，将mem_req和trans作参数&lt;/span&gt;&lt;br&gt;&lt;/div&gt;&lt;div style=&quot;font-size: 15.4px; font-family: Consolas, &amp;quot;Courier New&amp;quot;, monospace;&quot;&gt;&lt;span style=&quot;font-size: 15.12px;&quot;&gt;&lt;font color=&quot;#6a9955&quot;&gt;//将预取队列（fetch queue）中取到的指令通过timeBuffer对象传给下一级，准备decode&lt;/font&gt;&lt;/span&gt;&lt;/div&gt;&lt;div style=&quot;font-size: 15.4px; font-family: Consolas, &amp;quot;Courier New&amp;quot;, monospace;&quot;&gt;&lt;span style=&quot;color: rgb(212, 212, 212); font-size: 15.12px;&quot;&gt;|随机选择一个thread来开始抓取指令：&lt;/span&gt;&lt;span style=&quot;color: rgb(212, 212, 212); font-size: 15.12px;&quot;&gt;从fetchqueue队头取一条指令，放到TimeBuffer对象&lt;/span&gt;&lt;span style=&quot;font-size: 15.12px;&quot;&gt;&lt;font color=&quot;#ff9999&quot;&gt;toDecode&lt;/font&gt;&lt;/span&gt;&lt;span style=&quot;color: rgb(212, 212, 212); font-size: 15.12px;&quot;&gt;中，然后指令出队&lt;/span&gt;&lt;/div&gt;&lt;div style=&quot;font-size: 15.4px; font-family: Consolas, &amp;quot;Courier New&amp;quot;, monospace;&quot;&gt;&lt;span style=&quot;color: rgb(212, 212, 212); font-size: 15.12px;&quot;&gt;|不断循环到下一个thread继续抓取指令，直到所有thread的fetchqueue遍历完&lt;/span&gt;&lt;span style=&quot;color: rgb(212, 212, 212); font-size: 15.12px;&quot;&gt;或要解码指令大于等于&lt;/span&gt;&lt;span style=&quot;color: rgb(212, 212, 212); font-size: 15.12px;&quot;&gt;decodeWidth（例如3解码就是3）&lt;/span&gt;&lt;br&gt;&lt;/div&gt;&lt;div style=&quot;font-size: 15.4px; font-family: Consolas, &amp;quot;Courier New&amp;quot;, monospace;&quot;&gt;&lt;div style=&quot;color: rgb(212, 212, 212); font-size: 15.96px; line-height: 21px;&quot;&gt;&lt;span style=&quot;color: #6a9955;&quot;&gt;// If there was activity this cycle, inform the CPU of it.&lt;/span&gt;&lt;/div&gt;&lt;/div&gt;&lt;div style=&quot;font-size: 15.4px; font-family: Consolas, &amp;quot;Courier New&amp;quot;, monospace; color: rgb(212, 212, 212);&quot;&gt;&lt;div style=&quot;font-size: 15.96px; line-height: 21px;&quot;&gt;&lt;span style=&quot;color: #6a9955;&quot;&gt;// Reset the number of the instruction we've fetched.&lt;/span&gt;&lt;/div&gt;&lt;/div&gt;&lt;div style=&quot;font-size: 15.4px; font-family: Consolas, &amp;quot;Courier New&amp;quot;, monospace; color: rgb(212, 212, 212);&quot;&gt;|将&lt;span style=&quot;font-size: 15.96px;&quot;&gt;numInst设为0&lt;/span&gt;&lt;/div&gt;&lt;div style=&quot;font-size: 15.4px; font-family: Consolas, &amp;quot;Courier New&amp;quot;, monospace; color: rgb(212, 212, 212);&quot;&gt;&lt;span style=&quot;font-size: 15.96px;&quot;&gt;|结束&lt;/span&gt;&lt;/div&gt;&lt;/div&gt;" style="text;html=1;align=left;verticalAlign=middle;resizable=0;points=[];autosize=1;strokeColor=none;fillColor=none;" vertex="1" parent="eKDVVrpwqSBAafih0iPy-1">
                    <mxGeometry y="50" width="940" height="780" as="geometry"/>
                </mxCell>
                <mxCell id="RZ1j5cDPBnVX9owTlXQs-1" value="" style="edgeStyle=none;orthogonalLoop=1;jettySize=auto;html=1;fontColor=#6A9955;exitX=1.002;exitY=0.022;exitDx=0;exitDy=0;exitPerimeter=0;entryX=-0.002;entryY=0.023;entryDx=0;entryDy=0;entryPerimeter=0;endArrow=none;endFill=0;" edge="1" parent="1" source="eKDVVrpwqSBAafih0iPy-1" target="66mU_7PJDNLnkaf3Hdjs-2">
                    <mxGeometry width="100" relative="1" as="geometry">
                        <mxPoint x="160" y="110" as="sourcePoint"/>
                        <mxPoint x="230" y="110" as="targetPoint"/>
                        <Array as="points"/>
                    </mxGeometry>
                </mxCell>
            </root>
        </mxGraphModel>
    </diagram>
    <diagram name="Decode" id="9o1owwNErmHT4_jZ1HF4">
        <mxGraphModel dx="1842" dy="497" grid="1" gridSize="10" guides="1" tooltips="1" connect="1" arrows="1" fold="1" page="1" pageScale="1" pageWidth="827" pageHeight="1169" math="0" shadow="0">
            <root>
                <mxCell id="AjRQN3_28Cz0yGzCLxNK-0"/>
                <mxCell id="AjRQN3_28Cz0yGzCLxNK-1" parent="AjRQN3_28Cz0yGzCLxNK-0"/>
                <mxCell id="AjRQN3_28Cz0yGzCLxNK-3" value="gem5::o3::Decode" style="swimlane;startSize=23;" vertex="1" parent="AjRQN3_28Cz0yGzCLxNK-1">
                    <mxGeometry x="230" y="100" width="600" height="800" as="geometry">
                        <mxRectangle x="-200" y="804" width="100" height="116" as="alternateBounds"/>
                    </mxGeometry>
                </mxCell>
                <mxCell id="AjRQN3_28Cz0yGzCLxNK-4" value="&lt;div style=&quot;background-color: rgb(30, 30, 30); line-height: 20px;&quot;&gt;&lt;div style=&quot;font-size: 15.4px; font-family: Consolas, &amp;quot;Courier New&amp;quot;, monospace;&quot;&gt;&lt;div style=&quot;font-size: 14.84px; line-height: 20px;&quot;&gt;&lt;div style=&quot;&quot;&gt;&lt;div style=&quot;color: rgb(212, 212, 212); line-height: 20px;&quot;&gt;&lt;div&gt;private：&lt;br&gt;&lt;/div&gt;&lt;div&gt;&lt;span style=&quot;color: rgb(106, 153, 85);&quot;&gt;//6个wire：4个流入，2个流出&lt;/span&gt;&lt;br&gt;&lt;/div&gt;&lt;/div&gt;&lt;/div&gt;&lt;div style=&quot;&quot;&gt;&lt;div style=&quot;line-height: 20px;&quot;&gt;&lt;div style=&quot;color: rgb(212, 212, 212);&quot;&gt;&lt;span style=&quot;color: #6a9955;&quot;&gt;&amp;nbsp; &amp;nbsp; /** Wire to get rename's output from backwards time buffer. */&lt;/span&gt;&lt;/div&gt;&lt;div style=&quot;color: rgb(212, 212, 212);&quot;&gt;&amp;nbsp; &amp;nbsp; TimeBuffer&amp;lt;TimeStruct&amp;gt;::wire fromRename;&lt;/div&gt;&lt;div style=&quot;color: rgb(212, 212, 212);&quot;&gt;&lt;span style=&quot;color: #6a9955;&quot;&gt;&amp;nbsp; &amp;nbsp; /** Wire to get iew's information from backwards time buffer. */&lt;/span&gt;&lt;/div&gt;&lt;div style=&quot;color: rgb(212, 212, 212);&quot;&gt;&amp;nbsp; &amp;nbsp; TimeBuffer&amp;lt;TimeStruct&amp;gt;::wire fromIEW;&lt;/div&gt;&lt;div style=&quot;color: rgb(212, 212, 212);&quot;&gt;&lt;span style=&quot;color: #6a9955;&quot;&gt;&amp;nbsp; &amp;nbsp; /** Wire to get commit's information from backwards time buffer. */&lt;/span&gt;&lt;/div&gt;&lt;div style=&quot;color: rgb(212, 212, 212);&quot;&gt;&amp;nbsp; &amp;nbsp; TimeBuffer&amp;lt;TimeStruct&amp;gt;::wire fromCommit;&lt;/div&gt;&lt;div style=&quot;color: rgb(212, 212, 212);&quot;&gt;&lt;span style=&quot;color: #6a9955;&quot;&gt;&amp;nbsp; &amp;nbsp; /** Wire to write information heading to previous stages. */&lt;/span&gt;&lt;/div&gt;&lt;div style=&quot;color: rgb(212, 212, 212);&quot;&gt;&lt;span style=&quot;color: #6a9955;&quot;&gt;&amp;nbsp; &amp;nbsp; // Might not be the best name as not only fetch will read it.&lt;/span&gt;&lt;/div&gt;&lt;div style=&quot;color: rgb(212, 212, 212);&quot;&gt;&amp;nbsp; &amp;nbsp; TimeBuffer&amp;lt;TimeStruct&amp;gt;::wire toFetch;&lt;/div&gt;&lt;div style=&quot;color: rgb(212, 212, 212);&quot;&gt;&lt;span style=&quot;color: #6a9955;&quot;&gt;&amp;nbsp; &amp;nbsp; /** Decode instruction queue. */&lt;/span&gt;&lt;/div&gt;&lt;div style=&quot;color: rgb(212, 212, 212);&quot;&gt;&amp;nbsp; &amp;nbsp; TimeBuffer&amp;lt;DecodeStruct&amp;gt; *decodeQueue;&lt;/div&gt;&lt;div style=&quot;color: rgb(212, 212, 212);&quot;&gt;&lt;span style=&quot;color: #6a9955;&quot;&gt;&amp;nbsp; &amp;nbsp; /** Wire used to write any information heading to rename. */&lt;/span&gt;&lt;/div&gt;&lt;div style=&quot;&quot;&gt;&lt;span style=&quot;color: rgb(212, 212, 212);&quot;&gt;&amp;nbsp; &amp;nbsp; TimeBuffer&amp;lt;DecodeStruct&amp;gt;::wire &lt;/span&gt;&lt;font color=&quot;#ff9999&quot;&gt;toRename&lt;/font&gt;&lt;font color=&quot;#d4d4d4&quot;&gt;;&lt;/font&gt;&lt;/div&gt;&lt;div style=&quot;color: rgb(212, 212, 212);&quot;&gt;&lt;span style=&quot;color: #6a9955;&quot;&gt;&amp;nbsp; &amp;nbsp; /** Fetch instruction queue interface. */&lt;/span&gt;&lt;/div&gt;&lt;div style=&quot;color: rgb(212, 212, 212);&quot;&gt;&amp;nbsp; &amp;nbsp; TimeBuffer&amp;lt;FetchStruct&amp;gt; *fetchQueue;&lt;/div&gt;&lt;div style=&quot;color: rgb(212, 212, 212);&quot;&gt;&lt;span style=&quot;color: #6a9955;&quot;&gt;&amp;nbsp; &amp;nbsp; /** Wire to get fetch's output from fetch queue. */&lt;/span&gt;&lt;/div&gt;&lt;div style=&quot;&quot;&gt;&lt;font color=&quot;#d4d4d4&quot;&gt;&amp;nbsp; &amp;nbsp; TimeBuffer&amp;lt;FetchStruct&amp;gt;::wire &lt;/font&gt;&lt;font color=&quot;#ff9999&quot;&gt;fromFetch&lt;/font&gt;&lt;font color=&quot;#d4d4d4&quot;&gt;;&lt;/font&gt;&lt;/div&gt;&lt;div style=&quot;color: rgb(212, 212, 212);&quot;&gt;&lt;span style=&quot;color: #6a9955;&quot;&gt;&amp;nbsp; &amp;nbsp; /** Queue of all instructions coming from fetch this cycle. */&lt;/span&gt;&lt;/div&gt;&lt;div style=&quot;color: rgb(212, 212, 212);&quot;&gt;&amp;nbsp; &amp;nbsp; std::queue&amp;lt;DynInstPtr&amp;gt; insts[MaxThreads];&lt;/div&gt;&lt;div style=&quot;color: rgb(212, 212, 212);&quot;&gt;&lt;span style=&quot;color: #6a9955;&quot;&gt;&amp;nbsp; &amp;nbsp; /** Skid buffer between fetch and decode. */&lt;/span&gt;&lt;/div&gt;&lt;div style=&quot;color: rgb(212, 212, 212);&quot;&gt;&amp;nbsp; &amp;nbsp; std::queue&amp;lt;DynInstPtr&amp;gt; skidBuffer[MaxThreads];&lt;/div&gt;&lt;div style=&quot;color: rgb(212, 212, 212);&quot;&gt;...&lt;/div&gt;&lt;div style=&quot;color: rgb(212, 212, 212);&quot;&gt;&lt;div style=&quot;line-height: 20px;&quot;&gt;&lt;div&gt;&lt;span style=&quot;color: #6a9955;&quot;&gt;&amp;nbsp; &amp;nbsp; /** Rename to decode delay. */&lt;/span&gt;&lt;/div&gt;&lt;div&gt;&amp;nbsp; &amp;nbsp; Cycles renameToDecodeDelay;&lt;/div&gt;&lt;div&gt;&lt;span style=&quot;color: #6a9955;&quot;&gt;&amp;nbsp; &amp;nbsp; /** IEW to decode delay. */&lt;/span&gt;&lt;/div&gt;&lt;div&gt;&amp;nbsp; &amp;nbsp; Cycles iewToDecodeDelay;&lt;/div&gt;&lt;div&gt;&lt;span style=&quot;color: #6a9955;&quot;&gt;&amp;nbsp; &amp;nbsp; /** Commit to decode delay. */&lt;/span&gt;&lt;/div&gt;&lt;div&gt;&amp;nbsp; &amp;nbsp; Cycles commitToDecodeDelay;&lt;/div&gt;&lt;div&gt;&lt;span style=&quot;color: #6a9955;&quot;&gt;&amp;nbsp; &amp;nbsp; /** Fetch to decode delay. */&lt;/span&gt;&lt;/div&gt;&lt;div&gt;&amp;nbsp; &amp;nbsp; Cycles fetchToDecodeDelay;&lt;/div&gt;&lt;/div&gt;&lt;/div&gt;&lt;/div&gt;&lt;/div&gt;&lt;/div&gt;&lt;/div&gt;&lt;/div&gt;" style="text;html=1;align=left;verticalAlign=middle;resizable=0;points=[];autosize=1;strokeColor=none;fillColor=none;" vertex="1" parent="AjRQN3_28Cz0yGzCLxNK-3">
                    <mxGeometry y="50" width="600" height="650" as="geometry"/>
                </mxCell>
                <mxCell id="AjRQN3_28Cz0yGzCLxNK-10" value="关键代码" style="swimlane;startSize=23;" vertex="1" parent="AjRQN3_28Cz0yGzCLxNK-1">
                    <mxGeometry x="-800" y="100" width="960" height="840" as="geometry">
                        <mxRectangle x="-800" y="100" width="100" height="116" as="alternateBounds"/>
                    </mxGeometry>
                </mxCell>
                <mxCell id="AjRQN3_28Cz0yGzCLxNK-11" value="&lt;div style=&quot;background-color: rgb(30, 30, 30); line-height: 20px;&quot;&gt;&lt;div style=&quot;font-size: 15.4px; font-family: Consolas, &amp;quot;Courier New&amp;quot;, monospace;&quot;&gt;&lt;span style=&quot;color: rgb(86, 156, 214); font-size: 15.96px;&quot;&gt;void &lt;/span&gt;&lt;span style=&quot;font-size: 15.96px;&quot;&gt;&lt;font color=&quot;#d4d4d4&quot;&gt;Decode&lt;/font&gt;&lt;/span&gt;&lt;span style=&quot;color: rgb(212, 212, 212); font-size: 15.96px;&quot;&gt;::tick()&lt;/span&gt;&lt;/div&gt;&lt;div style=&quot;font-size: 15.4px; font-family: Consolas, &amp;quot;Courier New&amp;quot;, monospace;&quot;&gt;&lt;font color=&quot;#d4d4d4&quot;&gt;|调用&lt;/font&gt;&lt;span style=&quot;color: rgb(212, 212, 212); font-size: 14.84px;&quot;&gt;sortInsts()函数，将&lt;/span&gt;&lt;span style=&quot;font-size: 14.84px;&quot;&gt;&lt;font color=&quot;#ff9999&quot;&gt;fromFetch&lt;/font&gt;&lt;font color=&quot;#d4d4d4&quot;&gt;中的指令按thread分类，并压栈到&lt;/font&gt;&lt;/span&gt;&lt;span style=&quot;color: rgb(212, 212, 212); font-size: 14.84px;&quot;&gt;insts[tid]队列中&lt;/span&gt;&lt;/div&gt;&lt;div style=&quot;font-size: 15.4px; font-family: Consolas, &amp;quot;Courier New&amp;quot;, monospace;&quot;&gt;&lt;span style=&quot;color: rgb(212, 212, 212); font-size: 14.84px;&quot;&gt;|遍历thread，调用&lt;/span&gt;&lt;span style=&quot;color: rgb(212, 212, 212); font-size: 14.84px;&quot;&gt;decode(status_change, tid)函数解码指令&lt;/span&gt;&lt;/div&gt;&lt;div style=&quot;font-size: 15.4px; font-family: Consolas, &amp;quot;Courier New&amp;quot;, monospace;&quot;&gt;&lt;span style=&quot;color: rgb(212, 212, 212); font-size: 14.84px;&quot;&gt;||&lt;/span&gt;&lt;span style=&quot;color: rgb(86, 156, 214); font-size: 15.96px;&quot;&gt;void&lt;/span&gt;&lt;span style=&quot;color: rgb(86, 156, 214); font-size: 15.96px;&quot;&gt;&amp;nbsp;&lt;/span&gt;&lt;span style=&quot;color: rgb(212, 212, 212); font-size: 14.84px;&quot;&gt;Decode::decode(&lt;/span&gt;&lt;span style=&quot;font-size: 14.84px; color: rgb(86, 156, 214);&quot;&gt;bool&lt;/span&gt;&lt;span style=&quot;color: rgb(212, 212, 212); font-size: 14.84px;&quot;&gt; &amp;amp;status_change, ThreadID tid)&lt;/span&gt;&lt;/div&gt;&lt;div style=&quot;font-size: 15.4px; font-family: Consolas, &amp;quot;Courier New&amp;quot;, monospace;&quot;&gt;&lt;div style=&quot;color: rgb(212, 212, 212); font-size: 14.84px; line-height: 20px;&quot;&gt;&lt;div&gt;&lt;span style=&quot;color: #6a9955;&quot;&gt;// If status is Running or idle,&lt;/span&gt;&lt;span style=&quot;color: rgb(106, 153, 85);&quot;&gt;&amp;nbsp;call decodeInsts()&lt;/span&gt;&lt;/div&gt;&lt;div&gt;&lt;span style=&quot;color: #6a9955;&quot;&gt;// If status is Unblocking,&lt;/span&gt;&lt;span style=&quot;color: rgb(106, 153, 85);&quot;&gt;&amp;nbsp;buffer any instructions coming from fetch&lt;/span&gt;&lt;/div&gt;&lt;div&gt;&lt;span style=&quot;color: #6a9955;&quot;&gt;// &amp;nbsp; &amp;nbsp; continue trying to empty skid buffer&lt;/span&gt;&lt;/div&gt;&lt;div&gt;&lt;span style=&quot;color: #6a9955;&quot;&gt;// &amp;nbsp; &amp;nbsp; check if stall conditions have passed&lt;/span&gt;&lt;/div&gt;&lt;/div&gt;&lt;/div&gt;&lt;div style=&quot;font-size: 15.4px; font-family: Consolas, &amp;quot;Courier New&amp;quot;, monospace;&quot;&gt;&lt;span style=&quot;color: rgb(212, 212, 212); font-size: 14.84px;&quot;&gt;|||&lt;/span&gt;&lt;span style=&quot;color: rgb(86, 156, 214); font-size: 15.96px;&quot;&gt;void&lt;/span&gt;&lt;span style=&quot;color: rgb(86, 156, 214); font-size: 15.96px;&quot;&gt;&amp;nbsp;&lt;/span&gt;&lt;span style=&quot;color: rgb(212, 212, 212); font-size: 14.84px;&quot;&gt;Decode::decodeInsts(ThreadID tid)&lt;/span&gt;&lt;/div&gt;&lt;div style=&quot;font-family: Consolas, &amp;quot;Courier New&amp;quot;, monospace;&quot;&gt;&lt;font color=&quot;#6a9955&quot;&gt;&lt;span style=&quot;font-size: 14.84px;&quot;&gt;//&amp;nbsp;&lt;/span&gt;&lt;span style=&quot;font-size: 10.5pt; font-family: 宋体;&quot;&gt;虽然这个&lt;/span&gt;&lt;span style=&quot;font-size: 10.5pt; font-family: Calibri, sans-serif;&quot; lang=&quot;EN-US&quot;&gt;stage&lt;/span&gt;&lt;span style=&quot;font-size: 10.5pt; font-family: 宋体;&quot;&gt;名字叫做&lt;/span&gt;&lt;span style=&quot;font-size: 10.5pt; font-family: Calibri, sans-serif;&quot; lang=&quot;EN-US&quot;&gt;decode&lt;/span&gt;&lt;span style=&quot;font-size: 10.5pt; font-family: 宋体;&quot;&gt;，但是由于预解码已经在&lt;/span&gt;&lt;span style=&quot;font-size: 10.5pt; font-family: Calibri, sans-serif;&quot; lang=&quot;EN-US&quot;&gt;fetch&lt;/span&gt;&lt;span style=&quot;font-size: 10.5pt; font-family: 宋体;&quot;&gt;阶段完成，就只需要根据预解码的结果所完成的信息来处理指令。&lt;/span&gt;&lt;/font&gt;&lt;/div&gt;&lt;div style=&quot;font-family: Consolas, &amp;quot;Courier New&amp;quot;, monospace;&quot;&gt;&lt;span style=&quot;font-size: 10.5pt; font-family: 宋体;&quot;&gt;&lt;font color=&quot;#6a9955&quot;&gt;//&amp;nbsp; &amp;nbsp; 最主要的就是，检测预解码的信息是否与分支预测的结果相矛盾。&lt;/font&gt;&lt;/span&gt;&lt;/div&gt;&lt;div style=&quot;font-family: Consolas, &amp;quot;Courier New&amp;quot;, monospace;&quot;&gt;&lt;span style=&quot;color: rgb(212, 212, 212); font-size: 14.84px;&quot;&gt;|||&lt;/span&gt;&lt;span style=&quot;font-size: 10.5pt; font-family: 宋体;&quot;&gt;&lt;font color=&quot;#d4d4d4&quot;&gt;如果正常，将指令inst放到连线&lt;/font&gt;&lt;/span&gt;&lt;span style=&quot;font-size: 14.84px;&quot;&gt;&lt;font color=&quot;#ff9999&quot;&gt;toRename&lt;/font&gt;&lt;/span&gt;&lt;span style=&quot;color: rgb(212, 212, 212); font-size: 14.84px;&quot;&gt;中&lt;/span&gt;&lt;/div&gt;&lt;div style=&quot;font-size: 15.4px; font-family: Consolas, &amp;quot;Courier New&amp;quot;, monospace;&quot;&gt;&lt;span style=&quot;color: rgb(212, 212, 212); font-size: 14.84px;&quot;&gt;|更新status，并根据&lt;/span&gt;&lt;span style=&quot;color: rgb(212, 212, 212); font-size: 14.84px;&quot;&gt;wroteToTimeBuffer&lt;/span&gt;&lt;span style=&quot;color: rgb(212, 212, 212); font-size: 14.84px;&quot;&gt;记录要本cycle有写time buffer动作&lt;/span&gt;&lt;/div&gt;&lt;div style=&quot;font-size: 15.4px; font-family: Consolas, &amp;quot;Courier New&amp;quot;, monospace; color: rgb(212, 212, 212);&quot;&gt;&lt;span style=&quot;font-size: 15.96px;&quot;&gt;|结束&lt;/span&gt;&lt;/div&gt;&lt;/div&gt;" style="text;html=1;align=left;verticalAlign=middle;resizable=0;points=[];autosize=1;strokeColor=none;fillColor=none;" vertex="1" parent="AjRQN3_28Cz0yGzCLxNK-10">
                    <mxGeometry y="290" width="840" height="300" as="geometry"/>
                </mxCell>
                <mxCell id="AjRQN3_28Cz0yGzCLxNK-12" value="" style="edgeStyle=none;orthogonalLoop=1;jettySize=auto;html=1;fontColor=#6A9955;exitX=1.002;exitY=0.022;exitDx=0;exitDy=0;exitPerimeter=0;entryX=-0.002;entryY=0.023;entryDx=0;entryDy=0;entryPerimeter=0;endArrow=none;endFill=0;" edge="1" parent="AjRQN3_28Cz0yGzCLxNK-1" source="AjRQN3_28Cz0yGzCLxNK-10" target="AjRQN3_28Cz0yGzCLxNK-3">
                    <mxGeometry width="100" relative="1" as="geometry">
                        <mxPoint x="160" y="110" as="sourcePoint"/>
                        <mxPoint x="230" y="110" as="targetPoint"/>
                        <Array as="points"/>
                    </mxGeometry>
                </mxCell>
            </root>
        </mxGraphModel>
    </diagram>
</mxfile>